<svg width="68" height="68" viewBox="0 0 68 68" fill="none" xmlns="http://www.w3.org/2000/svg">
  <g filter="url(#filter0_d_2593_3641)">
  <path d="M59 4H9C7.67392 4 6.40215 4.52678 5.46447 5.46447C4.52678 6.40215 4 7.67392 4 9V59C4 60.3261 4.52678 61.5979 5.46447 62.5355C6.40215 63.4732 7.67392 64 9 64H59C60.3261 64 61.5979 63.4732 62.5355 62.5355C63.4732 61.5979 64 60.3261 64 59V9C64 7.67392 63.4732 6.40215 62.5355 5.46447C61.5979 4.52678 60.3261 4 59 4ZM51.5 36.5H36.5V51.5C36.5 52.163 36.2366 52.7989 35.7678 53.2678C35.2989 53.7366 34.663 54 34 54C33.337 54 32.7011 53.7366 32.2322 53.2678C31.7634 52.7989 31.5 52.163 31.5 51.5V36.5H16.5C15.837 36.5 15.2011 36.2366 14.7322 35.7678C14.2634 35.2989 14 34.663 14 34C14 33.337 14.2634 32.7011 14.7322 32.2322C15.2011 31.7634 15.837 31.5 16.5 31.5H31.5V16.5C31.5 15.837 31.7634 15.2011 32.2322 14.7322C32.7011 14.2634 33.337 14 34 14C34.663 14 35.2989 14.2634 35.7678 14.7322C36.2366 15.2011 36.5 15.837 36.5 16.5V31.5H51.5C52.163 31.5 52.7989 31.7634 53.2678 32.2322C53.7366 32.7011 54 33.337 54 34C54 34.663 53.7366 35.2989 53.2678 35.7678C52.7989 36.2366 52.163 36.5 51.5 36.5Z" fill="#FFC700"/>
  </g>
  <defs>
  <filter id="filter0_d_2593_3641" x="0" y="0" width="68" height="68" filterUnits="userSpaceOnUse" color-interpolation-filters="sRGB">
  <feFlood flood-opacity="0" result="BackgroundImageFix"/>
  <feColorMatrix in="SourceAlpha" type="matrix" values="0 0 0 0 0 0 0 0 0 0 0 0 0 0 0 0 0 0 127 0" result="hardAlpha"/>
  <feOffset/>
  <feGaussianBlur stdDeviation="2"/>
  <feComposite in2="hardAlpha" operator="out"/>
  <feColorMatrix type="matrix" values="0 0 0 0 1 0 0 0 0 0.78 0 0 0 0 0 0 0 0 1 0"/>
  <feBlend mode="normal" in2="BackgroundImageFix" result="effect1_dropShadow_2593_3641"/>
  <feBlend mode="normal" in="SourceGraphic" in2="effect1_dropShadow_2593_3641" result="shape"/>
  </filter>
  </defs>
  </svg>
  