<svg width="20" height="16" viewBox="0 0 20 16" fill="none" xmlns="http://www.w3.org/2000/svg">
  <path d="M0 3.11111C0 2.46281 0.263392 1.84105 0.732233 1.38263C1.20107 0.924207 1.83696 0.666668 2.5 0.666668H17.5C18.163 0.666668 18.7989 0.924207 19.2678 1.38263C19.7366 1.84105 20 2.46281 20 3.11111V12.8889C20 13.5372 19.7366 14.159 19.2678 14.6174C18.7989 15.0758 18.163 15.3333 17.5 15.3333H2.5C1.83696 15.3333 1.20107 15.0758 0.732233 14.6174C0.263392 14.159 0 13.5372 0 12.8889V3.11111ZM2.5 1.88889C2.16848 1.88889 1.85054 2.01766 1.61612 2.24687C1.3817 2.47608 1.25 2.78696 1.25 3.11111V4.33333H18.75V3.11111C18.75 2.78696 18.6183 2.47608 18.3839 2.24687C18.1495 2.01766 17.8315 1.88889 17.5 1.88889H2.5ZM18.75 6.77778H1.25V12.8889C1.25 13.213 1.3817 13.5239 1.61612 13.7531C1.85054 13.9823 2.16848 14.1111 2.5 14.1111H17.5C17.8315 14.1111 18.1495 13.9823 18.3839 13.7531C18.6183 13.5239 18.75 13.213 18.75 12.8889V6.77778Z" fill="#FF7900"/>
  </svg>
  