<svg width="24" height="24" viewBox="0 0 20 16" fill="none" xmlns="http://www.w3.org/2000/svg">
<path d="M0 3.11119C0 2.46289 0.263392 1.84113 0.732233 1.38271C1.20107 0.924287 1.83696 0.666748 2.5 0.666748H17.5C18.163 0.666748 18.7989 0.924287 19.2678 1.38271C19.7366 1.84113 20 2.46289 20 3.11119V12.889C20 13.5373 19.7366 14.159 19.2678 14.6175C18.7989 15.0759 18.163 15.3334 17.5 15.3334H2.5C1.83696 15.3334 1.20107 15.0759 0.732233 14.6175C0.263392 14.159 0 13.5373 0 12.889V3.11119ZM2.5 1.88897C2.16848 1.88897 1.85054 2.01774 1.61612 2.24695C1.3817 2.47616 1.25 2.78704 1.25 3.11119V4.33341H18.75V3.11119C18.75 2.78704 18.6183 2.47616 18.3839 2.24695C18.1495 2.01774 17.8315 1.88897 17.5 1.88897H2.5ZM18.75 6.77786H1.25V12.889C1.25 13.2131 1.3817 13.524 1.61612 13.7532C1.85054 13.9824 2.16848 14.1112 2.5 14.1112H17.5C17.8315 14.1112 18.1495 13.9824 18.3839 13.7532C18.6183 13.524 18.75 13.2131 18.75 12.889V6.77786Z" fill="#FF7900"/>
<path d="M2.5 10.4446C2.5 10.1205 2.6317 9.8096 2.86612 9.58039C3.10054 9.35118 3.41848 9.22241 3.75 9.22241H5C5.33152 9.22241 5.64946 9.35118 5.88388 9.58039C6.1183 9.8096 6.25 10.1205 6.25 10.4446V11.6669C6.25 11.991 6.1183 12.3019 5.88388 12.5311C5.64946 12.7603 5.33152 12.8891 5 12.8891H3.75C3.41848 12.8891 3.10054 12.7603 2.86612 12.5311C2.6317 12.3019 2.5 11.991 2.5 11.6669V10.4446Z" fill="#FF7900"/>
</svg>
