<svg width="24" height="24" viewBox="0 0 28 24" fill="none" xmlns="http://www.w3.org/2000/svg">
<g filter="url(#filter0_d_1061_416)">
<path d="M4 7.11119C4 6.46289 4.26339 5.84113 4.73223 5.38271C5.20107 4.92429 5.83696 4.66675 6.5 4.66675H21.5C22.163 4.66675 22.7989 4.92429 23.2678 5.38271C23.7366 5.84113 24 6.46289 24 7.11119V16.889C24 17.5373 23.7366 18.159 23.2678 18.6175C22.7989 19.0759 22.163 19.3334 21.5 19.3334H6.5C5.83696 19.3334 5.20107 19.0759 4.73223 18.6175C4.26339 18.159 4 17.5373 4 16.889V7.11119ZM6.5 5.88897C6.16848 5.88897 5.85054 6.01774 5.61612 6.24695C5.3817 6.47616 5.25 6.78704 5.25 7.11119V8.33341H22.75V7.11119C22.75 6.78704 22.6183 6.47616 22.3839 6.24695C22.1495 6.01774 21.8315 5.88897 21.5 5.88897H6.5ZM22.75 10.7779H5.25V16.889C5.25 17.2131 5.3817 17.524 5.61612 17.7532C5.85054 17.9824 6.16848 18.1112 6.5 18.1112H21.5C21.8315 18.1112 22.1495 17.9824 22.3839 17.7532C22.6183 17.524 22.75 17.2131 22.75 16.889V10.7779Z" fill="#FFC700"/>
<path d="M6.5 14.4446C6.5 14.1205 6.6317 13.8096 6.86612 13.5804C7.10054 13.3512 7.41848 13.2224 7.75 13.2224H9C9.33152 13.2224 9.64946 13.3512 9.88388 13.5804C10.1183 13.8096 10.25 14.1205 10.25 14.4446V15.6669C10.25 15.991 10.1183 16.3019 9.88388 16.5311C9.64946 16.7603 9.33152 16.8891 9 16.8891H7.75C7.41848 16.8891 7.10054 16.7603 6.86612 16.5311C6.6317 16.3019 6.5 15.991 6.5 15.6669V14.4446Z" fill="#FFC700"/>
</g>
<defs>
<filter id="filter0_d_1061_416" x="0" y="0.666748" width="28" height="22.6667" filterUnits="userSpaceOnUse" color-interpolation-filters="sRGB">
<feFlood flood-opacity="0" result="BackgroundImageFix"/>
<feColorMatrix in="SourceAlpha" type="matrix" values="0 0 0 0 0 0 0 0 0 0 0 0 0 0 0 0 0 0 127 0" result="hardAlpha"/>
<feOffset/>
<feGaussianBlur stdDeviation="2"/>
<feComposite in2="hardAlpha" operator="out"/>
<feColorMatrix type="matrix" values="0 0 0 0 1 0 0 0 0 0.78 0 0 0 0 0 0 0 0 1 0"/>
<feBlend mode="normal" in2="BackgroundImageFix" result="effect1_dropShadow_1061_416"/>
<feBlend mode="normal" in="SourceGraphic" in2="effect1_dropShadow_1061_416" result="shape"/>
</filter>
</defs>
</svg>
