<svg width="28" height="28" viewBox="0 0 28 28" fill="none" xmlns="http://www.w3.org/2000/svg">
<g filter="url(#filter0_d_1061_436)">
<path d="M14.0028 4C15.5133 4.00087 17.0041 4.34375 18.3632 5.00292C19.7223 5.66208 20.9143 6.6204 21.85 7.80596C22.7857 8.99152 23.4406 10.3735 23.7656 11.8483C24.0906 13.3231 24.0773 14.8523 23.7267 16.3211C23.376 17.79 22.6972 19.1604 21.741 20.3296C20.7849 21.4987 19.5763 22.4361 18.206 23.0715C16.8356 23.707 15.3391 24.0239 13.8288 23.9985C12.3184 23.9731 10.8334 23.606 9.48521 22.9249L9.33392 22.8436L4.77635 23.9811C4.68864 24.0032 4.59719 24.0059 4.50831 23.9892C4.41942 23.9725 4.33523 23.9367 4.26153 23.8843C4.18783 23.8319 4.12638 23.7641 4.08142 23.6857C4.03646 23.6072 4.00907 23.52 4.00113 23.4299V23.3274L4.01863 23.2236L5.15646 18.6687L5.07769 18.5187C4.5055 17.3926 4.15328 16.1678 4.03989 14.9099L4.00863 14.4324L3.99988 13.9999C3.99988 11.3478 5.05375 8.80427 6.92966 6.92892C8.80556 5.05356 11.3498 4 14.0028 4ZM14.0028 5.24999C12.4754 5.24975 10.9746 5.64907 9.64939 6.40829C8.32422 7.1675 7.22084 8.26018 6.44892 9.57773C5.67699 10.8953 5.26338 12.3918 5.2492 13.9187C5.23501 15.4455 5.62075 16.9495 6.36806 18.2812C6.42608 18.3847 6.4534 18.5027 6.44684 18.6212L6.42933 18.7387L5.48406 22.5149L9.26515 21.5724C9.34202 21.5534 9.42177 21.5492 9.50022 21.5599L9.614 21.5861L9.72278 21.6349C10.8898 22.288 12.191 22.6651 13.5265 22.7372C14.862 22.8092 16.1963 22.5744 17.4268 22.0506C18.6574 21.5269 19.7515 20.7281 20.6252 19.7158C21.4989 18.7035 22.1289 17.5044 22.4668 16.2107C22.8047 14.9171 22.8416 13.5632 22.5746 12.2531C22.3076 10.9429 21.7438 9.71139 20.9265 8.65302C20.1092 7.59465 19.0602 6.7376 17.8599 6.14769C16.6597 5.55777 15.3402 5.25068 14.0028 5.24999ZM14.628 15.2499C14.7842 15.2496 14.9349 15.3078 15.0503 15.4131C15.1658 15.5183 15.2376 15.6629 15.2517 15.8185C15.2658 15.974 15.2212 16.1292 15.1266 16.2535C15.0319 16.3777 14.8942 16.4621 14.7405 16.4899L14.628 16.4999H10.8769C10.7206 16.5002 10.57 16.442 10.4545 16.3368C10.3391 16.2316 10.2672 16.0869 10.2531 15.9314C10.239 15.7759 10.2836 15.6207 10.3782 15.4964C10.4729 15.3721 10.6106 15.2878 10.7643 15.2599L10.8769 15.2499H14.628ZM17.1287 11.5C17.2849 11.4997 17.4356 11.5579 17.551 11.6631C17.6665 11.7683 17.7383 11.9129 17.7524 12.0685C17.7666 12.224 17.7219 12.3792 17.6273 12.5035C17.5327 12.6278 17.3949 12.7121 17.2412 12.7399L17.1287 12.7499H10.8769C10.7206 12.7502 10.57 12.692 10.4545 12.5868C10.3391 12.4816 10.2672 12.337 10.2531 12.1814C10.239 12.0259 10.2836 11.8707 10.3782 11.7464C10.4729 11.6221 10.6106 11.5378 10.7643 11.51L10.8769 11.5H17.1287Z" fill="#FFC700"/>
</g>
<defs>
<filter id="filter0_d_1061_436" x="-0.00012207" y="0" width="28" height="28" filterUnits="userSpaceOnUse" color-interpolation-filters="sRGB">
<feFlood flood-opacity="0" result="BackgroundImageFix"/>
<feColorMatrix in="SourceAlpha" type="matrix" values="0 0 0 0 0 0 0 0 0 0 0 0 0 0 0 0 0 0 127 0" result="hardAlpha"/>
<feOffset/>
<feGaussianBlur stdDeviation="2"/>
<feComposite in2="hardAlpha" operator="out"/>
<feColorMatrix type="matrix" values="0 0 0 0 1 0 0 0 0 0.78 0 0 0 0 0 0 0 0 1 0"/>
<feBlend mode="normal" in2="BackgroundImageFix" result="effect1_dropShadow_1061_436"/>
<feBlend mode="normal" in="SourceGraphic" in2="effect1_dropShadow_1061_436" result="shape"/>
</filter>
</defs>
</svg>
