<svg width="24" height="24" viewBox="0 0 24 24" fill="none" xmlns="http://www.w3.org/2000/svg">
<g filter="url(#filter0_d_2048_922)">
<path fill-rule="evenodd" clip-rule="evenodd" d="M21.6279 11.7886C21.4376 11.7894 21.2523 11.7277 21.1006 11.6128L20.1629 10.9099V20.2841C20.1599 20.5163 20.0664 20.7381 19.9022 20.9023C19.7381 21.0664 19.5162 21.16 19.2841 21.163H14.6003C14.5991 21.163 14.598 21.163 14.5968 21.1631C14.5957 21.163 14.5946 21.163 14.5934 21.163H9.91911C9.91594 21.163 9.91276 21.1631 9.90959 21.1631C9.90641 21.1631 9.90324 21.163 9.90007 21.163H5.22232C4.99017 21.16 4.76839 21.0664 4.60422 20.9023C4.44006 20.7381 4.34649 20.5163 4.34346 20.2841V10.9102L3.40618 11.6128C3.21971 11.7526 2.98532 11.8127 2.75458 11.7798C2.52382 11.7468 2.31563 11.6235 2.17577 11.4371C2.03593 11.2506 1.97587 11.0161 2.00884 10.7854C2.0418 10.5547 2.16507 10.3465 2.35154 10.2067L4.68016 8.46019C4.68999 8.45249 4.69997 8.445 4.71009 8.43775L11.7261 3.17577C11.8782 3.06167 12.0632 3 12.2534 3C12.4436 3 12.6286 3.06167 12.7807 3.17577L22.1552 10.2067C22.3253 10.3448 22.4377 10.5417 22.4703 10.7585C22.5028 10.9752 22.4531 11.1964 22.331 11.3785C22.2563 11.4992 22.1531 11.5997 22.0305 11.6712C21.9079 11.7427 21.7697 11.783 21.6279 11.7886ZM10.7884 19.4053H13.718V12.9604H10.7884V19.4053ZM15.4757 19.4053V12.0815C15.4727 11.8494 15.3791 11.6275 15.215 11.4634C15.0508 11.2992 14.829 11.2057 14.5968 11.2026H9.90959C9.67744 11.2057 9.45566 11.2992 9.29149 11.4634C9.12733 11.6275 9.03376 11.8494 9.03073 12.0815V19.4053H6.10118V9.59247L12.2534 4.98037L18.4052 9.59222V19.4053H15.4757Z" fill="#FFC700"/>
</g>
<defs>
<filter id="filter0_d_2048_922" x="-2" y="-1" width="28.48" height="26.1631" filterUnits="userSpaceOnUse" color-interpolation-filters="sRGB">
<feFlood flood-opacity="0" result="BackgroundImageFix"/>
<feColorMatrix in="SourceAlpha" type="matrix" values="0 0 0 0 0 0 0 0 0 0 0 0 0 0 0 0 0 0 127 0" result="hardAlpha"/>
<feOffset/>
<feGaussianBlur stdDeviation="2"/>
<feComposite in2="hardAlpha" operator="out"/>
<feColorMatrix type="matrix" values="0 0 0 0 1 0 0 0 0 0.78 0 0 0 0 0 0 0 0 1 0"/>
<feBlend mode="normal" in2="BackgroundImageFix" result="effect1_dropShadow_2048_922"/>
<feBlend mode="normal" in="SourceGraphic" in2="effect1_dropShadow_2048_922" result="shape"/>
</filter>
</defs>
</svg>
