<svg width="36" height="36" viewBox="0 0 36 36" fill="none" xmlns="http://www.w3.org/2000/svg">
  <path d="M36 18C36 8.05887 27.9411 0 18 0C8.05887 0 0 8.05887 0 18C0 27.9411 8.05887 36 18 36C27.9411 36 36 27.9411 36 18Z" fill="#707070"/>
  <path d="M35.2499 34.2654C35.2499 34.8177 34.8022 35.2654 34.2499 35.2654H32.5751V27.9448C32.5751 27.5976 32.486 27.3355 32.3077 27.1586C32.1294 26.9748 31.8619 26.8829 31.5053 26.8829H26.6804V24.2283H31.5053C31.759 24.2283 32.0265 24.2589 32.3077 24.3202C32.5889 24.3746 32.8666 24.4631 33.141 24.5857C33.4222 24.7082 33.6897 24.8681 33.9434 25.0655C34.1971 25.2561 34.42 25.491 34.612 25.77C34.8041 26.0423 34.9584 26.3588 35.075 26.7196C35.1916 27.0803 35.2499 27.4888 35.2499 27.9448V34.2654ZM25.6003 35.2654H22.9255V19.5623H25.6003V35.2654Z" fill="#FF7A00"/>
  <path d="M25.1519 18.0509H8.2393V12.7008H25.1519V18.0509ZM27.5386 6.04389H6.0995V30.0172H0.75V3.40964C0.75 3.04209 0.8186 2.69494 0.95575 2.36824C1.0929 2.04149 1.2781 1.75564 1.51125 1.51059C1.75815 1.26554 2.0462 1.07494 2.3754 0.938788C2.7046 0.802688 3.06125 0.734589 3.4453 0.734589H27.5386V6.04389Z" fill="black"/>
</svg>
  