<svg width="28" height="28" viewBox="0 0 28 28" fill="none" xmlns="http://www.w3.org/2000/svg">
<g filter="url(#filter0_d_1061_377)">
<path fill-rule="evenodd" clip-rule="evenodd" d="M6.76935 4H6.69243C6.34012 4 6.03705 4 5.76935 4.06308C5.35495 4.1621 4.97605 4.37392 4.67463 4.67506C4.37322 4.9762 4.16106 5.35491 4.06166 5.76923C4.00012 6.03692 4.00012 6.33846 4.00012 6.69231V10.5385C4.00012 10.8908 4.00012 11.1938 4.0632 11.4615C4.16222 11.8759 4.37404 12.2548 4.67518 12.5563C4.97633 12.8577 5.35504 13.0698 5.76935 13.1692C6.03705 13.2308 6.33858 13.2308 6.69243 13.2308H10.5386C10.8909 13.2308 11.194 13.2308 11.4617 13.1677C11.8761 13.0687 12.255 12.8569 12.5564 12.5557C12.8578 12.2546 13.07 11.8759 13.1694 11.4615C13.2309 11.1938 13.2309 10.8923 13.2309 10.5385V6.69231C13.2309 6.34 13.2309 6.03692 13.1678 5.76923C13.0688 5.35482 12.857 4.97592 12.5558 4.67451C12.2547 4.37309 11.876 4.16093 11.4617 4.06154C11.194 4 10.8924 4 10.5386 4H6.76935ZM6.12781 5.56C6.19397 5.54462 6.29704 5.53846 6.76935 5.53846H10.4617C10.9355 5.53846 11.037 5.54308 11.1032 5.56C11.2414 5.59305 11.3677 5.66373 11.4682 5.76421C11.5687 5.86469 11.6394 5.99103 11.6724 6.12923C11.6878 6.19385 11.6924 6.29538 11.6924 6.76923V10.4615C11.6924 10.9354 11.6878 11.0369 11.6709 11.1031C11.6378 11.2413 11.5672 11.3676 11.4667 11.4681C11.3662 11.5686 11.2399 11.6393 11.1017 11.6723C11.0386 11.6862 10.937 11.6923 10.4617 11.6923H6.76935C6.29551 11.6923 6.19397 11.6877 6.12781 11.6708C5.98961 11.6377 5.86327 11.567 5.76279 11.4666C5.66231 11.3661 5.59163 11.2397 5.55858 11.1015C5.54474 11.0385 5.53858 10.9369 5.53858 10.4615V6.76923C5.53858 6.29538 5.5432 6.19385 5.56012 6.12769C5.59317 5.98949 5.66385 5.86315 5.76433 5.76267C5.86481 5.66219 5.99115 5.59151 6.12935 5.55846L6.12781 5.56ZM17.5386 4H17.4617C17.1094 4 16.8063 4 16.5386 4.06308C16.1242 4.1621 15.7453 4.37392 15.4439 4.67506C15.1424 4.9762 14.9303 5.35491 14.8309 5.76923C14.7694 6.03692 14.7694 6.33846 14.7694 6.69231V10.5385C14.7694 10.8908 14.7694 11.1938 14.8324 11.4615C14.9315 11.8759 15.1433 12.2548 15.4444 12.5563C15.7456 12.8577 16.1243 13.0698 16.5386 13.1692C16.8063 13.2308 17.1078 13.2308 17.4617 13.2308H21.3078C21.6601 13.2308 21.9632 13.2308 22.2309 13.1677C22.6453 13.0687 23.0242 12.8569 23.3256 12.5557C23.627 12.2546 23.8392 11.8759 23.9386 11.4615C24.0001 11.1938 24.0001 10.8923 24.0001 10.5385V6.69231C24.0001 6.34 24.0001 6.03692 23.937 5.76923C23.838 5.35482 23.6262 4.97592 23.3251 4.67451C23.0239 4.37309 22.6452 4.16093 22.2309 4.06154C21.9632 4 21.6617 4 21.3078 4H17.5386ZM16.897 5.56C16.9632 5.54462 17.0663 5.53846 17.5386 5.53846H21.2309C21.7047 5.53846 21.8063 5.54308 21.8724 5.56C22.0106 5.59305 22.137 5.66373 22.2375 5.76421C22.3379 5.86469 22.4086 5.99103 22.4417 6.12923C22.457 6.19385 22.4617 6.29538 22.4617 6.76923V10.4615C22.4617 10.9354 22.4555 11.0369 22.4401 11.1031C22.4071 11.2413 22.3364 11.3676 22.2359 11.4681C22.1354 11.5686 22.0091 11.6393 21.8709 11.6723C21.8063 11.6877 21.7047 11.6923 21.2309 11.6923H17.5386C17.0647 11.6923 16.9632 11.6877 16.897 11.6708C16.7588 11.6377 16.6325 11.567 16.532 11.4666C16.4315 11.3661 16.3609 11.2397 16.3278 11.1015C16.314 11.0385 16.3078 10.9369 16.3078 10.4615V6.76923C16.3078 6.29538 16.3124 6.19385 16.3294 6.12769C16.3624 5.98949 16.4331 5.86315 16.5336 5.76267C16.634 5.66219 16.7604 5.59151 16.8986 5.55846L16.897 5.56ZM6.69243 14.7692H10.5386C10.8909 14.7692 11.194 14.7692 11.4617 14.8323C11.8761 14.9313 12.255 15.1431 12.5564 15.4443C12.8578 15.7454 13.07 16.1241 13.1694 16.5385C13.2309 16.8062 13.2309 17.1077 13.2309 17.4615V21.3077C13.2309 21.66 13.2309 21.9631 13.1678 22.2308C13.0688 22.6452 12.857 23.0241 12.5558 23.3255C12.2547 23.6269 11.876 23.8391 11.4617 23.9385C11.194 24 10.8924 24 10.5386 24H6.69243C6.34012 24 6.03705 24 5.76935 23.9369C5.35495 23.8379 4.97605 23.6261 4.67463 23.3249C4.37322 23.0238 4.16106 22.6451 4.06166 22.2308C4.00012 21.9631 4.00012 21.6615 4.00012 21.3077V17.4615C4.00012 17.1092 4.00012 16.8062 4.0632 16.5385C4.16222 16.1241 4.37404 15.7452 4.67518 15.4437C4.97633 15.1423 5.35504 14.9302 5.76935 14.8308C6.03705 14.7692 6.33858 14.7692 6.69243 14.7692ZM6.76935 16.3077C6.29551 16.3077 6.19397 16.3123 6.12781 16.3292C5.98961 16.3623 5.86327 16.433 5.76279 16.5334C5.66231 16.6339 5.59163 16.7603 5.55858 16.8985C5.54474 16.9615 5.53858 17.0631 5.53858 17.5385V21.2308C5.53858 21.7046 5.5432 21.8062 5.56012 21.8723C5.59317 22.0105 5.66385 22.1369 5.76433 22.2373C5.86481 22.3378 5.99115 22.4085 6.12935 22.4415C6.19397 22.4569 6.29551 22.4615 6.76935 22.4615H10.4617C10.9355 22.4615 11.037 22.4554 11.1032 22.44C11.2414 22.407 11.3677 22.3363 11.4682 22.2358C11.5687 22.1353 11.6394 22.009 11.6724 21.8708C11.6878 21.8062 11.6924 21.7046 11.6924 21.2308V17.5385C11.6924 17.0646 11.6878 16.9631 11.6709 16.8969C11.6378 16.7587 11.5672 16.6324 11.4667 16.5319C11.3662 16.4314 11.2399 16.3607 11.1017 16.3277C11.0386 16.3138 10.937 16.3077 10.4617 16.3077H6.76935ZM17.5386 14.7692H17.4617C17.1094 14.7692 16.8063 14.7692 16.5386 14.8323C16.1242 14.9313 15.7453 15.1431 15.4439 15.4443C15.1424 15.7454 14.9303 16.1241 14.8309 16.5385C14.7694 16.8062 14.7694 17.1077 14.7694 17.4615V21.3077C14.7694 21.66 14.7694 21.9631 14.8324 22.2308C14.9315 22.6452 15.1433 23.0241 15.4444 23.3255C15.7456 23.6269 16.1243 23.8391 16.5386 23.9385C16.8063 24.0015 17.1094 24.0015 17.4617 24.0015H21.3078C21.6601 24.0015 21.9632 24.0015 22.2309 23.9385C22.645 23.8392 23.0236 23.6273 23.3247 23.3261C23.6258 23.025 23.8378 22.6464 23.937 22.2323C24.0001 21.9646 24.0001 21.6615 24.0001 21.3092V17.4615C24.0001 17.1092 24.0001 16.8062 23.937 16.5385C23.838 16.1241 23.6262 15.7452 23.3251 15.4437C23.0239 15.1423 22.6452 14.9302 22.2309 14.8308C21.9632 14.7692 21.6617 14.7692 21.3078 14.7692H17.5386ZM16.897 16.3292C16.9632 16.3138 17.0663 16.3077 17.5386 16.3077H21.2309C21.7047 16.3077 21.8063 16.3123 21.8724 16.3292C22.0106 16.3623 22.137 16.433 22.2375 16.5334C22.3379 16.6339 22.4086 16.7603 22.4417 16.8985C22.457 16.9631 22.4617 17.0646 22.4617 17.5385V21.2308C22.4617 21.7046 22.4555 21.8062 22.4401 21.8723C22.4071 22.0105 22.3364 22.1369 22.2359 22.2373C22.1354 22.3378 22.0091 22.4085 21.8709 22.4415C21.8063 22.4569 21.7047 22.4615 21.2309 22.4615H17.5386C17.0647 22.4615 16.9632 22.4554 16.897 22.44C16.7588 22.407 16.6325 22.3363 16.532 22.2358C16.4315 22.1353 16.3609 22.009 16.3278 21.8708C16.314 21.8077 16.3078 21.7062 16.3078 21.2308V17.5385C16.3078 17.0646 16.3124 16.9631 16.3294 16.8969C16.3624 16.7587 16.4331 16.6324 16.5336 16.5319C16.634 16.4314 16.7604 16.3607 16.8986 16.3277L16.897 16.3292Z" fill="#FFC700"/>
</g>
<defs>
<filter id="filter0_d_1061_377" x="0.00012207" y="0" width="28" height="28.0015" filterUnits="userSpaceOnUse" color-interpolation-filters="sRGB">
<feFlood flood-opacity="0" result="BackgroundImageFix"/>
<feColorMatrix in="SourceAlpha" type="matrix" values="0 0 0 0 0 0 0 0 0 0 0 0 0 0 0 0 0 0 127 0" result="hardAlpha"/>
<feOffset/>
<feGaussianBlur stdDeviation="2"/>
<feComposite in2="hardAlpha" operator="out"/>
<feColorMatrix type="matrix" values="0 0 0 0 1 0 0 0 0 0.78 0 0 0 0 0 0 0 0 1 0"/>
<feBlend mode="normal" in2="BackgroundImageFix" result="effect1_dropShadow_1061_377"/>
<feBlend mode="normal" in="SourceGraphic" in2="effect1_dropShadow_1061_377" result="shape"/>
</filter>
</defs>
</svg>
