<svg width="28" height="28" viewBox="0 0 28 28" fill="none" xmlns="http://www.w3.org/2000/svg">
  <g filter="url(#filter0_d_2593_939)">
  <path fill-rule="evenodd" clip-rule="evenodd" d="M6.76923 3.99998H6.69231C6.34 3.99998 6.03692 3.99998 5.76923 4.06306C5.35482 4.16208 4.97592 4.3739 4.67451 4.67505C4.37309 4.97619 4.16093 5.3549 4.06154 5.76922C4 6.03691 4 6.33845 4 6.69229V10.5384C4 10.8908 4 11.1938 4.06308 11.4615C4.1621 11.8759 4.37392 12.2548 4.67506 12.5562C4.9762 12.8577 5.35491 13.0698 5.76923 13.1692C6.03692 13.2308 6.33846 13.2308 6.69231 13.2308H10.5385C10.8908 13.2308 11.1938 13.2308 11.4615 13.1677C11.8759 13.0687 12.2548 12.8568 12.5563 12.5557C12.8577 12.2546 13.0698 11.8758 13.1692 11.4615C13.2308 11.1938 13.2308 10.8923 13.2308 10.5384V6.69229C13.2308 6.33998 13.2308 6.03691 13.1677 5.76922C13.0687 5.35481 12.8569 4.97591 12.5557 4.67449C12.2546 4.37308 11.8759 4.16092 11.4615 4.06152C11.1938 3.99998 10.8923 3.99998 10.5385 3.99998H6.76923ZM6.12769 5.55998C6.19385 5.5446 6.29692 5.53845 6.76923 5.53845H10.4615C10.9354 5.53845 11.0369 5.54306 11.1031 5.55998C11.2413 5.59303 11.3676 5.66372 11.4681 5.76419C11.5686 5.86467 11.6393 5.99102 11.6723 6.12922C11.6877 6.19383 11.6923 6.29537 11.6923 6.76922V10.4615C11.6923 10.9354 11.6877 11.0369 11.6708 11.1031C11.6377 11.2413 11.567 11.3676 11.4666 11.4681C11.3661 11.5686 11.2397 11.6392 11.1015 11.6723C11.0385 11.6861 10.9369 11.6923 10.4615 11.6923H6.76923C6.29538 11.6923 6.19385 11.6877 6.12769 11.6708C5.98949 11.6377 5.86315 11.567 5.76267 11.4665C5.66219 11.3661 5.59151 11.2397 5.55846 11.1015C5.54462 11.0384 5.53846 10.9369 5.53846 10.4615V6.76922C5.53846 6.29537 5.54308 6.19383 5.56 6.12768C5.59305 5.98948 5.66373 5.86313 5.76421 5.76265C5.86469 5.66218 5.99103 5.59149 6.12923 5.55845L6.12769 5.55998ZM17.5385 3.99998H17.4615C17.1092 3.99998 16.8062 3.99998 16.5385 4.06306C16.1241 4.16208 15.7452 4.3739 15.4437 4.67505C15.1423 4.97619 14.9302 5.3549 14.8308 5.76922C14.7692 6.03691 14.7692 6.33845 14.7692 6.69229V10.5384C14.7692 10.8908 14.7692 11.1938 14.8323 11.4615C14.9313 11.8759 15.1431 12.2548 15.4443 12.5562C15.7454 12.8577 16.1241 13.0698 16.5385 13.1692C16.8062 13.2308 17.1077 13.2308 17.4615 13.2308H21.3077C21.66 13.2308 21.9631 13.2308 22.2308 13.1677C22.6452 13.0687 23.0241 12.8568 23.3255 12.5557C23.6269 12.2546 23.8391 11.8758 23.9385 11.4615C24 11.1938 24 10.8923 24 10.5384V6.69229C24 6.33998 24 6.03691 23.9369 5.76922C23.8379 5.35481 23.6261 4.97591 23.3249 4.67449C23.0238 4.37308 22.6451 4.16092 22.2308 4.06152C21.9631 3.99998 21.6615 3.99998 21.3077 3.99998H17.5385ZM16.8969 5.55998C16.9631 5.5446 17.0662 5.53845 17.5385 5.53845H21.2308C21.7046 5.53845 21.8062 5.54306 21.8723 5.55998C22.0105 5.59303 22.1369 5.66372 22.2373 5.76419C22.3378 5.86467 22.4085 5.99102 22.4415 6.12922C22.4569 6.19383 22.4615 6.29537 22.4615 6.76922V10.4615C22.4615 10.9354 22.4554 11.0369 22.44 11.1031C22.407 11.2413 22.3363 11.3676 22.2358 11.4681C22.1353 11.5686 22.009 11.6392 21.8708 11.6723C21.8062 11.6877 21.7046 11.6923 21.2308 11.6923H17.5385C17.0646 11.6923 16.9631 11.6877 16.8969 11.6708C16.7587 11.6377 16.6324 11.567 16.5319 11.4665C16.4314 11.3661 16.3607 11.2397 16.3277 11.1015C16.3138 11.0384 16.3077 10.9369 16.3077 10.4615V6.76922C16.3077 6.29537 16.3123 6.19383 16.3292 6.12768C16.3623 5.98948 16.433 5.86313 16.5334 5.76265C16.6339 5.66218 16.7603 5.59149 16.8985 5.55845L16.8969 5.55998ZM6.69231 14.7692H10.5385C10.8908 14.7692 11.1938 14.7692 11.4615 14.8323C11.8759 14.9313 12.2548 15.1431 12.5563 15.4443C12.8577 15.7454 13.0698 16.1241 13.1692 16.5384C13.2308 16.8061 13.2308 17.1077 13.2308 17.4615V21.3077C13.2308 21.66 13.2308 21.9631 13.1677 22.2308C13.0687 22.6452 12.8569 23.0241 12.5557 23.3255C12.2546 23.6269 11.8759 23.8391 11.4615 23.9384C11.1938 24 10.8923 24 10.5385 24H6.69231C6.34 24 6.03692 24 5.76923 23.9369C5.35482 23.8379 4.97592 23.6261 4.67451 23.3249C4.37309 23.0238 4.16093 22.6451 4.06154 22.2308C4 21.9631 4 21.6615 4 21.3077V17.4615C4 17.1092 4 16.8061 4.06308 16.5384C4.1621 16.124 4.37392 15.7451 4.67506 15.4437C4.9762 15.1423 5.35491 14.9302 5.76923 14.8308C6.03692 14.7692 6.33846 14.7692 6.69231 14.7692ZM6.76923 16.3077C6.29538 16.3077 6.19385 16.3123 6.12769 16.3292C5.98949 16.3623 5.86315 16.4329 5.76267 16.5334C5.66219 16.6339 5.59151 16.7602 5.55846 16.8984C5.54462 16.9615 5.53846 17.0631 5.53846 17.5384V21.2308C5.53846 21.7046 5.54308 21.8061 5.56 21.8723C5.59305 22.0105 5.66373 22.1368 5.76421 22.2373C5.86469 22.3378 5.99103 22.4085 6.12923 22.4415C6.19385 22.4569 6.29538 22.4615 6.76923 22.4615H10.4615C10.9354 22.4615 11.0369 22.4554 11.1031 22.44C11.2413 22.4069 11.3676 22.3363 11.4681 22.2358C11.5686 22.1353 11.6393 22.009 11.6723 21.8708C11.6877 21.8061 11.6923 21.7046 11.6923 21.2308V17.5384C11.6923 17.0646 11.6877 16.9631 11.6708 16.8969C11.6377 16.7587 11.567 16.6324 11.4666 16.5319C11.3661 16.4314 11.2397 16.3607 11.1015 16.3277C11.0385 16.3138 10.9369 16.3077 10.4615 16.3077H6.76923ZM17.5385 14.7692H17.4615C17.1092 14.7692 16.8062 14.7692 16.5385 14.8323C16.1241 14.9313 15.7452 15.1431 15.4437 15.4443C15.1423 15.7454 14.9302 16.1241 14.8308 16.5384C14.7692 16.8061 14.7692 17.1077 14.7692 17.4615V21.3077C14.7692 21.66 14.7692 21.9631 14.8323 22.2308C14.9313 22.6452 15.1431 23.0241 15.4443 23.3255C15.7454 23.6269 16.1241 23.8391 16.5385 23.9384C16.8062 24.0015 17.1092 24.0015 17.4615 24.0015H21.3077C21.66 24.0015 21.9631 24.0015 22.2308 23.9384C22.6449 23.8392 23.0235 23.6272 23.3246 23.3261C23.6257 23.025 23.8377 22.6464 23.9369 22.2323C24 21.9646 24 21.6615 24 21.3092V17.4615C24 17.1092 24 16.8061 23.9369 16.5384C23.8379 16.124 23.6261 15.7451 23.3249 15.4437C23.0238 15.1423 22.6451 14.9302 22.2308 14.8308C21.9631 14.7692 21.6615 14.7692 21.3077 14.7692H17.5385ZM16.8969 16.3292C16.9631 16.3138 17.0662 16.3077 17.5385 16.3077H21.2308C21.7046 16.3077 21.8062 16.3123 21.8723 16.3292C22.0105 16.3623 22.1369 16.4329 22.2373 16.5334C22.3378 16.6339 22.4085 16.7602 22.4415 16.8984C22.4569 16.9631 22.4615 17.0646 22.4615 17.5384V21.2308C22.4615 21.7046 22.4554 21.8061 22.44 21.8723C22.407 22.0105 22.3363 22.1368 22.2358 22.2373C22.1353 22.3378 22.009 22.4085 21.8708 22.4415C21.8062 22.4569 21.7046 22.4615 21.2308 22.4615H17.5385C17.0646 22.4615 16.9631 22.4554 16.8969 22.44C16.7587 22.4069 16.6324 22.3363 16.5319 22.2358C16.4314 22.1353 16.3607 22.009 16.3277 21.8708C16.3138 21.8077 16.3077 21.7061 16.3077 21.2308V17.5384C16.3077 17.0646 16.3123 16.9631 16.3292 16.8969C16.3623 16.7587 16.433 16.6324 16.5334 16.5319C16.6339 16.4314 16.7603 16.3607 16.8985 16.3277L16.8969 16.3292Z" fill="#FFC700"/>
  </g>
  <defs>
  <filter id="filter0_d_2593_939" x="0" y="-1.52588e-05" width="28" height="28.0015" filterUnits="userSpaceOnUse" color-interpolation-filters="sRGB">
  <feFlood flood-opacity="0" result="BackgroundImageFix"/>
  <feColorMatrix in="SourceAlpha" type="matrix" values="0 0 0 0 0 0 0 0 0 0 0 0 0 0 0 0 0 0 127 0" result="hardAlpha"/>
  <feOffset/>
  <feGaussianBlur stdDeviation="2"/>
  <feComposite in2="hardAlpha" operator="out"/>
  <feColorMatrix type="matrix" values="0 0 0 0 1 0 0 0 0 0.78 0 0 0 0 0 0 0 0 1 0"/>
  <feBlend mode="normal" in2="BackgroundImageFix" result="effect1_dropShadow_2593_939"/>
  <feBlend mode="normal" in="SourceGraphic" in2="effect1_dropShadow_2593_939" result="shape"/>
  </filter>
  </defs>
  </svg>
  