<svg width="24" height="24" viewBox="0 0 24 24" fill="none" xmlns="http://www.w3.org/2000/svg">
<path fill-rule="evenodd" clip-rule="evenodd" d="M4.76923 1.99997H4.69231C4.34 1.99997 4.03692 1.99997 3.76923 2.06305C3.35482 2.16207 2.97592 2.37389 2.67451 2.67503C2.37309 2.97617 2.16093 3.35488 2.06154 3.7692C2 4.03689 2 4.33843 2 4.69228V8.53843C2 8.89074 2 9.19382 2.06308 9.46151C2.1621 9.87591 2.37392 10.2548 2.67506 10.5562C2.9762 10.8576 3.35491 11.0698 3.76923 11.1692C4.03692 11.2307 4.33846 11.2307 4.69231 11.2307H8.53846C8.89077 11.2307 9.19385 11.2307 9.46154 11.1677C9.87594 11.0686 10.2548 10.8568 10.5563 10.5557C10.8577 10.2545 11.0698 9.87582 11.1692 9.46151C11.2308 9.19382 11.2308 8.89228 11.2308 8.53843V4.69228C11.2308 4.33997 11.2308 4.03689 11.1677 3.7692C11.0687 3.35479 10.8569 2.97589 10.5557 2.67448C10.2546 2.37306 9.87585 2.1609 9.46154 2.06151C9.19385 1.99997 8.89231 1.99997 8.53846 1.99997H4.76923ZM4.12769 3.55997C4.19385 3.54458 4.29692 3.53843 4.76923 3.53843H8.46154C8.93538 3.53843 9.03692 3.54305 9.10308 3.55997C9.24128 3.59302 9.36762 3.6637 9.4681 3.76418C9.56858 3.86466 9.63926 3.991 9.67231 4.1292C9.68769 4.19382 9.69231 4.29535 9.69231 4.7692V8.46151C9.69231 8.93535 9.68769 9.03689 9.67077 9.10305C9.63772 9.24125 9.56704 9.36759 9.46656 9.46807C9.36608 9.56855 9.23974 9.63923 9.10154 9.67228C9.03846 9.68612 8.93692 9.69228 8.46154 9.69228H4.76923C4.29538 9.69228 4.19385 9.68766 4.12769 9.67074C3.98949 9.63769 3.86315 9.56701 3.76267 9.46653C3.66219 9.36605 3.59151 9.23971 3.55846 9.10151C3.54462 9.03843 3.53846 8.93689 3.53846 8.46151V4.7692C3.53846 4.29535 3.54308 4.19382 3.56 4.12766C3.59305 3.98946 3.66373 3.86312 3.76421 3.76264C3.86469 3.66216 3.99103 3.59148 4.12923 3.55843L4.12769 3.55997ZM15.5385 1.99997H15.4615C15.1092 1.99997 14.8062 1.99997 14.5385 2.06305C14.1241 2.16207 13.7452 2.37389 13.4437 2.67503C13.1423 2.97617 12.9302 3.35488 12.8308 3.7692C12.7692 4.03689 12.7692 4.33843 12.7692 4.69228V8.53843C12.7692 8.89074 12.7692 9.19382 12.8323 9.46151C12.9313 9.87591 13.1431 10.2548 13.4443 10.5562C13.7454 10.8576 14.1241 11.0698 14.5385 11.1692C14.8062 11.2307 15.1077 11.2307 15.4615 11.2307H19.3077C19.66 11.2307 19.9631 11.2307 20.2308 11.1677C20.6452 11.0686 21.0241 10.8568 21.3255 10.5557C21.6269 10.2545 21.8391 9.87582 21.9385 9.46151C22 9.19382 22 8.89228 22 8.53843V4.69228C22 4.33997 22 4.03689 21.9369 3.7692C21.8379 3.35479 21.6261 2.97589 21.3249 2.67448C21.0238 2.37306 20.6451 2.1609 20.2308 2.06151C19.9631 1.99997 19.6615 1.99997 19.3077 1.99997H15.5385ZM14.8969 3.55997C14.9631 3.54458 15.0662 3.53843 15.5385 3.53843H19.2308C19.7046 3.53843 19.8062 3.54305 19.8723 3.55997C20.0105 3.59302 20.1369 3.6637 20.2373 3.76418C20.3378 3.86466 20.4085 3.991 20.4415 4.1292C20.4569 4.19382 20.4615 4.29535 20.4615 4.7692V8.46151C20.4615 8.93535 20.4554 9.03689 20.44 9.10305C20.407 9.24125 20.3363 9.36759 20.2358 9.46807C20.1353 9.56855 20.009 9.63923 19.8708 9.67228C19.8062 9.68766 19.7046 9.69228 19.2308 9.69228H15.5385C15.0646 9.69228 14.9631 9.68766 14.8969 9.67074C14.7587 9.63769 14.6324 9.56701 14.5319 9.46653C14.4314 9.36605 14.3607 9.23971 14.3277 9.10151C14.3138 9.03843 14.3077 8.93689 14.3077 8.46151V4.7692C14.3077 4.29535 14.3123 4.19382 14.3292 4.12766C14.3623 3.98946 14.433 3.86312 14.5334 3.76264C14.6339 3.66216 14.7603 3.59148 14.8985 3.55843L14.8969 3.55997ZM4.69231 12.7692H8.53846C8.89077 12.7692 9.19385 12.7692 9.46154 12.8323C9.87594 12.9313 10.2548 13.1431 10.5563 13.4443C10.8577 13.7454 11.0698 14.1241 11.1692 14.5384C11.2308 14.8061 11.2308 15.1077 11.2308 15.4615V19.3077C11.2308 19.66 11.2308 19.963 11.1677 20.2307C11.0687 20.6451 10.8569 21.024 10.5557 21.3255C10.2546 21.6269 9.87585 21.839 9.46154 21.9384C9.19385 22 8.89231 22 8.53846 22H4.69231C4.34 22 4.03692 22 3.76923 21.9369C3.35482 21.8379 2.97592 21.6261 2.67451 21.3249C2.37309 21.0238 2.16093 20.6451 2.06154 20.2307C2 19.963 2 19.6615 2 19.3077V15.4615C2 15.1092 2 14.8061 2.06308 14.5384C2.1621 14.124 2.37392 13.7451 2.67506 13.4437C2.9762 13.1423 3.35491 12.9301 3.76923 12.8307C4.03692 12.7692 4.33846 12.7692 4.69231 12.7692ZM4.76923 14.3077C4.29538 14.3077 4.19385 14.3123 4.12769 14.3292C3.98949 14.3622 3.86315 14.4329 3.76267 14.5334C3.66219 14.6339 3.59151 14.7602 3.55846 14.8984C3.54462 14.9615 3.53846 15.063 3.53846 15.5384V19.2307C3.53846 19.7046 3.54308 19.8061 3.56 19.8723C3.59305 20.0105 3.66373 20.1368 3.76421 20.2373C3.86469 20.3378 3.99103 20.4085 4.12923 20.4415C4.19385 20.4569 4.29538 20.4615 4.76923 20.4615H8.46154C8.93538 20.4615 9.03692 20.4554 9.10308 20.44C9.24128 20.4069 9.36762 20.3362 9.4681 20.2358C9.56858 20.1353 9.63926 20.0089 9.67231 19.8707C9.68769 19.8061 9.69231 19.7046 9.69231 19.2307V15.5384C9.69231 15.0646 9.68769 14.963 9.67077 14.8969C9.63772 14.7587 9.56704 14.6323 9.46656 14.5319C9.36608 14.4314 9.23974 14.3607 9.10154 14.3277C9.03846 14.3138 8.93692 14.3077 8.46154 14.3077H4.76923ZM15.5385 12.7692H15.4615C15.1092 12.7692 14.8062 12.7692 14.5385 12.8323C14.1241 12.9313 13.7452 13.1431 13.4437 13.4443C13.1423 13.7454 12.9302 14.1241 12.8308 14.5384C12.7692 14.8061 12.7692 15.1077 12.7692 15.4615V19.3077C12.7692 19.66 12.7692 19.963 12.8323 20.2307C12.9313 20.6451 13.1431 21.024 13.4443 21.3255C13.7454 21.6269 14.1241 21.839 14.5385 21.9384C14.8062 22.0015 15.1092 22.0015 15.4615 22.0015H19.3077C19.66 22.0015 19.9631 22.0015 20.2308 21.9384C20.6449 21.8392 21.0235 21.6272 21.3246 21.3261C21.6257 21.025 21.8377 20.6464 21.9369 20.2323C22 19.9646 22 19.6615 22 19.3092V15.4615C22 15.1092 22 14.8061 21.9369 14.5384C21.8379 14.124 21.6261 13.7451 21.3249 13.4437C21.0238 13.1423 20.6451 12.9301 20.2308 12.8307C19.9631 12.7692 19.6615 12.7692 19.3077 12.7692H15.5385ZM14.8969 14.3292C14.9631 14.3138 15.0662 14.3077 15.5385 14.3077H19.2308C19.7046 14.3077 19.8062 14.3123 19.8723 14.3292C20.0105 14.3622 20.1369 14.4329 20.2373 14.5334C20.3378 14.6339 20.4085 14.7602 20.4415 14.8984C20.4569 14.963 20.4615 15.0646 20.4615 15.5384V19.2307C20.4615 19.7046 20.4554 19.8061 20.44 19.8723C20.407 20.0105 20.3363 20.1368 20.2358 20.2373C20.1353 20.3378 20.009 20.4085 19.8708 20.4415C19.8062 20.4569 19.7046 20.4615 19.2308 20.4615H15.5385C15.0646 20.4615 14.9631 20.4554 14.8969 20.44C14.7587 20.4069 14.6324 20.3362 14.5319 20.2358C14.4314 20.1353 14.3607 20.0089 14.3277 19.8707C14.3138 19.8077 14.3077 19.7061 14.3077 19.2307V15.5384C14.3077 15.0646 14.3123 14.963 14.3292 14.8969C14.3623 14.7587 14.433 14.6323 14.5334 14.5319C14.6339 14.4314 14.7603 14.3607 14.8985 14.3277L14.8969 14.3292Z" fill="#FF7900"/>
</svg>
