<svg width="28" height="28" viewBox="0 0 28 28" fill="none" xmlns="http://www.w3.org/2000/svg">
<g filter="url(#filter0_d_1061_440)">
<path d="M13.0636 10.6045C12.8732 10.7355 12.7205 10.9142 12.6209 11.1227C12.5364 11.2779 12.395 11.3941 12.2265 11.4471C12.0579 11.5 11.8754 11.4855 11.7174 11.4065C11.5594 11.3276 11.4382 11.1904 11.3793 11.0238C11.3204 10.8573 11.3285 10.6744 11.4018 10.5136C11.5836 10.1482 11.8682 9.76273 12.3082 9.47C12.7518 9.17273 13.3127 9 14 9C14.5982 9 15.2445 9.17727 15.7582 9.56273C16.0445 9.77206 16.2768 10.0467 16.4355 10.3639C16.5943 10.6811 16.675 11.0317 16.6709 11.3864C16.6709 12.3255 16.2045 12.95 15.7373 13.4C15.5645 13.5664 15.3745 13.7255 15.2109 13.8618L15.0773 13.9736C14.9371 14.0883 14.8049 14.2126 14.6818 14.3455V15.5909C14.6818 15.7717 14.61 15.9452 14.4821 16.073C14.3543 16.2009 14.1808 16.2727 14 16.2727C13.8192 16.2727 13.6457 16.2009 13.5179 16.073C13.39 15.9452 13.3182 15.7717 13.3182 15.5909V14.2518C13.3182 14.0364 13.3791 13.7936 13.5427 13.5827C13.7427 13.3282 13.9845 13.1127 14.1955 12.9336L14.3618 12.7945L14.3627 12.7936C14.5191 12.6636 14.6573 12.5482 14.79 12.4191C15.1245 12.0964 15.3073 11.8045 15.3073 11.3864C15.3113 11.2434 15.2799 11.1017 15.2158 10.9738C15.1517 10.846 15.0569 10.736 14.94 10.6536C14.6964 10.4709 14.3491 10.3636 14 10.3636C13.5509 10.3636 13.26 10.4736 13.0636 10.6045ZM14.9091 18.5455C14.9091 18.7866 14.8133 19.0178 14.6428 19.1883C14.4723 19.3588 14.2411 19.4545 14 19.4545C13.7589 19.4545 13.5277 19.3588 13.3572 19.1883C13.1867 19.0178 13.0909 18.7866 13.0909 18.5455C13.0909 18.3043 13.1867 18.0731 13.3572 17.9026C13.5277 17.7321 13.7589 17.6364 14 17.6364C14.2411 17.6364 14.4723 17.7321 14.6428 17.9026C14.8133 18.0731 14.9091 18.3043 14.9091 18.5455Z" fill="#FFC700"/>
<path d="M14 4C19.5227 4 24 8.47727 24 14C24 19.5227 19.5227 24 14 24C8.47727 24 4 19.5227 4 14C4 8.47727 8.47727 4 14 4ZM5.36364 14C5.36364 16.2905 6.27354 18.4872 7.89317 20.1068C9.5128 21.7265 11.7095 22.6364 14 22.6364C16.2905 22.6364 18.4872 21.7265 20.1068 20.1068C21.7265 18.4872 22.6364 16.2905 22.6364 14C22.6364 11.7095 21.7265 9.5128 20.1068 7.89317C18.4872 6.27354 16.2905 5.36364 14 5.36364C11.7095 5.36364 9.5128 6.27354 7.89317 7.89317C6.27354 9.5128 5.36364 11.7095 5.36364 14Z" fill="#FFC700"/>
</g>
<defs>
<filter id="filter0_d_1061_440" x="0" y="0" width="28" height="28" filterUnits="userSpaceOnUse" color-interpolation-filters="sRGB">
<feFlood flood-opacity="0" result="BackgroundImageFix"/>
<feColorMatrix in="SourceAlpha" type="matrix" values="0 0 0 0 0 0 0 0 0 0 0 0 0 0 0 0 0 0 127 0" result="hardAlpha"/>
<feOffset/>
<feGaussianBlur stdDeviation="2"/>
<feComposite in2="hardAlpha" operator="out"/>
<feColorMatrix type="matrix" values="0 0 0 0 1 0 0 0 0 0.78 0 0 0 0 0 0 0 0 1 0"/>
<feBlend mode="normal" in2="BackgroundImageFix" result="effect1_dropShadow_1061_440"/>
<feBlend mode="normal" in="SourceGraphic" in2="effect1_dropShadow_1061_440" result="shape"/>
</filter>
</defs>
</svg>
