<svg width="20" height="20" viewBox="0 0 20 20" fill="none" xmlns="http://www.w3.org/2000/svg">
  <path d="M9.06364 6.60455C8.87319 6.73548 8.72051 6.91418 8.62091 7.12273C8.53641 7.27786 8.395 7.39414 8.22647 7.44708C8.05794 7.50001 7.87544 7.48547 7.71741 7.40652C7.55939 7.32757 7.43818 7.19036 7.37931 7.02381C7.32044 6.85726 7.32851 6.67436 7.40182 6.51364C7.58364 6.14818 7.86818 5.76273 8.30818 5.47C8.75182 5.17273 9.31273 5 10 5C10.5982 5 11.2445 5.17727 11.7582 5.56273C12.0445 5.77206 12.2768 6.04675 12.4355 6.36395C12.5943 6.68115 12.675 7.03168 12.6709 7.38636C12.6709 8.32545 12.2045 8.95 11.7373 9.4C11.5645 9.56636 11.3745 9.72545 11.2109 9.86182L11.0773 9.97364C10.9371 10.0883 10.8049 10.2126 10.6818 10.3455V11.5909C10.6818 11.7717 10.61 11.9452 10.4821 12.073C10.3543 12.2009 10.1808 12.2727 10 12.2727C9.81917 12.2727 9.64575 12.2009 9.51788 12.073C9.39002 11.9452 9.31818 11.7717 9.31818 11.5909V10.2518C9.31818 10.0364 9.37909 9.79364 9.54273 9.58273C9.74273 9.32818 9.98455 9.11273 10.1955 8.93364L10.3618 8.79455L10.3627 8.79364C10.5191 8.66364 10.6573 8.54818 10.79 8.41909C11.1245 8.09636 11.3073 7.80455 11.3073 7.38636C11.3113 7.2434 11.2799 7.10167 11.2158 6.97382C11.1517 6.84597 11.0569 6.73597 10.94 6.65364C10.6964 6.47091 10.3491 6.36364 10 6.36364C9.55091 6.36364 9.26 6.47364 9.06364 6.60455ZM10.9091 14.5455C10.9091 14.7866 10.8133 15.0178 10.6428 15.1883C10.4723 15.3588 10.2411 15.4545 10 15.4545C9.75889 15.4545 9.52766 15.3588 9.35718 15.1883C9.18669 15.0178 9.09091 14.7866 9.09091 14.5455C9.09091 14.3043 9.18669 14.0731 9.35718 13.9026C9.52766 13.7321 9.75889 13.6364 10 13.6364C10.2411 13.6364 10.4723 13.7321 10.6428 13.9026C10.8133 14.0731 10.9091 14.3043 10.9091 14.5455Z" fill="#FF7900"/>
  <path d="M10 0C15.5227 0 20 4.47727 20 10C20 15.5227 15.5227 20 10 20C4.47727 20 0 15.5227 0 10C0 4.47727 4.47727 0 10 0ZM1.36364 10C1.36364 12.2905 2.27354 14.4872 3.89317 16.1068C5.5128 17.7265 7.70949 18.6364 10 18.6364C12.2905 18.6364 14.4872 17.7265 16.1068 16.1068C17.7265 14.4872 18.6364 12.2905 18.6364 10C18.6364 7.70949 17.7265 5.5128 16.1068 3.89317C14.4872 2.27354 12.2905 1.36364 10 1.36364C7.70949 1.36364 5.5128 2.27354 3.89317 3.89317C2.27354 5.5128 1.36364 7.70949 1.36364 10Z" fill="#FF7900"/>
</svg>
  