<svg width="28" height="28" viewBox="0 0 28 28" fill="none" xmlns="http://www.w3.org/2000/svg">
<g filter="url(#filter0_d_1061_432)">
<path d="M13.9971 9.51802C13.111 9.51802 12.2447 9.78079 11.508 10.2731C10.7712 10.7654 10.1969 11.4651 9.85784 12.2838C9.51874 13.1024 9.43001 14.0033 9.60288 14.8723C9.77576 15.7414 10.2025 16.5397 10.829 17.1663C11.4556 17.7929 12.2539 18.2196 13.123 18.3925C13.9921 18.5653 14.8929 18.4766 15.7116 18.1375C16.5303 17.7984 17.23 17.2242 17.7223 16.4874C18.2146 15.7506 18.4773 14.8844 18.4773 13.9983C18.4758 12.8105 18.0033 11.6718 17.1634 10.832C16.3235 9.99209 15.1848 9.51957 13.9971 9.51802ZM13.9971 17.3098C13.3421 17.3098 12.7019 17.1156 12.1573 16.7517C11.6127 16.3878 11.1883 15.8706 10.9376 15.2655C10.687 14.6604 10.6214 13.9946 10.7492 13.3522C10.877 12.7099 11.1924 12.1198 11.6555 11.6567C12.1186 11.1936 12.7087 10.8782 13.351 10.7504C13.9934 10.6226 14.6592 10.6882 15.2643 10.9389C15.8694 11.1895 16.3866 11.6139 16.7505 12.1585C17.1144 12.7031 17.3086 13.3433 17.3086 13.9983C17.3086 14.8766 16.9597 15.7188 16.3386 16.3399C15.7176 16.9609 14.8753 17.3098 13.9971 17.3098ZM22.3732 14.2749C22.3791 14.0908 22.3791 13.9058 22.3732 13.7217L23.8663 11.8556C23.9234 11.7841 23.9629 11.7003 23.9817 11.6108C24.0005 11.5213 23.998 11.4287 23.9744 11.3403C23.7408 10.4599 23.391 9.61455 22.9342 8.8265C22.8889 8.74652 22.8253 8.67838 22.7486 8.6276C22.6719 8.57683 22.5844 8.54487 22.493 8.53431L20.1117 8.27037C19.9863 8.13596 19.8565 8.0061 19.7221 7.88078L19.4571 5.49844C19.4466 5.4071 19.4146 5.31954 19.3639 5.24287C19.3131 5.16621 19.2449 5.1026 19.165 5.05724C18.3779 4.60176 17.5339 4.25264 16.655 4.01898C16.5665 3.99584 16.4737 3.99383 16.3842 4.01311C16.2947 4.0324 16.211 4.07244 16.1398 4.13002L14.2698 5.62701C14.0854 5.62116 13.9009 5.62116 13.7166 5.62701L11.8543 4.12904C11.7829 4.07197 11.6991 4.03246 11.6096 4.01368C11.5201 3.9949 11.4274 3.99739 11.3391 4.02093C10.4587 4.25454 9.61333 4.60435 8.82528 5.06113C8.7453 5.1065 8.67715 5.1701 8.62638 5.24677C8.57561 5.32343 8.54364 5.411 8.53309 5.50234L8.27304 7.8837C8.13863 8.00967 8.00877 8.13953 7.88345 8.27329L5.50014 8.54405C5.4088 8.55461 5.32123 8.58657 5.24457 8.63734C5.1679 8.68812 5.1043 8.75626 5.05893 8.83624C4.60346 9.62333 4.25434 10.4673 4.02068 11.3462C3.99809 11.4337 3.9961 11.5252 4.01486 11.6136C4.03362 11.702 4.07262 11.7848 4.12879 11.8556L5.62578 13.7256C5.61994 13.9099 5.61994 14.0944 5.62578 14.2788L4.12782 16.1459C4.07074 16.2173 4.03123 16.3012 4.01245 16.3906C3.99368 16.4801 3.99616 16.5728 4.0197 16.6611C4.25372 17.5398 4.60352 18.3836 5.05991 19.1701C5.10527 19.2501 5.16888 19.3182 5.24554 19.369C5.32221 19.4197 5.40977 19.4517 5.50111 19.4623L7.88247 19.7262C8.00844 19.8606 8.1383 19.9905 8.27206 20.1158L8.54283 22.4952C8.55338 22.5866 8.58535 22.6741 8.63612 22.7508C8.68689 22.8275 8.75504 22.8911 8.83502 22.9364C9.62211 23.3919 10.4661 23.741 11.3449 23.9747C11.4333 23.9982 11.5259 24.0007 11.6154 23.9819C11.7049 23.9631 11.7887 23.9236 11.8602 23.8666L13.7205 22.3744C13.9045 22.3803 14.0896 22.3803 14.2737 22.3744L16.1447 23.8724C16.2484 23.9552 16.3772 24.0002 16.5099 24C16.5605 23.9998 16.6109 23.9933 16.6599 23.9805C17.5386 23.7465 18.3823 23.3967 19.1689 22.9403C19.2488 22.8949 19.317 22.8314 19.3678 22.7547C19.4185 22.678 19.4505 22.5905 19.461 22.4991L19.725 20.1178C19.8594 19.9924 19.9893 19.8626 20.1146 19.7282L22.4969 19.4632C22.5883 19.4527 22.6758 19.4207 22.7525 19.3699C22.8291 19.3192 22.8928 19.251 22.9381 19.1711C23.3938 18.384 23.7429 17.54 23.9764 16.6611C23.9999 16.5728 24.0024 16.4801 23.9836 16.3906C23.9648 16.3012 23.9253 16.2173 23.8683 16.1459L22.3732 14.2749ZM22.0713 18.3295L19.7688 18.5857C19.6249 18.6023 19.4924 18.6717 19.3968 18.7805C19.2043 18.9973 18.999 19.2026 18.7822 19.3951C18.6734 19.4907 18.604 19.6232 18.5874 19.7671L18.3312 22.0686C17.7922 22.3561 17.2258 22.589 16.6404 22.764L14.8318 21.3167C14.728 21.2339 14.5992 21.1889 14.4665 21.1891H14.4315C14.1421 21.2057 13.852 21.2057 13.5627 21.1891C13.4182 21.1803 13.2755 21.2254 13.1624 21.3157L11.3547 22.764C10.7699 22.5881 10.2041 22.3541 9.66581 22.0657L9.40966 19.7652C9.39307 19.6213 9.32366 19.4887 9.21487 19.3931C8.99801 19.2006 8.79279 18.9954 8.60029 18.7785C8.50469 18.6697 8.37211 18.6003 8.22823 18.5837L5.92674 18.3276C5.63956 17.7901 5.40661 17.2253 5.23132 16.6416L6.67865 14.833C6.76898 14.7198 6.8141 14.5772 6.80526 14.4327C6.7887 14.1433 6.7887 13.8533 6.80526 13.5639C6.8141 13.4194 6.76898 13.2767 6.67865 13.1636L5.23132 11.3559C5.40727 10.7711 5.64121 10.2053 5.92966 9.66704L8.23018 9.41089C8.37405 9.3943 8.50664 9.32488 8.60224 9.21609C8.79474 8.99924 8.99996 8.79402 9.21681 8.60152C9.3256 8.50592 9.39502 8.37333 9.41161 8.22946L9.66776 5.92797C10.2053 5.64079 10.77 5.40784 11.3537 5.23255L13.1624 6.67987C13.2755 6.77021 13.4182 6.81533 13.5627 6.80649C13.852 6.78993 14.1421 6.78993 14.4315 6.80649C14.576 6.81533 14.7186 6.77021 14.8318 6.67987L16.6394 5.23255C17.2243 5.4085 17.79 5.64244 18.3283 5.93089L18.5845 8.23336C18.6011 8.37723 18.6705 8.50981 18.7793 8.60541C18.9961 8.79791 19.2013 9.00314 19.3938 9.21999C19.4894 9.32878 19.622 9.3982 19.7659 9.41478L22.0674 9.67094C22.3544 10.2078 22.5874 10.7719 22.7628 11.3549L21.3155 13.1636C21.2251 13.2767 21.18 13.4194 21.1889 13.5639C21.2054 13.8533 21.2054 14.1433 21.1889 14.4327C21.18 14.5772 21.2251 14.7198 21.3155 14.833L22.7628 16.6407C22.5875 17.2254 22.3542 17.7912 22.0664 18.3295H22.0713Z" fill="#FFC700"/>
</g>
<defs>
<filter id="filter0_d_1061_432" x="0" y="0" width="27.9961" height="28" filterUnits="userSpaceOnUse" color-interpolation-filters="sRGB">
<feFlood flood-opacity="0" result="BackgroundImageFix"/>
<feColorMatrix in="SourceAlpha" type="matrix" values="0 0 0 0 0 0 0 0 0 0 0 0 0 0 0 0 0 0 127 0" result="hardAlpha"/>
<feOffset/>
<feGaussianBlur stdDeviation="2"/>
<feComposite in2="hardAlpha" operator="out"/>
<feColorMatrix type="matrix" values="0 0 0 0 1 0 0 0 0 0.78 0 0 0 0 0 0 0 0 1 0"/>
<feBlend mode="normal" in2="BackgroundImageFix" result="effect1_dropShadow_1061_432"/>
<feBlend mode="normal" in="SourceGraphic" in2="effect1_dropShadow_1061_432" result="shape"/>
</filter>
</defs>
</svg>
