<svg width="20" height="20" viewBox="0 0 20 20" fill="none" xmlns="http://www.w3.org/2000/svg">
  <path d="M9.99706 5.51802C9.11095 5.51802 8.24474 5.78079 7.50796 6.27308C6.77119 6.76538 6.19694 7.46511 5.85784 8.28377C5.51874 9.10243 5.43001 10.0033 5.60288 10.8723C5.77576 11.7414 6.20246 12.5397 6.82904 13.1663C7.45561 13.7929 8.25392 14.2196 9.12301 14.3925C9.99209 14.5653 10.8929 14.4766 11.7116 14.1375C12.5303 13.7984 13.23 13.2242 13.7223 12.4874C14.2146 11.7506 14.4773 10.8844 14.4773 9.99829C14.4758 8.81052 14.0033 7.67185 13.1634 6.83197C12.3235 5.99209 11.1848 5.51957 9.99706 5.51802ZM9.99706 13.3098C9.34211 13.3098 8.70187 13.1156 8.15729 12.7517C7.61272 12.3878 7.18828 11.8706 6.93764 11.2655C6.687 10.6604 6.62142 9.99462 6.74919 9.35225C6.87697 8.70988 7.19236 8.11983 7.65548 7.6567C8.1186 7.19358 8.70865 6.87819 9.35102 6.75042C9.99339 6.62264 10.6592 6.68822 11.2643 6.93886C11.8694 7.1895 12.3866 7.61395 12.7505 8.15852C13.1144 8.70309 13.3086 9.34334 13.3086 9.99829C13.3086 10.8766 12.9597 11.7188 12.3386 12.3399C11.7176 12.9609 10.8753 13.3098 9.99706 13.3098ZM18.3732 10.2749C18.3791 10.0908 18.3791 9.90576 18.3732 9.72168L19.8663 7.85555C19.9234 7.78412 19.9629 7.70029 19.9817 7.6108C20.0005 7.52132 19.998 7.42867 19.9744 7.34032C19.7408 6.45992 19.391 5.61455 18.9342 4.8265C18.8889 4.74652 18.8253 4.67838 18.7486 4.6276C18.6719 4.57683 18.5844 4.54487 18.493 4.53431L16.1117 4.27037C15.9863 4.13596 15.8565 4.0061 15.7221 3.88078L15.4571 1.49844C15.4466 1.4071 15.4146 1.31954 15.3639 1.24287C15.3131 1.16621 15.2449 1.1026 15.165 1.05724C14.3779 0.601765 13.5339 0.25264 12.655 0.0189824C12.5665 -0.00416166 12.4737 -0.00617168 12.3842 0.0131145C12.2947 0.0324006 12.211 0.0724434 12.1398 0.130015L10.2698 1.62701C10.0854 1.62116 9.90092 1.62116 9.71656 1.62701L7.85433 0.129041C7.78289 0.0719699 7.69906 0.0324574 7.60958 0.0136807C7.52009 -0.00509598 7.42745 -0.00261294 7.3391 0.0209302C6.4587 0.254538 5.61333 0.604347 4.82528 1.06113C4.7453 1.1065 4.67715 1.1701 4.62638 1.24677C4.57561 1.32343 4.54364 1.411 4.53309 1.50234L4.27304 3.8837C4.13863 4.00967 4.00877 4.13953 3.88345 4.27329L1.50014 4.54405C1.4088 4.55461 1.32123 4.58657 1.24457 4.63734C1.1679 4.68812 1.1043 4.75626 1.05893 4.83624C0.603461 5.62333 0.254336 6.46732 0.0206785 7.34617C-0.00190682 7.43365 -0.0038984 7.52518 0.0148602 7.61357C0.0336187 7.70195 0.0726164 7.78478 0.128789 7.85555L1.62578 9.72558C1.61994 9.90994 1.61994 10.0944 1.62578 10.2788L0.127815 12.1459C0.0707442 12.2173 0.0312317 12.3012 0.012455 12.3906C-0.0063217 12.4801 -0.00383866 12.5728 0.0197045 12.6611C0.25372 13.5398 0.603518 14.3836 1.05991 15.1701C1.10527 15.2501 1.16888 15.3182 1.24554 15.369C1.32221 15.4197 1.40977 15.4517 1.50111 15.4623L3.88247 15.7262C4.00844 15.8606 4.1383 15.9905 4.27206 16.1158L4.54283 18.4952C4.55338 18.5866 4.58535 18.6741 4.63612 18.7508C4.68689 18.8275 4.75504 18.8911 4.83502 18.9364C5.62211 19.3919 6.4661 19.741 7.34494 19.9747C7.43329 19.9982 7.52593 20.0007 7.61542 19.9819C7.70491 19.9631 7.78874 19.9236 7.86017 19.8666L9.72046 18.3744C9.90454 18.3803 10.0896 18.3803 10.2737 18.3744L12.1447 19.8724C12.2484 19.9552 12.3772 20.0002 12.5099 20C12.5605 19.9998 12.6109 19.9933 12.6599 19.9805C13.5386 19.7465 14.3823 19.3967 15.1689 18.9403C15.2488 18.8949 15.317 18.8314 15.3678 18.7547C15.4185 18.678 15.4505 18.5905 15.461 18.4991L15.725 16.1178C15.8594 15.9924 15.9893 15.8626 16.1146 15.7282L18.4969 15.4632C18.5883 15.4527 18.6758 15.4207 18.7525 15.3699C18.8291 15.3192 18.8928 15.251 18.9381 15.1711C19.3938 14.384 19.7429 13.54 19.9764 12.6611C19.9999 12.5728 20.0024 12.4801 19.9836 12.3906C19.9648 12.3012 19.9253 12.2173 19.8683 12.1459L18.3732 10.2749ZM18.0713 14.3295L15.7688 14.5857C15.6249 14.6023 15.4924 14.6717 15.3968 14.7805C15.2043 14.9973 14.999 15.2026 14.7822 15.3951C14.6734 15.4907 14.604 15.6232 14.5874 15.7671L14.3312 18.0686C13.7922 18.3561 13.2258 18.589 12.6404 18.764L10.8318 17.3167C10.728 17.2339 10.5992 17.1889 10.4665 17.1891H10.4315C10.1421 17.2057 9.85203 17.2057 9.56267 17.1891C9.41816 17.1803 9.27551 17.2254 9.16237 17.3157L7.35468 18.764C6.76987 18.5881 6.20411 18.3541 5.66581 18.0657L5.40966 15.7652C5.39307 15.6213 5.32366 15.4887 5.21487 15.3931C4.99801 15.2006 4.79279 14.9954 4.60029 14.7785C4.50469 14.6697 4.37211 14.6003 4.22823 14.5837L1.92674 14.3276C1.63956 13.7901 1.40661 13.2253 1.23132 12.6416L2.67865 10.833C2.76898 10.7198 2.8141 10.5772 2.80526 10.4327C2.7887 10.1433 2.7887 9.85326 2.80526 9.5639C2.8141 9.41939 2.76898 9.27674 2.67865 9.1636L1.23132 7.35591C1.40727 6.7711 1.64121 6.20533 1.92966 5.66704L4.23018 5.41089C4.37405 5.3943 4.50664 5.32488 4.60224 5.21609C4.79474 4.99924 4.99996 4.79402 5.21681 4.60152C5.3256 4.50592 5.39502 4.37333 5.41161 4.22946L5.66776 1.92797C6.20528 1.64079 6.77004 1.40784 7.35371 1.23255L9.16237 2.67987C9.27551 2.77021 9.41816 2.81533 9.56267 2.80649C9.85203 2.78993 10.1421 2.78993 10.4315 2.80649C10.576 2.81533 10.7186 2.77021 10.8318 2.67987L12.6394 1.23255C13.2243 1.4085 13.79 1.64244 14.3283 1.93089L14.5845 4.23336C14.6011 4.37723 14.6705 4.50981 14.7793 4.60541C14.9961 4.79791 15.2013 5.00314 15.3938 5.21999C15.4894 5.32878 15.622 5.3982 15.7659 5.41478L18.0674 5.67094C18.3544 6.20783 18.5874 6.77194 18.7628 7.35493L17.3155 9.1636C17.2251 9.27674 17.18 9.41939 17.1889 9.5639C17.2054 9.85326 17.2054 10.1433 17.1889 10.4327C17.18 10.5772 17.2251 10.7198 17.3155 10.833L18.7628 12.6407C18.5875 13.2254 18.3542 13.7912 18.0664 14.3295H18.0713Z" fill="#FF7900"/>
  </svg>
  