<svg width="24" height="24" viewBox="0 0 24 24" fill="none" xmlns="http://www.w3.org/2000/svg">
<path fill-rule="evenodd" clip-rule="evenodd" d="M5.625 0H18.375C21.4816 0 24 2.5184 24 5.625V18.375C24 21.4816 21.4816 24 18.375 24H5.625C2.5184 24 0 21.4816 0 18.375V5.625C0 2.5184 2.5184 0 5.625 0ZM15.1785 11.449H13.2363V9.69178H15.1785V11.449ZM12.8663 11.449H10.9242V9.69178H12.8663V11.449ZM10.6005 11.449H8.65828V9.69178H10.6005V11.449ZM8.28844 11.449H6.39234L6.39244 9.69178H8.28844V11.449ZM6.0225 11.449H4.08028V9.69178H6.0225V11.449ZM8.28834 9.32184H6.39244V7.56469H8.28834V9.32184ZM10.6005 9.32184H8.65837L8.65828 7.56469H10.6005V9.32184ZM12.8663 9.32184H10.9242V7.56469H12.8663V9.32184ZM12.8663 7.19466H10.9242V5.4375H12.8663V7.19466ZM18.8317 10.1543C20.5426 9.87684 21.375 10.663 21.375 10.663C21.375 10.663 20.8663 12.6514 18.4617 12.4664C16.8432 16.3508 13.4212 18.4779 8.84325 18.4779C2.46178 18.4779 2.46178 12.6515 2.69306 11.7728H15.4097C16.1033 11.7728 16.5658 11.5879 16.8432 11.4491C15.8722 9.64566 17.2132 8.02716 17.2132 8.02716C17.2132 8.02716 18.6467 8.81325 18.8317 10.1543Z" fill="#FF7900"/>
</svg>
