<svg width="21" height="20" viewBox="0 0 21 20" fill="none" xmlns="http://www.w3.org/2000/svg">
<path d="M10.2521 0.00012207C15.9141 0.00012207 20.5042 4.59027 20.5042 10.2522C20.5042 14.8042 17.5362 18.6613 13.4307 19.9992C13.4317 19.9955 13.4335 19.9894 13.4335 19.9894C13.4335 19.9894 12.7415 19.6651 12.7564 19.0863C12.7727 18.4493 12.7564 16.9632 12.7564 16.4175C12.7564 15.4808 12.1637 14.8172 12.1637 14.8172C12.1637 14.8172 16.813 14.8694 16.813 9.90878C16.813 7.9949 15.8125 6.99858 15.8125 6.99858C15.8125 6.99858 16.3381 4.95515 15.6307 4.08838C14.8381 4.00264 13.4177 4.84611 12.8114 5.24035C12.8114 5.24035 11.8505 4.84611 10.2521 4.84611C8.65371 4.84611 7.69281 5.24035 7.69281 5.24035C7.08654 4.84611 5.66662 4.00264 4.87348 4.08838C4.16608 4.95515 4.69174 6.99858 4.69174 6.99858C4.69174 6.99858 3.69122 7.99444 3.69122 9.90878C3.69122 14.8694 8.34056 14.8172 8.34056 14.8172C8.34056 14.8172 7.87222 15.3466 7.7697 16.1248C7.44536 16.2348 6.96771 16.3709 6.58185 16.3709C5.57295 16.3709 4.80544 15.3899 4.52398 14.9365C4.2467 14.4891 3.67818 14.1135 3.14786 14.1135C2.79883 14.1135 2.62827 14.2883 2.62827 14.4878C2.62827 14.6872 3.11757 14.8265 3.44051 15.1965C4.12135 15.9766 4.10923 17.7307 6.53525 17.7307C6.79855 17.7307 7.33632 17.6659 7.74127 17.6114C7.73894 18.1636 7.73801 18.7466 7.74687 19.0872C7.76131 19.666 7.06976 19.9903 7.06976 19.9903C7.06976 19.9903 7.07162 19.9959 7.07256 20.0001C2.96799 18.6613 0 14.8042 0 10.2522C0 4.59027 4.59015 0.00012207 10.2521 0.00012207Z" fill="#FF7900"/>
</svg>
