<svg width="24" height="24" viewBox="0 0 24 24" fill="none" xmlns="http://www.w3.org/2000/svg">
<g clip-path="url(#clip0_3561_3795)">
<path fill-rule="evenodd" clip-rule="evenodd" d="M5.625 0H18.375C21.4816 0 24 2.5184 24 5.625V18.375C24 21.4816 21.4816 24 18.375 24H5.625C2.5184 24 0 21.4816 0 18.375V5.625C0 2.5184 2.5184 0 5.625 0ZM19.5386 16.7351C19.5394 16.7351 19.5402 16.7351 19.541 16.7351L19.5397 16.7412C19.5394 16.7392 19.539 16.7371 19.5386 16.7351ZM17.3145 17.0547C17.9107 16.8038 18.622 16.7098 19.5386 16.7351C19.5063 16.566 19.1829 16.3664 18.9455 16.2197C18.8648 16.1699 18.7941 16.1262 18.748 16.0919C18.381 15.8296 17.9907 15.5559 17.6008 15.3163C17.4744 15.2399 17.2928 15.1759 17.1182 15.1143C17.0067 15.0749 16.898 15.0366 16.8085 14.9967C16.7167 14.9595 16.5916 14.9223 16.4565 14.8822C16.136 14.7869 15.7594 14.675 15.6381 14.5064C15.3271 14.1047 15.1099 13.6187 14.8929 13.1333C14.8697 13.0814 14.8465 13.0295 14.8232 12.9778C14.7086 12.7167 14.5808 12.4506 14.4524 12.1831C14.3113 11.8891 14.1693 11.5935 14.043 11.3008C13.9872 11.1802 13.9449 11.0662 13.9032 10.954C13.8503 10.8116 13.7984 10.6719 13.7214 10.5252C12.884 8.91672 11.6441 7.57084 10.1408 6.62415C9.64695 6.3159 9.09626 6.03109 8.48782 5.83684C8.30212 5.78161 8.09628 5.772 7.88837 5.76231C7.7113 5.75405 7.53271 5.74572 7.36376 5.70906H7.12245C6.98348 5.67052 6.86 5.55973 6.7451 5.45664C6.68924 5.40652 6.63542 5.35822 6.58282 5.32093C6.22704 5.08168 5.87126 4.92212 5.44685 4.75084C5.2977 4.68287 4.87263 4.52078 4.72357 4.64865C4.63216 4.66909 4.58595 4.70565 4.56326 4.79687C4.47148 4.93393 4.55173 5.1369 4.6091 5.26469C4.72306 5.50594 4.86683 5.68248 5.01424 5.86349C5.08972 5.95618 5.16616 6.05005 5.24004 6.15437C5.27464 6.20282 5.31067 6.25236 5.3473 6.30273C5.51741 6.53664 5.70054 6.78846 5.81416 7.03253C5.97381 7.37392 6.08745 7.73479 6.20068 8.09437C6.29929 8.40753 6.3976 8.71972 6.52573 9.01722C6.62913 9.25675 6.78935 9.53031 6.93851 9.74706C6.98543 9.81056 7.04644 9.86774 7.10817 9.92559C7.21295 10.0238 7.31982 10.124 7.36348 10.2603C7.47489 10.445 7.27022 10.9735 7.14563 11.2952C7.11631 11.3709 7.09142 11.4352 7.07613 11.4808C6.77773 12.4161 6.83538 13.7163 7.17963 14.5261C7.19188 14.5546 7.20404 14.5834 7.2163 14.6125C7.34161 14.9101 7.47641 15.2301 7.81057 15.313C7.81987 15.3015 7.82075 15.2975 7.82322 15.2955C7.82622 15.2932 7.83154 15.2938 7.85688 15.2875C7.8737 15.1561 7.88798 15.0256 7.90206 14.897C7.95519 14.4118 8.00544 13.9528 8.17788 13.5652C8.26055 13.3647 8.39635 13.2025 8.52865 13.0446C8.59937 12.9601 8.66908 12.8769 8.72913 12.7896C8.80156 12.8326 8.82816 12.9308 8.85553 13.0317C8.87142 13.0903 8.88756 13.1499 8.91307 13.2001C8.9216 13.2204 8.93016 13.2408 8.93877 13.2613C9.08028 13.5981 9.23308 13.9618 9.40638 14.295C9.78532 15.0249 10.2097 15.7322 10.6915 16.3708C10.8523 16.5988 11.0818 16.8499 11.2883 17.0551C11.3198 17.0825 11.3525 17.1058 11.3849 17.1288C11.4469 17.173 11.5071 17.216 11.5525 17.2832H11.5751V17.3177C11.3571 17.2384 11.1896 17.0674 11.0262 16.9004C10.9316 16.8038 10.8384 16.7086 10.7375 16.6333C10.2214 16.2453 9.60138 15.6635 9.2456 15.1047L8.77488 14.1581V14.1325C8.73128 14.1907 8.7247 14.2487 8.71679 14.3184C8.71225 14.3584 8.70728 14.4022 8.69463 14.452C8.65207 14.6148 8.63104 14.784 8.61071 14.9475C8.5598 15.3571 8.51333 15.731 8.14423 15.8777C7.55613 16.1174 7.12273 15.4899 6.93879 15.2049C6.3536 14.2559 6.19282 12.6592 6.60616 11.3703C6.63814 11.271 6.66032 11.1648 6.68244 11.0589C6.72387 10.8606 6.76505 10.6635 6.86988 10.5147C6.84723 10.3789 6.76913 10.3089 6.69227 10.2401C6.65301 10.205 6.61407 10.1701 6.58301 10.1269C6.42232 9.91037 6.28723 9.65912 6.1586 9.41959C5.97456 9.06239 5.83059 8.65194 5.69115 8.25445C5.64798 8.13137 5.60524 8.00953 5.56188 7.8909C5.52147 7.78788 5.49485 7.68481 5.4686 7.5832C5.44254 7.48231 5.41685 7.38285 5.37841 7.28631C5.26934 7.05201 5.08913 6.81782 4.92189 6.60049C4.8774 6.54267 4.83383 6.48605 4.79276 6.43094C4.74777 6.36605 4.6877 6.29068 4.62067 6.20656C4.29865 5.80249 3.81593 5.19678 4.07239 4.58322C4.55482 3.41087 6.24195 4.30037 6.89613 4.711C6.96143 4.75276 7.03049 4.81335 7.10181 4.87593C7.20601 4.96735 7.31504 5.06301 7.42423 5.11037L8.28485 5.15631C8.33174 5.16725 8.37838 5.17802 8.42474 5.18872C8.90933 5.3006 9.36376 5.40551 9.7511 5.62412C11.7251 6.77631 13.0107 7.9509 14.193 9.88994C14.353 10.1506 14.4625 10.425 14.5739 10.7046C14.638 10.8653 14.7028 11.0277 14.7782 11.1902L15.7191 13.1746C15.7609 13.2578 15.8 13.3438 15.8392 13.4298C15.9398 13.6507 16.0409 13.8728 16.1899 14.053C16.2434 14.129 16.363 14.1696 16.4778 14.2084C16.5352 14.2279 16.5913 14.2469 16.6374 14.2697C16.7854 14.3454 16.9457 14.4141 17.1073 14.4835C17.3592 14.5915 17.6143 14.7009 17.831 14.8398C18.4967 15.2503 19.1398 15.7409 19.725 16.2428C19.8431 16.3478 19.9409 16.4763 20.0387 16.6046C20.1214 16.7131 20.2039 16.8215 20.2986 16.9155V17.0178L19.7474 17.1776C19.5475 17.2287 19.359 17.2487 19.1719 17.2686C18.9833 17.2887 18.7961 17.3086 18.6001 17.3599C18.5818 17.3651 18.5632 17.3704 18.5443 17.3758C18.314 17.4414 18.0414 17.5191 17.8084 17.5426L17.831 17.5682C17.9416 17.881 18.4118 18.1499 18.7972 18.3704C18.9316 18.4473 19.0556 18.5182 19.1506 18.5831C19.5981 18.9021 20.0116 19.2902 20.3441 19.735L20.6888 20.0655C20.7274 20.1208 20.7528 20.1839 20.7777 20.2459C20.8044 20.3124 20.8307 20.3777 20.8722 20.4306V20.4651C20.7728 20.4301 20.7051 20.36 20.6375 20.29C20.5958 20.2467 20.554 20.2035 20.5049 20.1686C20.3968 20.0953 20.2887 20.0157 20.1806 19.9362C20.0362 19.8299 19.8919 19.7236 19.7474 19.6322C19.5251 19.4927 19.285 19.3828 19.0436 19.2723C18.8115 19.166 18.5783 19.0593 18.3589 18.9252L17.6244 18.4003C17.4065 18.2408 17.1652 17.9333 17.0277 17.705C16.9929 17.6507 16.9711 17.5921 16.9501 17.5357C16.9225 17.4617 16.8964 17.3915 16.8442 17.3399C16.8611 17.1786 17.0189 17.1377 17.1693 17.0986C17.2205 17.0853 17.2708 17.0723 17.3145 17.0547ZM7.36685 6.88056C7.52045 6.84133 7.67848 6.82217 7.83701 6.82356C7.87328 6.85935 7.91838 6.89002 7.96394 6.921C8.03414 6.96873 8.10544 7.01721 8.14723 7.08634C8.17273 7.1218 8.18914 7.15732 8.20555 7.19284C8.22606 7.23724 8.24658 7.28165 8.28485 7.32597C8.28485 7.59944 8.20432 7.78197 8.04363 7.89597L8.02095 7.92147L7.75676 7.37397C7.71203 7.31165 7.66028 7.25453 7.60833 7.1972C7.52714 7.10759 7.44548 7.01747 7.38945 6.90615H7.36685V6.88056Z" fill="#FF7900"/>
</g>
<defs>
<clipPath id="clip0_3561_3795">
<rect width="24" height="24" fill="white"/>
</clipPath>
</defs>
</svg>
