<svg width="24" height="24" viewBox="0 0 24 24" fill="none" xmlns="http://www.w3.org/2000/svg">
<path fill-rule="evenodd" clip-rule="evenodd" d="M5.625 0H18.375C21.4816 0 24 2.5184 24 5.625V18.375C24 21.4816 21.4816 24 18.375 24H5.625C2.5184 24 0 21.4816 0 18.375V5.625C0 2.5184 2.5184 0 5.625 0ZM17.6791 19.8429C17.8801 19.9261 18.0955 19.9688 18.3129 19.9686C18.5302 19.9688 18.7453 19.926 18.946 19.8428C19.5646 19.5865 19.9687 18.9825 19.9687 18.313V5.68752C19.9687 4.77289 19.2276 4.03189 18.3128 4.03189C17.3982 4.03189 16.657 4.77289 16.657 5.68752V14.3155L6.85809 4.51658C6.62673 4.28477 6.33173 4.12691 6.01051 4.06301C5.68929 3.99912 5.35633 4.03208 5.05387 4.1577C4.43531 4.41392 4.03125 5.0172 4.03125 5.68752V18.313C4.03125 19.2275 4.773 19.9686 5.68706 19.9686C6.60169 19.9686 7.34287 19.2275 7.34287 18.313V9.68492L17.1419 19.4839C17.2956 19.6377 17.4782 19.7597 17.6791 19.8429Z" fill="#FF7900"/>
</svg>
