<svg width="24" height="24" viewBox="0 0 24 24" fill="none" xmlns="http://www.w3.org/2000/svg">
<g clip-path="url(#clip0_3561_4791)">
<path fill-rule="evenodd" clip-rule="evenodd" d="M5.625 0H18.375C21.4816 0 24 2.5184 24 5.625V18.375C24 21.4816 21.4816 24 18.375 24H5.625C2.5184 24 0 21.4816 0 18.375V5.625C0 2.5184 2.5184 0 5.625 0ZM21.7493 9.36995V7.5721C21.75 7.56258 21.75 7.55312 21.7493 7.54371V7.50095L21.7467 7.5C21.7481 7.51095 21.7487 7.52197 21.7483 7.53306C21.7268 7.35673 21.4745 7.19865 21.0027 7.02626C20.5155 6.84817 18.9857 6.24707 17.4536 5.64508L17.4431 5.64095C15.9123 5.03945 14.3816 4.438 13.8887 4.25763C12.9016 3.89622 12.4999 3.91113 11.3408 4.3272L3.71974 7.27723C3.25605 7.45891 3.0172 7.62799 3.0009 7.80642C2.99969 7.79305 2.99972 7.77975 3.00098 7.76649L3 7.76681V7.82622V9.66319C3 9.8521 3.26044 10.0519 3.75751 10.2894C4.27119 10.535 5.9919 11.2484 7.65546 11.9382L7.65765 11.9391L7.66328 11.9414C9.21658 12.5854 10.7183 13.2081 11.139 13.4091C12.0109 13.8256 12.6238 13.8316 13.7272 13.256C14.2926 12.961 15.9288 12.2578 17.5248 11.5719L17.5263 11.5712C19.0448 10.9187 20.5264 10.2819 21.0142 10.0275L21.0151 10.0281C21.5248 9.76753 21.7493 9.55734 21.7493 9.36995ZM12.8429 7.41849L12.2554 6.4418L10.3795 6.27277L11.7793 5.76774L11.3592 4.99243L12.6695 5.5043L13.9051 5.09968L13.5711 5.90096L14.8307 6.37318L13.2063 6.54221L12.8429 7.41849ZM9.71337 9.36305L14.0577 8.69602L12.7455 10.6206L9.71337 9.36305ZM8.54234 8.66171C9.82484 8.66171 10.8646 8.25858 10.8646 7.76152C10.8646 7.26436 9.82484 6.86133 8.54234 6.86133C7.25975 6.86133 6.21997 7.26436 6.21997 7.76152C6.21997 8.25868 7.25966 8.66171 8.54234 8.66171ZM16.4749 8.75457L16.7533 8.64517L19.3227 7.6303L16.7509 6.61465L13.9071 7.73954L16.4749 8.75457ZM17.5237 12.9219C19.0432 12.2689 20.5266 11.6315 21.0147 11.3769C21.4987 11.1244 21.7402 10.9252 21.7498 10.7462V12.6152C21.7498 12.8025 21.5252 13.0127 21.0156 13.2732L21.0146 13.2724C20.5261 13.5272 19.0403 14.1657 17.5192 14.8193C15.9252 15.5043 14.2924 16.206 13.7277 16.5003C12.6242 17.0754 12.0114 17.0699 11.1395 16.6533C10.7181 16.452 9.21224 15.8276 7.65628 15.1825L7.64229 15.1767C5.98299 14.4887 4.27028 13.7786 3.75799 13.5337C3.26093 13.2961 3.00049 13.0963 3.00049 12.9074V11.0177C3.01301 11.2047 3.26637 11.4033 3.75799 11.6383C4.27167 11.8839 5.99227 12.5973 7.65576 13.2869L7.66078 13.289C9.21514 13.9335 10.7185 14.5568 11.1395 14.758C12.0114 15.1746 12.6242 15.18 13.7277 14.6049C14.2923 14.3106 15.9257 13.6087 17.5197 12.9237L17.5237 12.9219ZM13.7277 17.6948C14.2923 17.4006 15.9247 16.6991 17.5186 16.0142L17.5259 16.0111C19.0446 15.3584 20.5268 14.7214 21.0147 14.4669L21.0137 14.4719C21.5043 14.2161 21.7452 14.0163 21.7484 13.8364L21.7498 13.8369V15.7059C21.7498 15.8933 21.5252 16.1035 21.0156 16.364L21.0146 16.363C20.5261 16.6179 19.0403 17.2564 17.5192 17.91C15.9252 18.595 14.2924 19.2967 13.7277 19.5909C12.6242 20.166 12.0114 20.1606 11.1395 19.744C10.7186 19.5429 9.21533 18.9196 7.66116 18.2752L7.65579 18.273L7.64318 18.2678C5.9836 17.5797 4.27037 16.8694 3.75799 16.6244C3.26093 16.3868 3.00049 16.187 3.00049 15.9981V14.1078C3.01301 14.2948 3.26637 14.4934 3.75799 14.7284C4.27066 14.9734 5.98557 15.6844 7.646 16.3729L7.65637 16.3772C9.21231 17.0223 10.7181 17.6467 11.1395 17.8479C12.0114 18.2645 12.6242 18.27 13.7277 17.6948Z" fill="#FF7900"/>
</g>
<defs>
<clipPath id="clip0_3561_4791">
<rect width="24" height="24" fill="white"/>
</clipPath>
</defs>
</svg>
