<svg width="40" height="40" viewBox="0 0 40 40" fill="none" xmlns="http://www.w3.org/2000/svg">
<path d="M36.9081 7.98126C36.9397 7.80238 36.9211 7.61883 36.8541 7.44878C36.7871 7.27873 36.6741 7.12808 36.5262 7.01172C36.3782 6.89536 36.2006 6.81733 36.0107 6.78536C35.8208 6.75339 35.6254 6.76857 35.4437 6.82942L4.42797 17.2439C4.22353 17.3125 4.04501 17.436 3.91459 17.5991C3.78417 17.7622 3.70759 17.9578 3.69438 18.1615C3.68116 18.3652 3.73189 18.568 3.84025 18.7448C3.94862 18.9216 4.10984 19.0646 4.30391 19.156L13.1656 23.3218C13.3402 23.404 13.5348 23.4413 13.7298 23.43C13.9247 23.4186 14.1129 23.3591 14.2755 23.2573L21.6306 18.6457L17.2286 23.8238C17.1328 23.9365 17.063 24.0667 17.0235 24.2061C16.984 24.3455 16.9758 24.4911 16.9994 24.6337C17.0229 24.7763 17.0777 24.9127 17.1602 25.0343C17.2428 25.1559 17.3513 25.2601 17.479 25.3402L30.7714 33.6718C30.9253 33.768 31.1024 33.8265 31.2865 33.8419C31.4707 33.8573 31.6559 33.8291 31.8255 33.76C31.9951 33.6908 32.1436 33.5828 32.2574 33.4459C32.3712 33.309 32.4468 33.1475 32.4773 32.9761L36.9081 7.98126Z" fill="#FF7900"/>
</svg>
