<svg width="40" height="40" viewBox="0 0 40 40" fill="none" xmlns="http://www.w3.org/2000/svg">
<path d="M35.8383 30.6349H32.0367C30.5983 30.6349 30.165 29.4699 27.5867 26.8899C25.3333 24.7182 24.3817 24.4482 23.8117 24.4482C23.0233 24.4482 22.8083 24.6649 22.8083 25.7499V29.1699C22.8083 30.0949 22.5083 30.6366 20.0917 30.6366C17.7472 30.4791 15.4736 29.7668 13.4583 28.5585C11.443 27.3502 9.74354 25.6804 8.5 23.6866C5.54731 20.0116 3.49285 15.6984 2.5 11.0899C2.5 10.5199 2.71667 10.0032 3.80333 10.0032H7.60333C8.58 10.0032 8.93167 10.4382 9.315 11.4432C11.16 16.8732 14.3083 21.5966 15.5867 21.5966C16.0767 21.5966 16.29 21.3799 16.29 20.1582V14.5649C16.1283 12.0132 14.7733 11.7982 14.7733 10.8749C14.7905 10.6313 14.9019 10.404 15.084 10.2412C15.266 10.0785 15.5043 9.99309 15.7483 10.0032H21.7217C22.5383 10.0032 22.8083 10.4099 22.8083 11.3866V18.9366C22.8083 19.7516 23.1583 20.0216 23.405 20.0216C23.895 20.0216 24.2717 19.7516 25.17 18.8549C27.0956 16.5065 28.6688 13.8902 29.84 11.0882C29.9599 10.7518 30.1865 10.4639 30.4853 10.2683C30.7841 10.0727 31.1387 9.98018 31.495 10.0049H35.2967C36.4367 10.0049 36.6783 10.5749 36.4367 11.3882C35.054 14.4856 33.3431 17.4257 31.3333 20.1582C30.9233 20.7832 30.76 21.1082 31.3333 21.8416C31.71 22.4116 33.0433 23.5249 33.9383 24.5832C35.2417 25.8832 36.3233 27.3866 37.1417 29.0332C37.4683 30.0932 36.9233 30.6349 35.8383 30.6349Z" fill="#FF7900"/>
</svg>
