<svg width="21" height="20" viewBox="0 0 21 20" fill="none" xmlns="http://www.w3.org/2000/svg">
<path d="M10.2521 0C15.9141 0 20.5042 4.59015 20.5042 10.2521C20.5042 14.804 17.5362 18.6612 13.4307 19.9991C13.4317 19.9953 13.4335 19.9893 13.4335 19.9893C13.4335 19.9893 12.7415 19.6649 12.7564 19.0862C12.7727 18.4491 12.7564 16.963 12.7564 16.4174C12.7564 15.4807 12.1637 14.8171 12.1637 14.8171C12.1637 14.8171 16.813 14.8693 16.813 9.90866C16.813 7.99478 15.8125 6.99846 15.8125 6.99846C15.8125 6.99846 16.3381 4.95503 15.6307 4.08826C14.8381 4.00252 13.4177 4.84599 12.8114 5.24023C12.8114 5.24023 11.8505 4.84599 10.2521 4.84599C8.65371 4.84599 7.69281 5.24023 7.69281 5.24023C7.08654 4.84599 5.66662 4.00252 4.87348 4.08826C4.16608 4.95503 4.69174 6.99846 4.69174 6.99846C4.69174 6.99846 3.69122 7.99432 3.69122 9.90866C3.69122 14.8693 8.34056 14.8171 8.34056 14.8171C8.34056 14.8171 7.87222 15.3465 7.7697 16.1247C7.44536 16.2347 6.96771 16.3708 6.58185 16.3708C5.57295 16.3708 4.80544 15.3898 4.52398 14.9364C4.2467 14.489 3.67818 14.1134 3.14786 14.1134C2.79883 14.1134 2.62827 14.2882 2.62827 14.4876C2.62827 14.6871 3.11757 14.8264 3.44051 15.1964C4.12135 15.9765 4.10923 17.7306 6.53525 17.7306C6.79855 17.7306 7.33632 17.6658 7.74127 17.6113C7.73894 18.1635 7.73801 18.7464 7.74687 19.0871C7.76131 19.6659 7.06976 19.9902 7.06976 19.9902C7.06976 19.9902 7.07162 19.9958 7.07256 20C2.96799 18.6612 0 14.804 0 10.2521C0 4.59015 4.59015 0 10.2521 0Z" fill="#FF7900"/>
</svg>
