<svg width="22" height="20" viewBox="0 0 22 20" fill="none" xmlns="http://www.w3.org/2000/svg">
<path d="M1.99903 1L19.999 19M8.84331 7.91365C8.32067 8.45359 7.99903 9.18919 7.99903 10C7.99903 11.6569 9.34222 13 10.999 13C11.8215 13 12.5667 12.669 13.1086 12.133M5.49903 4.64714C3.59973 5.90033 2.15306 7.78394 1.45703 10C2.73128 14.0571 6.52161 17 10.9992 17C12.9881 17 14.8414 16.4194 16.3988 15.4184M9.999 3.04938C10.328 3.01674 10.6617 2.99999 10.9992 2.99999C15.4769 2.99999 19.2672 5.9429 20.5414 10C20.2607 10.894 19.8577 11.7338 19.3522 12.5" stroke="#FF7900" stroke-width="2" stroke-linecap="round" stroke-linejoin="round"/>
</svg>
