<svg width="24" height="15" viewBox="0 0 24 15" fill="none" xmlns="http://www.w3.org/2000/svg">
<path d="M23.4564 0.982488C23.2054 1.7848 22.8381 2.546 22.3663 3.24182L22.3853 3.21181C21.9372 3.95859 21.4021 4.82138 20.78 5.80019C20.2466 6.57297 19.9643 6.97303 19.9329 7.00037C19.7904 7.17888 19.6982 7.39229 19.6659 7.61846L19.6649 7.62546C19.6904 7.82924 19.785 8.01812 19.9329 8.16054L20.333 8.60661C22.4733 10.8063 23.6771 12.3225 23.9445 13.1553C23.9952 13.2921 24.0115 13.4392 23.992 13.5838C23.9725 13.7284 23.9177 13.866 23.8325 13.9844L23.8345 13.9814C23.7338 14.0853 23.6111 14.1652 23.4753 14.2152C23.3396 14.2652 23.1944 14.2841 23.0504 14.2704H23.0544H20.418C20.0809 14.2704 19.7709 14.1524 19.5279 13.9564L19.5309 13.9584C19.1839 13.6739 18.8653 13.3563 18.5797 13.0103L18.5707 12.9983C18.11 12.4775 17.7013 12.0391 17.3445 11.6831C16.1564 10.5536 15.2796 9.98881 14.7142 9.98881C14.5317 9.97246 14.3492 10.0202 14.1981 10.1238L14.2011 10.1218C14.1362 10.2032 14.0885 10.297 14.061 10.3974C14.0335 10.4978 14.0267 10.6028 14.0411 10.7059V10.7019C14.0022 11.1686 13.9895 11.637 14.0031 12.1051V12.0881V13.2473C14.0315 13.3857 14.0217 13.5293 13.9749 13.6627C13.928 13.796 13.8458 13.9141 13.737 14.0044L13.736 14.0054C13.2295 14.2342 12.6719 14.3263 12.1188 14.2724L12.1318 14.2734C10.6178 14.2475 9.13949 13.809 7.85615 13.0053L7.89116 13.0253C6.41133 12.1331 5.14292 10.9302 4.17361 9.49974L4.14661 9.45773C3.20571 8.20302 2.37864 6.86686 1.67525 5.46515L1.60524 5.31112C1.13653 4.40343 0.724673 3.46749 0.372055 2.50871L0.312046 2.32368C0.148557 1.82595 0.0444864 1.31063 0.00200029 0.78846L0 0.763456C0 0.258048 0.297377 0.00534474 0.892131 0.00534474H3.52252C3.78844 -0.0154831 4.05242 0.0648902 4.26162 0.230378L4.25962 0.228377C4.45965 0.44741 4.60768 0.716449 4.68069 1.01649L4.68369 1.02849C5.11824 2.27299 5.64892 3.48181 6.27092 4.64402L6.20391 4.507C6.65346 5.42017 7.19752 6.28368 7.82715 7.08338L7.80414 7.05238C8.33756 7.70714 8.75362 8.03452 9.05233 8.03452L9.08433 8.03552C9.15466 8.03563 9.22377 8.01719 9.28469 7.98207C9.34562 7.94695 9.39622 7.8964 9.43138 7.83549L9.43238 7.83349C9.52814 7.58282 9.56609 7.31376 9.5434 7.04638V7.05238V3.17281C9.5247 2.73294 9.41577 2.30161 9.22335 1.90562L9.23135 1.92463C9.11468 1.67296 8.96318 1.43896 8.78129 1.22952L8.78429 1.23352C8.61658 1.06609 8.50747 0.848933 8.47324 0.614434L8.47224 0.608433C8.47224 0.438408 8.55025 0.285386 8.67227 0.185371L8.67327 0.184371C8.79884 0.0693727 8.96307 0.00582149 9.13334 0.00634481H13.2879C13.3922 -0.00582642 13.4979 0.008089 13.5955 0.0468423C13.6931 0.0855957 13.7795 0.147974 13.847 0.228377L13.848 0.229378C13.9744 0.462787 14.0296 0.728052 14.0071 0.992489V0.987489V6.16125C13.9911 6.36531 14.0386 6.5693 14.1431 6.74533L14.1411 6.74133C14.1777 6.79607 14.2272 6.84095 14.2853 6.872C14.3434 6.90305 14.4083 6.91931 14.4741 6.91936C14.6428 6.9084 14.8065 6.85245 14.9462 6.75733L14.9432 6.75934C15.2152 6.57231 15.4493 6.35928 15.6523 6.11824L15.6563 6.11324C16.2742 5.41411 16.8282 4.66099 17.3115 3.86291L17.3505 3.7929C17.6946 3.22282 18.0666 2.52071 18.4037 1.79961L18.4657 1.65259L18.9118 0.760455C18.9903 0.529787 19.1418 0.330952 19.3434 0.194001C19.5449 0.0570497 19.7856 -0.0105759 20.0289 0.00134396H20.0259H22.6573C23.3681 0.00134396 23.6338 0.328392 23.4564 0.982488Z" fill="#FF7900"/>
</svg>
