<svg width="12" height="20" viewBox="0 0 12 20" fill="none" xmlns="http://www.w3.org/2000/svg">
<path d="M9.12206 10.8802H7.76282C5.628 10.8802 3.55772 9.60028 3.55772 6.40012C3.55772 3.06626 5.49844 1.70654 7.47164 1.70654H9.12204L9.12206 10.8802ZM11.2569 0H7.5687C3.94616 0 0.872822 2.26668 0.872822 6.66684C0.872822 9.30688 2.3614 11.2534 5.01314 12.2134L0.0647218 19.5736C-0.0968982 19.8138 0.0647218 20 0.322742 20H2.6194C2.81352 20 2.94306 19.9468 3.00762 19.8138L7.5039 12.5866H9.12202V19.8138C9.12202 19.8935 9.21908 20 9.34754 20H11.3539C11.548 20 11.6128 19.9201 11.6128 19.7872V0.26688C11.6128 0.07976 11.4833 0 11.2569 0Z" fill="#FF7900"/>
</svg>
