<svg width="129" height="129" viewBox="0 0 129 129" fill="none" xmlns="http://www.w3.org/2000/svg">
<mask id="path-1-outside-1_2228_9311" maskUnits="userSpaceOnUse" x="1" y="1" width="128" height="128" fill="black">
<rect fill="white" x="1" y="1" width="128" height="128"/>
<path fill-rule="evenodd" clip-rule="evenodd" d="M57.8144 32.6077C57.3351 31.7186 56.7194 29.3173 57.8051 26.4269C58.3632 24.941 59.4089 23.9486 60.4781 23.314C61.541 22.6831 62.6394 22.3977 63.3415 22.3285C64.1036 22.2235 65.3435 22.2254 66.6289 22.5637C67.913 22.9016 69.2642 23.5811 70.219 24.849C70.5596 25.1712 70.8832 25.2933 71.1742 25.3066C71.4748 25.3203 71.7736 25.2191 72.055 25.0411C72.6091 24.6905 73.0288 24.0843 73.1641 23.7162V2.27612V2H73.4407H115.002H115.015L115.029 2.0014C118.771 2.37686 126.6 5.4663 127.997 14.8265L128 14.8469V14.8673V56.0644V56.8155V57.0916H127.723H106.302H106.258L106.216 57.0779C105.732 56.9202 104.988 56.4106 104.554 55.7276C104.334 55.3805 104.183 54.9711 104.203 54.5275C104.224 54.0787 104.418 53.6273 104.831 53.1999L104.847 53.1836L104.865 53.1702C106.017 52.3129 106.649 51.0826 106.968 49.8738C107.288 48.6634 107.287 47.4965 107.19 46.8027L107.189 46.797L107.189 46.7913C107.128 46.1666 106.866 45.1458 106.276 44.1555C105.688 43.1687 104.783 42.2247 103.44 41.7216C100.684 40.6901 98.4376 41.3013 97.6954 41.7055L97.6829 41.7123L97.6697 41.7178C96.9331 42.0257 95.1636 43.2154 94.2224 45.4364C93.2876 47.6423 93.8366 49.7498 94.2143 50.5054C94.3559 50.7789 94.6838 51.2038 95.0871 51.7042C95.1691 51.8059 95.2536 51.91 95.3393 52.0156C95.6659 52.4181 96.0096 52.8416 96.2928 53.2286C97.4684 54.8347 96.5338 56.7098 94.9725 57.0839L94.9408 57.0916H94.908L74.0158 57.0915H73.4407H73.1641V56.8154V35.1726C72.8581 33.9885 71.4313 33.2851 70.1745 34.202C69.7999 34.4754 69.3912 34.8058 68.9903 35.1301L68.9879 35.1321C68.8803 35.2191 68.7736 35.3055 68.6681 35.3902C68.1808 35.7818 67.7068 36.151 67.3724 36.3231L67.3709 36.3238L67.3694 36.3246C66.5025 36.7574 64.2191 37.342 61.8281 36.3319C59.4629 35.3328 58.1774 33.4615 57.8144 32.6077ZM94.8742 56.5394H74.0158L73.7172 56.5393V35.1388V35.1061L73.7096 35.0743C73.3349 33.5157 71.4569 32.5825 69.8482 33.7561C69.4611 34.0385 69.0376 34.3812 68.6353 34.7066L68.6333 34.7082C68.5275 34.7938 68.4231 34.8782 68.3214 34.96C67.8201 35.3627 67.3946 35.6901 67.1205 35.8314C66.3638 36.2085 64.2531 36.7566 62.0436 35.8233C59.8191 34.8837 58.6275 33.117 58.3191 32.3814L58.3136 32.3683L58.3067 32.3559C57.902 31.6147 57.2898 29.3715 58.323 26.6207C58.8269 25.2791 59.7723 24.3754 60.7607 23.7887C61.7525 23.2 62.775 22.9384 63.4006 22.8777L63.4064 22.8771L63.4121 22.8764C64.1069 22.7797 65.2757 22.7786 66.488 23.0977C67.6987 23.4162 68.9309 24.0477 69.7896 25.1978L69.8031 25.2158L69.8193 25.2315C70.2474 25.6436 70.6995 25.8377 71.149 25.8583C71.5934 25.8785 72.0033 25.7276 72.351 25.5076C73.0351 25.0747 73.5455 24.332 73.7036 23.8482L73.7172 23.8065V23.7626V2.55224H114.987C118.587 2.91902 126.094 5.89661 127.447 14.8878V56.0644V56.5394H106.349C105.98 56.4043 105.373 55.9853 105.022 55.432C104.843 55.1511 104.742 54.8527 104.756 54.5526C104.769 54.2621 104.891 53.9389 105.214 53.5989C106.484 52.6456 107.165 51.2965 107.503 50.0145C107.842 48.7311 107.844 47.4932 107.738 46.7322C107.669 46.0313 107.383 44.9347 106.751 43.8734C106.116 42.8059 105.122 41.7618 103.634 41.2046C100.739 40.1206 98.3336 40.7354 97.4431 41.2139C96.5881 41.5763 94.7137 42.8596 93.7131 45.2213C92.7014 47.6085 93.2868 49.8883 93.7204 50.7539L93.7211 50.7553L93.7219 50.7569C93.8942 51.0907 94.264 51.5639 94.6562 52.0504C94.7411 52.1557 94.8276 52.2624 94.9147 52.3696L94.9192 52.3753C95.2431 52.7744 95.5733 53.1814 95.8462 53.5545C96.7646 54.8092 96.0602 56.2339 94.8742 56.5394ZM25.0389 76.0772C25.017 76.1061 24.9936 76.135 24.9688 76.1641C24.9426 76.195 24.9146 76.226 24.8851 76.2572C24.3392 76.667 23.9021 77.15 23.5543 77.6694C23.0371 78.3962 22.7034 79.2033 22.497 79.9852C22.1582 81.2687 22.1562 82.5066 22.2616 83.2676C22.3307 83.9685 22.6165 85.0651 23.2485 86.1264C23.8842 87.1939 24.878 88.238 26.3662 88.7952C29.2612 89.8791 31.6664 89.2644 32.5569 88.7859C33.2294 88.5008 34.5326 87.6461 35.5451 86.145C35.8582 85.7017 36.1471 85.1991 36.3862 84.6348C37.3978 82.2476 36.8123 79.9678 36.3789 79.1022L36.3781 79.1008L36.3773 79.0992C36.205 78.7652 35.8351 78.2922 35.443 77.8056C35.397 77.7484 35.3504 77.6909 35.3035 77.633L35.1845 77.4863L35.1796 77.4804L35.178 77.4784L35.1777 77.478C34.8546 77.0796 34.5254 76.6738 34.2529 76.3016C33.7016 75.5482 33.7352 74.7336 34.1068 74.1368C34.3549 73.8112 34.7109 73.5673 35.1258 73.4604H55.9842L56.2828 73.4605V94.8609V94.8936L56.2904 94.9254C56.6651 96.4841 58.5431 97.4173 60.1518 96.2436C60.5389 95.9612 60.9624 95.6186 61.3647 95.2931L61.3667 95.2916C61.4726 95.206 61.5769 95.1216 61.6786 95.0398C62.1799 94.6371 62.6054 94.3097 62.8795 94.1684C63.6362 93.7912 65.7469 93.2432 67.9564 94.1765C70.1809 95.1161 71.3725 96.8828 71.6809 97.6184L71.6864 97.6314L71.6933 97.6439C72.0798 98.3517 72.6555 100.429 71.8069 103.01C71.7765 103.1 71.7444 103.189 71.7104 103.279C71.2065 104.621 70.261 105.525 69.2726 106.112C68.2808 106.7 67.2584 106.962 66.6327 107.023L66.6269 107.023L66.6213 107.024C65.9264 107.121 64.7576 107.122 63.5453 106.803C62.3346 106.484 61.1024 105.852 60.2438 104.702L60.2303 104.684L60.214 104.669C59.7859 104.257 59.3338 104.062 58.8843 104.042C58.4399 104.022 58.03 104.173 57.6823 104.393C56.9982 104.825 56.4878 105.568 56.3298 106.052L56.3161 106.094V106.095C56.309 106.114 56.3025 106.133 56.2964 106.152L56.2828 106.193V106.237V127.448H15.0122C11.4133 127.081 3.90582 124.103 2.55312 115.112V73.9354V73.4604H23.6513C24.0201 73.5955 24.6272 74.0145 24.9784 74.5677C25.1567 74.8487 25.2579 75.147 25.2442 75.4471C25.2352 75.6438 25.1761 75.8556 25.0389 76.0772ZM57.1786 73.0406V73.0518H78.2697C79.4557 72.7463 80.1603 71.3218 79.2419 70.0669C78.9686 69.6936 78.6384 69.2865 78.3143 68.887L78.3103 68.8822C78.2567 68.816 78.2031 68.7502 78.1502 68.6847L78.0518 68.5629C77.6596 68.0763 77.2898 67.6033 77.1175 67.2693L77.1167 67.2677L77.1159 67.2663C76.6825 66.4007 76.097 64.1209 77.1086 61.7337C78.1093 59.3722 79.9836 58.0888 80.8387 57.7263C81.7292 57.2478 84.1343 56.6331 87.0293 57.717C88.5175 58.2742 89.5115 59.3183 90.1471 60.3858C90.779 61.4471 91.0649 62.5437 91.1341 63.2447C91.2393 64.0056 91.2374 65.2435 90.8986 66.5269C90.5602 67.809 89.8795 69.1581 88.6097 70.1113C88.287 70.4514 88.1646 70.7745 88.1514 71.0651C88.1377 71.3652 88.239 71.6635 88.4173 71.9445C88.7684 72.4977 89.3755 72.9167 89.7442 73.0518H111.218H111.495V73.3279V114.823V114.837L111.493 114.851C111.117 118.588 108.023 126.403 98.648 127.798L98.6276 127.801H98.6072H57.345H56.8359V128H56.5593H14.9982H14.9844L14.9706 127.999C11.2288 127.623 3.40027 124.533 2.00298 115.174L2 115.153V115.133V73.9354V73.3167V73.1842V73.0406V72.9081V31.5451V31.5312L2.00139 31.5174C2.37745 27.7815 5.47175 19.9654 14.8468 18.5703L14.8672 18.5673H14.8876H56.1498H56.9022H57.1787V18.8434V40.2309V40.2747L57.165 40.3165C57.007 40.8002 56.4966 41.5431 55.8125 41.9758C55.4648 42.1959 55.0549 42.3467 54.6105 42.3265C54.161 42.3061 53.7089 42.1119 53.2808 41.6998L53.2645 41.6841L53.251 41.666C52.3924 40.516 51.1601 39.8845 49.9495 39.566C48.7372 39.247 47.5684 39.248 46.8735 39.3446L46.8678 39.3454L46.8621 39.3459C46.2364 39.4067 45.214 39.6682 44.2222 40.2569C43.2337 40.8437 42.2883 41.7474 41.7844 43.0891C40.7513 45.8399 41.3634 48.0831 41.7682 48.8241L41.7751 48.8366L41.7806 48.8497C42.0889 49.5852 43.2805 51.3519 45.5051 52.2916C47.7144 53.2249 49.8252 52.6768 50.582 52.2997C50.856 52.1583 51.2816 51.831 51.7827 51.4283C51.8846 51.3464 51.9889 51.262 52.0947 51.1764L52.0977 51.174C52.4999 50.8486 52.9229 50.5066 53.3095 50.2245C54.9182 49.0507 56.7963 49.9839 57.171 51.5427L57.1787 51.5744V51.6071L57.1786 72.4663V73.0406ZM57.945 104.959C57.4305 105.284 57.0318 105.83 56.8692 106.201V127.249H57.345H98.5866C107.592 125.898 110.574 118.403 110.942 114.809V73.6041H89.6978H89.6539L89.612 73.5905C89.1275 73.4327 88.3836 72.923 87.95 72.24C87.7297 71.8929 87.5786 71.4836 87.5988 71.0399C87.6194 70.5911 87.8139 70.1397 88.2266 69.7123L88.2423 69.6961L88.2603 69.6826C89.4123 68.8253 90.0447 67.595 90.3637 66.3862C90.6833 65.1758 90.6822 64.0089 90.5854 63.3152L90.5846 63.3095L90.5841 63.3037C90.5232 62.6791 90.2613 61.6583 89.6717 60.668C89.084 59.6811 88.1789 58.7372 86.8352 58.2341C84.08 57.2025 81.8332 57.8138 81.0909 58.218L81.0784 58.2247L81.0654 58.2303C80.3286 58.5382 78.5591 59.7278 77.618 61.9489C76.6833 64.1548 77.2322 66.2622 77.61 67.0178C77.7514 67.2914 78.0793 67.7164 78.4827 68.2167C78.5646 68.3183 78.6492 68.4225 78.7349 68.5282C79.0613 68.9304 79.4052 69.354 79.6885 69.7411C80.8639 71.3473 79.9293 73.2224 78.3682 73.5964L78.3363 73.6041H78.3036H56.8693L56.8692 73.9022V94.7276C57.1752 95.9117 58.6021 96.6151 59.8588 95.6981C60.2342 95.4243 60.6439 95.0929 61.0456 94.768C61.153 94.6811 61.2598 94.5947 61.3653 94.51C61.8526 94.1184 62.3265 93.7492 62.6609 93.5772L62.6624 93.5764L62.6639 93.5756C63.5308 93.1428 65.8142 92.5583 68.2052 93.5684C70.5706 94.5674 71.8559 96.4388 72.219 97.2925C72.682 98.1515 73.2725 100.422 72.3325 103.182C72.29 103.311 72.2443 103.442 72.1949 103.573C71.6368 105.059 70.5911 106.051 69.522 106.686C68.459 107.317 67.3606 107.602 66.6585 107.671C65.8964 107.776 64.6565 107.774 63.3711 107.436C62.087 107.098 60.7358 106.419 59.781 105.151C59.4404 104.829 59.1168 104.706 58.8258 104.693C58.5252 104.68 58.2264 104.781 57.945 104.959ZM33.6499 73.8266C33.9789 73.3107 34.5028 72.9216 35.1266 72.7721L35.1585 72.7644H35.1912H56.6255L56.6256 72.4663V51.6409C56.3196 50.4568 54.8927 49.7534 53.636 50.6704C53.2632 50.9423 52.8567 51.271 52.4577 51.5937L52.4492 51.6005C52.3418 51.6874 52.235 51.7738 52.1295 51.8585C51.6422 52.2501 51.1683 52.6194 50.8339 52.7913L50.8324 52.7921L50.8309 52.7929C49.964 53.2257 47.6806 53.8102 45.2896 52.8002C42.9242 51.8011 41.6389 49.9297 41.2758 49.076C40.7966 48.1869 40.1809 45.7856 41.2665 42.8951C41.8246 41.4092 42.8703 40.417 43.9395 39.7823C45.0025 39.1513 46.1009 38.8659 46.8029 38.7969C47.5651 38.6918 48.805 38.6937 50.0904 39.0319C51.3744 39.3698 52.7257 40.0495 53.6805 41.3172C54.021 41.6394 54.3447 41.7616 54.6357 41.7748C54.9363 41.7885 55.2351 41.6875 55.5165 41.5094C56.0706 41.1589 56.4903 40.5527 56.6256 40.1845V19.1196H56.1498H14.9082C5.90276 20.4701 2.92046 27.9657 2.55312 31.559V72.7644H23.797H23.8409L23.8827 72.778C24.3673 72.9359 25.1112 73.4455 25.5447 74.1285C25.7651 74.4756 25.9162 74.8849 25.896 75.3286C25.8796 75.6852 25.7535 76.0434 25.4953 76.39C25.4072 76.5284 25.2989 76.6654 25.1691 76.7999L25.1534 76.8161L25.1352 76.8296C24.6845 77.1651 24.3133 77.5577 24.0093 77.9838C23.5917 78.6094 23.3114 79.2993 23.1311 79.9823C22.8115 81.1927 22.8126 82.3596 22.9094 83.0533L22.9101 83.059L22.9107 83.0648C22.9715 83.6894 23.2335 84.7102 23.8231 85.7005C24.4107 86.6874 25.3159 87.6313 26.6596 88.1344C29.4148 89.166 31.6616 88.5547 32.4038 88.1505L32.4163 88.1438L32.4294 88.1382C32.9908 87.9037 34.152 87.1569 35.0893 85.832C35.344 85.454 35.5792 85.0317 35.7776 84.5634C36.7124 82.3575 36.1634 80.25 35.7857 79.4944C35.6441 79.2208 35.3162 78.7959 34.9129 78.2956C34.8309 78.1939 34.7464 78.0897 34.6607 77.9841C34.3341 77.5817 33.9904 77.1582 33.7072 76.7712C32.9566 75.7458 33.0662 74.6108 33.6499 73.8266Z"/>
</mask>
<path fill-rule="evenodd" clip-rule="evenodd" d="M57.8144 32.6077C57.3351 31.7186 56.7194 29.3173 57.8051 26.4269C58.3632 24.941 59.4089 23.9486 60.4781 23.314C61.541 22.6831 62.6394 22.3977 63.3415 22.3285C64.1036 22.2235 65.3435 22.2254 66.6289 22.5637C67.913 22.9016 69.2642 23.5811 70.219 24.849C70.5596 25.1712 70.8832 25.2933 71.1742 25.3066C71.4748 25.3203 71.7736 25.2191 72.055 25.0411C72.6091 24.6905 73.0288 24.0843 73.1641 23.7162V2.27612V2H73.4407H115.002H115.015L115.029 2.0014C118.771 2.37686 126.6 5.4663 127.997 14.8265L128 14.8469V14.8673V56.0644V56.8155V57.0916H127.723H106.302H106.258L106.216 57.0779C105.732 56.9202 104.988 56.4106 104.554 55.7276C104.334 55.3805 104.183 54.9711 104.203 54.5275C104.224 54.0787 104.418 53.6273 104.831 53.1999L104.847 53.1836L104.865 53.1702C106.017 52.3129 106.649 51.0826 106.968 49.8738C107.288 48.6634 107.287 47.4965 107.19 46.8027L107.189 46.797L107.189 46.7913C107.128 46.1666 106.866 45.1458 106.276 44.1555C105.688 43.1687 104.783 42.2247 103.44 41.7216C100.684 40.6901 98.4376 41.3013 97.6954 41.7055L97.6829 41.7123L97.6697 41.7178C96.9331 42.0257 95.1636 43.2154 94.2224 45.4364C93.2876 47.6423 93.8366 49.7498 94.2143 50.5054C94.3559 50.7789 94.6838 51.2038 95.0871 51.7042C95.1691 51.8059 95.2536 51.91 95.3393 52.0156C95.6659 52.4181 96.0096 52.8416 96.2928 53.2286C97.4684 54.8347 96.5338 56.7098 94.9725 57.0839L94.9408 57.0916H94.908L74.0158 57.0915H73.4407H73.1641V56.8154V35.1726C72.8581 33.9885 71.4313 33.2851 70.1745 34.202C69.7999 34.4754 69.3912 34.8058 68.9903 35.1301L68.9879 35.1321C68.8803 35.2191 68.7736 35.3055 68.6681 35.3902C68.1808 35.7818 67.7068 36.151 67.3724 36.3231L67.3709 36.3238L67.3694 36.3246C66.5025 36.7574 64.2191 37.342 61.8281 36.3319C59.4629 35.3328 58.1774 33.4615 57.8144 32.6077ZM94.8742 56.5394H74.0158L73.7172 56.5393V35.1388V35.1061L73.7096 35.0743C73.3349 33.5157 71.4569 32.5825 69.8482 33.7561C69.4611 34.0385 69.0376 34.3812 68.6353 34.7066L68.6333 34.7082C68.5275 34.7938 68.4231 34.8782 68.3214 34.96C67.8201 35.3627 67.3946 35.6901 67.1205 35.8314C66.3638 36.2085 64.2531 36.7566 62.0436 35.8233C59.8191 34.8837 58.6275 33.117 58.3191 32.3814L58.3136 32.3683L58.3067 32.3559C57.902 31.6147 57.2898 29.3715 58.323 26.6207C58.8269 25.2791 59.7723 24.3754 60.7607 23.7887C61.7525 23.2 62.775 22.9384 63.4006 22.8777L63.4064 22.8771L63.4121 22.8764C64.1069 22.7797 65.2757 22.7786 66.488 23.0977C67.6987 23.4162 68.9309 24.0477 69.7896 25.1978L69.8031 25.2158L69.8193 25.2315C70.2474 25.6436 70.6995 25.8377 71.149 25.8583C71.5934 25.8785 72.0033 25.7276 72.351 25.5076C73.0351 25.0747 73.5455 24.332 73.7036 23.8482L73.7172 23.8065V23.7626V2.55224H114.987C118.587 2.91902 126.094 5.89661 127.447 14.8878V56.0644V56.5394H106.349C105.98 56.4043 105.373 55.9853 105.022 55.432C104.843 55.1511 104.742 54.8527 104.756 54.5526C104.769 54.2621 104.891 53.9389 105.214 53.5989C106.484 52.6456 107.165 51.2965 107.503 50.0145C107.842 48.7311 107.844 47.4932 107.738 46.7322C107.669 46.0313 107.383 44.9347 106.751 43.8734C106.116 42.8059 105.122 41.7618 103.634 41.2046C100.739 40.1206 98.3336 40.7354 97.4431 41.2139C96.5881 41.5763 94.7137 42.8596 93.7131 45.2213C92.7014 47.6085 93.2868 49.8883 93.7204 50.7539L93.7211 50.7553L93.7219 50.7569C93.8942 51.0907 94.264 51.5639 94.6562 52.0504C94.7411 52.1557 94.8276 52.2624 94.9147 52.3696L94.9192 52.3753C95.2431 52.7744 95.5733 53.1814 95.8462 53.5545C96.7646 54.8092 96.0602 56.2339 94.8742 56.5394ZM25.0389 76.0772C25.017 76.1061 24.9936 76.135 24.9688 76.1641C24.9426 76.195 24.9146 76.226 24.8851 76.2572C24.3392 76.667 23.9021 77.15 23.5543 77.6694C23.0371 78.3962 22.7034 79.2033 22.497 79.9852C22.1582 81.2687 22.1562 82.5066 22.2616 83.2676C22.3307 83.9685 22.6165 85.0651 23.2485 86.1264C23.8842 87.1939 24.878 88.238 26.3662 88.7952C29.2612 89.8791 31.6664 89.2644 32.5569 88.7859C33.2294 88.5008 34.5326 87.6461 35.5451 86.145C35.8582 85.7017 36.1471 85.1991 36.3862 84.6348C37.3978 82.2476 36.8123 79.9678 36.3789 79.1022L36.3781 79.1008L36.3773 79.0992C36.205 78.7652 35.8351 78.2922 35.443 77.8056C35.397 77.7484 35.3504 77.6909 35.3035 77.633L35.1845 77.4863L35.1796 77.4804L35.178 77.4784L35.1777 77.478C34.8546 77.0796 34.5254 76.6738 34.2529 76.3016C33.7016 75.5482 33.7352 74.7336 34.1068 74.1368C34.3549 73.8112 34.7109 73.5673 35.1258 73.4604H55.9842L56.2828 73.4605V94.8609V94.8936L56.2904 94.9254C56.6651 96.4841 58.5431 97.4173 60.1518 96.2436C60.5389 95.9612 60.9624 95.6186 61.3647 95.2931L61.3667 95.2916C61.4726 95.206 61.5769 95.1216 61.6786 95.0398C62.1799 94.6371 62.6054 94.3097 62.8795 94.1684C63.6362 93.7912 65.7469 93.2432 67.9564 94.1765C70.1809 95.1161 71.3725 96.8828 71.6809 97.6184L71.6864 97.6314L71.6933 97.6439C72.0798 98.3517 72.6555 100.429 71.8069 103.01C71.7765 103.1 71.7444 103.189 71.7104 103.279C71.2065 104.621 70.261 105.525 69.2726 106.112C68.2808 106.7 67.2584 106.962 66.6327 107.023L66.6269 107.023L66.6213 107.024C65.9264 107.121 64.7576 107.122 63.5453 106.803C62.3346 106.484 61.1024 105.852 60.2438 104.702L60.2303 104.684L60.214 104.669C59.7859 104.257 59.3338 104.062 58.8843 104.042C58.4399 104.022 58.03 104.173 57.6823 104.393C56.9982 104.825 56.4878 105.568 56.3298 106.052L56.3161 106.094V106.095C56.309 106.114 56.3025 106.133 56.2964 106.152L56.2828 106.193V106.237V127.448H15.0122C11.4133 127.081 3.90582 124.103 2.55312 115.112V73.9354V73.4604H23.6513C24.0201 73.5955 24.6272 74.0145 24.9784 74.5677C25.1567 74.8487 25.2579 75.147 25.2442 75.4471C25.2352 75.6438 25.1761 75.8556 25.0389 76.0772ZM57.1786 73.0406V73.0518H78.2697C79.4557 72.7463 80.1603 71.3218 79.2419 70.0669C78.9686 69.6936 78.6384 69.2865 78.3143 68.887L78.3103 68.8822C78.2567 68.816 78.2031 68.7502 78.1502 68.6847L78.0518 68.5629C77.6596 68.0763 77.2898 67.6033 77.1175 67.2693L77.1167 67.2677L77.1159 67.2663C76.6825 66.4007 76.097 64.1209 77.1086 61.7337C78.1093 59.3722 79.9836 58.0888 80.8387 57.7263C81.7292 57.2478 84.1343 56.6331 87.0293 57.717C88.5175 58.2742 89.5115 59.3183 90.1471 60.3858C90.779 61.4471 91.0649 62.5437 91.1341 63.2447C91.2393 64.0056 91.2374 65.2435 90.8986 66.5269C90.5602 67.809 89.8795 69.1581 88.6097 70.1113C88.287 70.4514 88.1646 70.7745 88.1514 71.0651C88.1377 71.3652 88.239 71.6635 88.4173 71.9445C88.7684 72.4977 89.3755 72.9167 89.7442 73.0518H111.218H111.495V73.3279V114.823V114.837L111.493 114.851C111.117 118.588 108.023 126.403 98.648 127.798L98.6276 127.801H98.6072H57.345H56.8359V128H56.5593H14.9982H14.9844L14.9706 127.999C11.2288 127.623 3.40027 124.533 2.00298 115.174L2 115.153V115.133V73.9354V73.3167V73.1842V73.0406V72.9081V31.5451V31.5312L2.00139 31.5174C2.37745 27.7815 5.47175 19.9654 14.8468 18.5703L14.8672 18.5673H14.8876H56.1498H56.9022H57.1787V18.8434V40.2309V40.2747L57.165 40.3165C57.007 40.8002 56.4966 41.5431 55.8125 41.9758C55.4648 42.1959 55.0549 42.3467 54.6105 42.3265C54.161 42.3061 53.7089 42.1119 53.2808 41.6998L53.2645 41.6841L53.251 41.666C52.3924 40.516 51.1601 39.8845 49.9495 39.566C48.7372 39.247 47.5684 39.248 46.8735 39.3446L46.8678 39.3454L46.8621 39.3459C46.2364 39.4067 45.214 39.6682 44.2222 40.2569C43.2337 40.8437 42.2883 41.7474 41.7844 43.0891C40.7513 45.8399 41.3634 48.0831 41.7682 48.8241L41.7751 48.8366L41.7806 48.8497C42.0889 49.5852 43.2805 51.3519 45.5051 52.2916C47.7144 53.2249 49.8252 52.6768 50.582 52.2997C50.856 52.1583 51.2816 51.831 51.7827 51.4283C51.8846 51.3464 51.9889 51.262 52.0947 51.1764L52.0977 51.174C52.4999 50.8486 52.9229 50.5066 53.3095 50.2245C54.9182 49.0507 56.7963 49.9839 57.171 51.5427L57.1787 51.5744V51.6071L57.1786 72.4663V73.0406ZM57.945 104.959C57.4305 105.284 57.0318 105.83 56.8692 106.201V127.249H57.345H98.5866C107.592 125.898 110.574 118.403 110.942 114.809V73.6041H89.6978H89.6539L89.612 73.5905C89.1275 73.4327 88.3836 72.923 87.95 72.24C87.7297 71.8929 87.5786 71.4836 87.5988 71.0399C87.6194 70.5911 87.8139 70.1397 88.2266 69.7123L88.2423 69.6961L88.2603 69.6826C89.4123 68.8253 90.0447 67.595 90.3637 66.3862C90.6833 65.1758 90.6822 64.0089 90.5854 63.3152L90.5846 63.3095L90.5841 63.3037C90.5232 62.6791 90.2613 61.6583 89.6717 60.668C89.084 59.6811 88.1789 58.7372 86.8352 58.2341C84.08 57.2025 81.8332 57.8138 81.0909 58.218L81.0784 58.2247L81.0654 58.2303C80.3286 58.5382 78.5591 59.7278 77.618 61.9489C76.6833 64.1548 77.2322 66.2622 77.61 67.0178C77.7514 67.2914 78.0793 67.7164 78.4827 68.2167C78.5646 68.3183 78.6492 68.4225 78.7349 68.5282C79.0613 68.9304 79.4052 69.354 79.6885 69.7411C80.8639 71.3473 79.9293 73.2224 78.3682 73.5964L78.3363 73.6041H78.3036H56.8693L56.8692 73.9022V94.7276C57.1752 95.9117 58.6021 96.6151 59.8588 95.6981C60.2342 95.4243 60.6439 95.0929 61.0456 94.768C61.153 94.6811 61.2598 94.5947 61.3653 94.51C61.8526 94.1184 62.3265 93.7492 62.6609 93.5772L62.6624 93.5764L62.6639 93.5756C63.5308 93.1428 65.8142 92.5583 68.2052 93.5684C70.5706 94.5674 71.8559 96.4388 72.219 97.2925C72.682 98.1515 73.2725 100.422 72.3325 103.182C72.29 103.311 72.2443 103.442 72.1949 103.573C71.6368 105.059 70.5911 106.051 69.522 106.686C68.459 107.317 67.3606 107.602 66.6585 107.671C65.8964 107.776 64.6565 107.774 63.3711 107.436C62.087 107.098 60.7358 106.419 59.781 105.151C59.4404 104.829 59.1168 104.706 58.8258 104.693C58.5252 104.68 58.2264 104.781 57.945 104.959ZM33.6499 73.8266C33.9789 73.3107 34.5028 72.9216 35.1266 72.7721L35.1585 72.7644H35.1912H56.6255L56.6256 72.4663V51.6409C56.3196 50.4568 54.8927 49.7534 53.636 50.6704C53.2632 50.9423 52.8567 51.271 52.4577 51.5937L52.4492 51.6005C52.3418 51.6874 52.235 51.7738 52.1295 51.8585C51.6422 52.2501 51.1683 52.6194 50.8339 52.7913L50.8324 52.7921L50.8309 52.7929C49.964 53.2257 47.6806 53.8102 45.2896 52.8002C42.9242 51.8011 41.6389 49.9297 41.2758 49.076C40.7966 48.1869 40.1809 45.7856 41.2665 42.8951C41.8246 41.4092 42.8703 40.417 43.9395 39.7823C45.0025 39.1513 46.1009 38.8659 46.8029 38.7969C47.5651 38.6918 48.805 38.6937 50.0904 39.0319C51.3744 39.3698 52.7257 40.0495 53.6805 41.3172C54.021 41.6394 54.3447 41.7616 54.6357 41.7748C54.9363 41.7885 55.2351 41.6875 55.5165 41.5094C56.0706 41.1589 56.4903 40.5527 56.6256 40.1845V19.1196H56.1498H14.9082C5.90276 20.4701 2.92046 27.9657 2.55312 31.559V72.7644H23.797H23.8409L23.8827 72.778C24.3673 72.9359 25.1112 73.4455 25.5447 74.1285C25.7651 74.4756 25.9162 74.8849 25.896 75.3286C25.8796 75.6852 25.7535 76.0434 25.4953 76.39C25.4072 76.5284 25.2989 76.6654 25.1691 76.7999L25.1534 76.8161L25.1352 76.8296C24.6845 77.1651 24.3133 77.5577 24.0093 77.9838C23.5917 78.6094 23.3114 79.2993 23.1311 79.9823C22.8115 81.1927 22.8126 82.3596 22.9094 83.0533L22.9101 83.059L22.9107 83.0648C22.9715 83.6894 23.2335 84.7102 23.8231 85.7005C24.4107 86.6874 25.3159 87.6313 26.6596 88.1344C29.4148 89.166 31.6616 88.5547 32.4038 88.1505L32.4163 88.1438L32.4294 88.1382C32.9908 87.9037 34.152 87.1569 35.0893 85.832C35.344 85.454 35.5792 85.0317 35.7776 84.5634C36.7124 82.3575 36.1634 80.25 35.7857 79.4944C35.6441 79.2208 35.3162 78.7959 34.9129 78.2956C34.8309 78.1939 34.7464 78.0897 34.6607 77.9841C34.3341 77.5817 33.9904 77.1582 33.7072 76.7712C32.9566 75.7458 33.0662 74.6108 33.6499 73.8266Z" fill="#FF7900"/>
<path fill-rule="evenodd" clip-rule="evenodd" d="M57.8144 32.6077C57.3351 31.7186 56.7194 29.3173 57.8051 26.4269C58.3632 24.941 59.4089 23.9486 60.4781 23.314C61.541 22.6831 62.6394 22.3977 63.3415 22.3285C64.1036 22.2235 65.3435 22.2254 66.6289 22.5637C67.913 22.9016 69.2642 23.5811 70.219 24.849C70.5596 25.1712 70.8832 25.2933 71.1742 25.3066C71.4748 25.3203 71.7736 25.2191 72.055 25.0411C72.6091 24.6905 73.0288 24.0843 73.1641 23.7162V2.27612V2H73.4407H115.002H115.015L115.029 2.0014C118.771 2.37686 126.6 5.4663 127.997 14.8265L128 14.8469V14.8673V56.0644V56.8155V57.0916H127.723H106.302H106.258L106.216 57.0779C105.732 56.9202 104.988 56.4106 104.554 55.7276C104.334 55.3805 104.183 54.9711 104.203 54.5275C104.224 54.0787 104.418 53.6273 104.831 53.1999L104.847 53.1836L104.865 53.1702C106.017 52.3129 106.649 51.0826 106.968 49.8738C107.288 48.6634 107.287 47.4965 107.19 46.8027L107.189 46.797L107.189 46.7913C107.128 46.1666 106.866 45.1458 106.276 44.1555C105.688 43.1687 104.783 42.2247 103.44 41.7216C100.684 40.6901 98.4376 41.3013 97.6954 41.7055L97.6829 41.7123L97.6697 41.7178C96.9331 42.0257 95.1636 43.2154 94.2224 45.4364C93.2876 47.6423 93.8366 49.7498 94.2143 50.5054C94.3559 50.7789 94.6838 51.2038 95.0871 51.7042C95.1691 51.8059 95.2536 51.91 95.3393 52.0156C95.6659 52.4181 96.0096 52.8416 96.2928 53.2286C97.4684 54.8347 96.5338 56.7098 94.9725 57.0839L94.9408 57.0916H94.908L74.0158 57.0915H73.4407H73.1641V56.8154V35.1726C72.8581 33.9885 71.4313 33.2851 70.1745 34.202C69.7999 34.4754 69.3912 34.8058 68.9903 35.1301L68.9879 35.1321C68.8803 35.2191 68.7736 35.3055 68.6681 35.3902C68.1808 35.7818 67.7068 36.151 67.3724 36.3231L67.3709 36.3238L67.3694 36.3246C66.5025 36.7574 64.2191 37.342 61.8281 36.3319C59.4629 35.3328 58.1774 33.4615 57.8144 32.6077ZM94.8742 56.5394H74.0158L73.7172 56.5393V35.1388V35.1061L73.7096 35.0743C73.3349 33.5157 71.4569 32.5825 69.8482 33.7561C69.4611 34.0385 69.0376 34.3812 68.6353 34.7066L68.6333 34.7082C68.5275 34.7938 68.4231 34.8782 68.3214 34.96C67.8201 35.3627 67.3946 35.6901 67.1205 35.8314C66.3638 36.2085 64.2531 36.7566 62.0436 35.8233C59.8191 34.8837 58.6275 33.117 58.3191 32.3814L58.3136 32.3683L58.3067 32.3559C57.902 31.6147 57.2898 29.3715 58.323 26.6207C58.8269 25.2791 59.7723 24.3754 60.7607 23.7887C61.7525 23.2 62.775 22.9384 63.4006 22.8777L63.4064 22.8771L63.4121 22.8764C64.1069 22.7797 65.2757 22.7786 66.488 23.0977C67.6987 23.4162 68.9309 24.0477 69.7896 25.1978L69.8031 25.2158L69.8193 25.2315C70.2474 25.6436 70.6995 25.8377 71.149 25.8583C71.5934 25.8785 72.0033 25.7276 72.351 25.5076C73.0351 25.0747 73.5455 24.332 73.7036 23.8482L73.7172 23.8065V23.7626V2.55224H114.987C118.587 2.91902 126.094 5.89661 127.447 14.8878V56.0644V56.5394H106.349C105.98 56.4043 105.373 55.9853 105.022 55.432C104.843 55.1511 104.742 54.8527 104.756 54.5526C104.769 54.2621 104.891 53.9389 105.214 53.5989C106.484 52.6456 107.165 51.2965 107.503 50.0145C107.842 48.7311 107.844 47.4932 107.738 46.7322C107.669 46.0313 107.383 44.9347 106.751 43.8734C106.116 42.8059 105.122 41.7618 103.634 41.2046C100.739 40.1206 98.3336 40.7354 97.4431 41.2139C96.5881 41.5763 94.7137 42.8596 93.7131 45.2213C92.7014 47.6085 93.2868 49.8883 93.7204 50.7539L93.7211 50.7553L93.7219 50.7569C93.8942 51.0907 94.264 51.5639 94.6562 52.0504C94.7411 52.1557 94.8276 52.2624 94.9147 52.3696L94.9192 52.3753C95.2431 52.7744 95.5733 53.1814 95.8462 53.5545C96.7646 54.8092 96.0602 56.2339 94.8742 56.5394ZM25.0389 76.0772C25.017 76.1061 24.9936 76.135 24.9688 76.1641C24.9426 76.195 24.9146 76.226 24.8851 76.2572C24.3392 76.667 23.9021 77.15 23.5543 77.6694C23.0371 78.3962 22.7034 79.2033 22.497 79.9852C22.1582 81.2687 22.1562 82.5066 22.2616 83.2676C22.3307 83.9685 22.6165 85.0651 23.2485 86.1264C23.8842 87.1939 24.878 88.238 26.3662 88.7952C29.2612 89.8791 31.6664 89.2644 32.5569 88.7859C33.2294 88.5008 34.5326 87.6461 35.5451 86.145C35.8582 85.7017 36.1471 85.1991 36.3862 84.6348C37.3978 82.2476 36.8123 79.9678 36.3789 79.1022L36.3781 79.1008L36.3773 79.0992C36.205 78.7652 35.8351 78.2922 35.443 77.8056C35.397 77.7484 35.3504 77.6909 35.3035 77.633L35.1845 77.4863L35.1796 77.4804L35.178 77.4784L35.1777 77.478C34.8546 77.0796 34.5254 76.6738 34.2529 76.3016C33.7016 75.5482 33.7352 74.7336 34.1068 74.1368C34.3549 73.8112 34.7109 73.5673 35.1258 73.4604H55.9842L56.2828 73.4605V94.8609V94.8936L56.2904 94.9254C56.6651 96.4841 58.5431 97.4173 60.1518 96.2436C60.5389 95.9612 60.9624 95.6186 61.3647 95.2931L61.3667 95.2916C61.4726 95.206 61.5769 95.1216 61.6786 95.0398C62.1799 94.6371 62.6054 94.3097 62.8795 94.1684C63.6362 93.7912 65.7469 93.2432 67.9564 94.1765C70.1809 95.1161 71.3725 96.8828 71.6809 97.6184L71.6864 97.6314L71.6933 97.6439C72.0798 98.3517 72.6555 100.429 71.8069 103.01C71.7765 103.1 71.7444 103.189 71.7104 103.279C71.2065 104.621 70.261 105.525 69.2726 106.112C68.2808 106.7 67.2584 106.962 66.6327 107.023L66.6269 107.023L66.6213 107.024C65.9264 107.121 64.7576 107.122 63.5453 106.803C62.3346 106.484 61.1024 105.852 60.2438 104.702L60.2303 104.684L60.214 104.669C59.7859 104.257 59.3338 104.062 58.8843 104.042C58.4399 104.022 58.03 104.173 57.6823 104.393C56.9982 104.825 56.4878 105.568 56.3298 106.052L56.3161 106.094V106.095C56.309 106.114 56.3025 106.133 56.2964 106.152L56.2828 106.193V106.237V127.448H15.0122C11.4133 127.081 3.90582 124.103 2.55312 115.112V73.9354V73.4604H23.6513C24.0201 73.5955 24.6272 74.0145 24.9784 74.5677C25.1567 74.8487 25.2579 75.147 25.2442 75.4471C25.2352 75.6438 25.1761 75.8556 25.0389 76.0772ZM57.1786 73.0406V73.0518H78.2697C79.4557 72.7463 80.1603 71.3218 79.2419 70.0669C78.9686 69.6936 78.6384 69.2865 78.3143 68.887L78.3103 68.8822C78.2567 68.816 78.2031 68.7502 78.1502 68.6847L78.0518 68.5629C77.6596 68.0763 77.2898 67.6033 77.1175 67.2693L77.1167 67.2677L77.1159 67.2663C76.6825 66.4007 76.097 64.1209 77.1086 61.7337C78.1093 59.3722 79.9836 58.0888 80.8387 57.7263C81.7292 57.2478 84.1343 56.6331 87.0293 57.717C88.5175 58.2742 89.5115 59.3183 90.1471 60.3858C90.779 61.4471 91.0649 62.5437 91.1341 63.2447C91.2393 64.0056 91.2374 65.2435 90.8986 66.5269C90.5602 67.809 89.8795 69.1581 88.6097 70.1113C88.287 70.4514 88.1646 70.7745 88.1514 71.0651C88.1377 71.3652 88.239 71.6635 88.4173 71.9445C88.7684 72.4977 89.3755 72.9167 89.7442 73.0518H111.218H111.495V73.3279V114.823V114.837L111.493 114.851C111.117 118.588 108.023 126.403 98.648 127.798L98.6276 127.801H98.6072H57.345H56.8359V128H56.5593H14.9982H14.9844L14.9706 127.999C11.2288 127.623 3.40027 124.533 2.00298 115.174L2 115.153V115.133V73.9354V73.3167V73.1842V73.0406V72.9081V31.5451V31.5312L2.00139 31.5174C2.37745 27.7815 5.47175 19.9654 14.8468 18.5703L14.8672 18.5673H14.8876H56.1498H56.9022H57.1787V18.8434V40.2309V40.2747L57.165 40.3165C57.007 40.8002 56.4966 41.5431 55.8125 41.9758C55.4648 42.1959 55.0549 42.3467 54.6105 42.3265C54.161 42.3061 53.7089 42.1119 53.2808 41.6998L53.2645 41.6841L53.251 41.666C52.3924 40.516 51.1601 39.8845 49.9495 39.566C48.7372 39.247 47.5684 39.248 46.8735 39.3446L46.8678 39.3454L46.8621 39.3459C46.2364 39.4067 45.214 39.6682 44.2222 40.2569C43.2337 40.8437 42.2883 41.7474 41.7844 43.0891C40.7513 45.8399 41.3634 48.0831 41.7682 48.8241L41.7751 48.8366L41.7806 48.8497C42.0889 49.5852 43.2805 51.3519 45.5051 52.2916C47.7144 53.2249 49.8252 52.6768 50.582 52.2997C50.856 52.1583 51.2816 51.831 51.7827 51.4283C51.8846 51.3464 51.9889 51.262 52.0947 51.1764L52.0977 51.174C52.4999 50.8486 52.9229 50.5066 53.3095 50.2245C54.9182 49.0507 56.7963 49.9839 57.171 51.5427L57.1787 51.5744V51.6071L57.1786 72.4663V73.0406ZM57.945 104.959C57.4305 105.284 57.0318 105.83 56.8692 106.201V127.249H57.345H98.5866C107.592 125.898 110.574 118.403 110.942 114.809V73.6041H89.6978H89.6539L89.612 73.5905C89.1275 73.4327 88.3836 72.923 87.95 72.24C87.7297 71.8929 87.5786 71.4836 87.5988 71.0399C87.6194 70.5911 87.8139 70.1397 88.2266 69.7123L88.2423 69.6961L88.2603 69.6826C89.4123 68.8253 90.0447 67.595 90.3637 66.3862C90.6833 65.1758 90.6822 64.0089 90.5854 63.3152L90.5846 63.3095L90.5841 63.3037C90.5232 62.6791 90.2613 61.6583 89.6717 60.668C89.084 59.6811 88.1789 58.7372 86.8352 58.2341C84.08 57.2025 81.8332 57.8138 81.0909 58.218L81.0784 58.2247L81.0654 58.2303C80.3286 58.5382 78.5591 59.7278 77.618 61.9489C76.6833 64.1548 77.2322 66.2622 77.61 67.0178C77.7514 67.2914 78.0793 67.7164 78.4827 68.2167C78.5646 68.3183 78.6492 68.4225 78.7349 68.5282C79.0613 68.9304 79.4052 69.354 79.6885 69.7411C80.8639 71.3473 79.9293 73.2224 78.3682 73.5964L78.3363 73.6041H78.3036H56.8693L56.8692 73.9022V94.7276C57.1752 95.9117 58.6021 96.6151 59.8588 95.6981C60.2342 95.4243 60.6439 95.0929 61.0456 94.768C61.153 94.6811 61.2598 94.5947 61.3653 94.51C61.8526 94.1184 62.3265 93.7492 62.6609 93.5772L62.6624 93.5764L62.6639 93.5756C63.5308 93.1428 65.8142 92.5583 68.2052 93.5684C70.5706 94.5674 71.8559 96.4388 72.219 97.2925C72.682 98.1515 73.2725 100.422 72.3325 103.182C72.29 103.311 72.2443 103.442 72.1949 103.573C71.6368 105.059 70.5911 106.051 69.522 106.686C68.459 107.317 67.3606 107.602 66.6585 107.671C65.8964 107.776 64.6565 107.774 63.3711 107.436C62.087 107.098 60.7358 106.419 59.781 105.151C59.4404 104.829 59.1168 104.706 58.8258 104.693C58.5252 104.68 58.2264 104.781 57.945 104.959ZM33.6499 73.8266C33.9789 73.3107 34.5028 72.9216 35.1266 72.7721L35.1585 72.7644H35.1912H56.6255L56.6256 72.4663V51.6409C56.3196 50.4568 54.8927 49.7534 53.636 50.6704C53.2632 50.9423 52.8567 51.271 52.4577 51.5937L52.4492 51.6005C52.3418 51.6874 52.235 51.7738 52.1295 51.8585C51.6422 52.2501 51.1683 52.6194 50.8339 52.7913L50.8324 52.7921L50.8309 52.7929C49.964 53.2257 47.6806 53.8102 45.2896 52.8002C42.9242 51.8011 41.6389 49.9297 41.2758 49.076C40.7966 48.1869 40.1809 45.7856 41.2665 42.8951C41.8246 41.4092 42.8703 40.417 43.9395 39.7823C45.0025 39.1513 46.1009 38.8659 46.8029 38.7969C47.5651 38.6918 48.805 38.6937 50.0904 39.0319C51.3744 39.3698 52.7257 40.0495 53.6805 41.3172C54.021 41.6394 54.3447 41.7616 54.6357 41.7748C54.9363 41.7885 55.2351 41.6875 55.5165 41.5094C56.0706 41.1589 56.4903 40.5527 56.6256 40.1845V19.1196H56.1498H14.9082C5.90276 20.4701 2.92046 27.9657 2.55312 31.559V72.7644H23.797H23.8409L23.8827 72.778C24.3673 72.9359 25.1112 73.4455 25.5447 74.1285C25.7651 74.4756 25.9162 74.8849 25.896 75.3286C25.8796 75.6852 25.7535 76.0434 25.4953 76.39C25.4072 76.5284 25.2989 76.6654 25.1691 76.7999L25.1534 76.8161L25.1352 76.8296C24.6845 77.1651 24.3133 77.5577 24.0093 77.9838C23.5917 78.6094 23.3114 79.2993 23.1311 79.9823C22.8115 81.1927 22.8126 82.3596 22.9094 83.0533L22.9101 83.059L22.9107 83.0648C22.9715 83.6894 23.2335 84.7102 23.8231 85.7005C24.4107 86.6874 25.3159 87.6313 26.6596 88.1344C29.4148 89.166 31.6616 88.5547 32.4038 88.1505L32.4163 88.1438L32.4294 88.1382C32.9908 87.9037 34.152 87.1569 35.0893 85.832C35.344 85.454 35.5792 85.0317 35.7776 84.5634C36.7124 82.3575 36.1634 80.25 35.7857 79.4944C35.6441 79.2208 35.3162 78.7959 34.9129 78.2956C34.8309 78.1939 34.7464 78.0897 34.6607 77.9841C34.3341 77.5817 33.9904 77.1582 33.7072 76.7712C32.9566 75.7458 33.0662 74.6108 33.6499 73.8266Z" stroke="#FF7900" stroke-width="2" mask="url(#path-1-outside-1_2228_9311)"/>
<path fill-rule="evenodd" clip-rule="evenodd" d="M73.7892 45.6899C73.7892 33.6145 73.8475 34.2379 72.6522 33.5384C71.9325 33.1174 71.1376 33.0579 70.3966 33.3697C70.1271 33.4831 69.29 34.0653 68.5363 34.6635C66.8413 36.0089 66.099 36.2665 64.1813 36.1749C62.9968 36.1184 62.7079 36.0433 61.6898 35.5273C60.1966 34.7706 58.7494 33.2852 58.2531 31.9999C57.8385 30.926 57.7605 28.7928 58.0928 27.6149C58.819 25.0408 60.7239 23.3619 63.338 22.9923C65.648 22.6657 67.6957 23.3254 69.4605 24.9645C70.3539 25.7943 70.488 25.8668 71.1309 25.8668C71.9141 25.8668 72.2964 25.7091 72.9273 25.1261C73.8286 24.2933 73.7892 24.8357 73.7892 13.2569V2.60815H94.4767H115.164L116.634 2.98035C122.013 4.34271 126.009 8.48871 127.163 13.9054C127.35 14.7816 127.384 18.1403 127.384 35.6818V56.4222H116.849H106.315L105.825 56.0871C105.556 55.9028 105.226 55.5673 105.093 55.3415C104.667 54.6217 104.782 54.2384 105.708 53.2911C108.577 50.3568 108.581 45.1824 105.715 42.4764C104.758 41.5726 104.044 41.1834 102.709 40.8382C101.484 40.5212 99.3148 40.518 98.2347 40.8315C96.5148 41.3307 94.7512 42.9167 93.8321 44.7906C93.3128 45.8497 93.1341 46.6841 93.1296 48.0716C93.1233 50.0229 93.456 50.7426 95.5908 53.3949C95.8993 53.7782 96.08 54.2006 96.1318 54.6601C96.2034 55.2936 96.1659 55.3935 95.6727 55.886L95.1357 56.4222H84.4624H73.7892V45.6899Z" fill="#FF7900"/>
</svg>
