<svg width="129" height="129" viewBox="0 0 129 129" fill="none" xmlns="http://www.w3.org/2000/svg">
<mask id="path-1-outside-1_2228_9317" maskUnits="userSpaceOnUse" x="-2.82843" y="-1.71586" width="133.643" height="133.643" fill="black">
<rect fill="white" x="-2.82843" y="-1.71586" width="133.643" height="133.643"/>
<path fill-rule="evenodd" clip-rule="evenodd" d="M103.373 34.727L35.5576 102.542C30.3321 100.908 27.6465 96.1538 26.9134 93.8461L94.7232 26.0362C97.8432 28.7803 100.9 31.9578 103.373 34.727ZM36.1109 106.481C35.5196 105.481 35.2878 104.326 35.9239 103.129L103.821 35.2315C105.141 36.7259 106.276 38.0811 107.137 39.1565L37.8785 108.415C37.2669 107.949 36.5806 107.275 36.1109 106.481ZM26.2646 93.5421C25.3756 93.6722 23.2405 93.3787 20.6782 91.0301L89.6414 22.0668C91.133 23.0597 92.6778 24.2683 94.214 25.5928L26.2646 93.5421ZM19.9498 90.8057L20.1916 90.5639L100.343 10.4123L104.019 6.73602C105.456 5.07698 109.047 2.05101 111.919 3.21953C115.508 4.68017 124.662 12.7706 125.686 16.9869C126.505 20.36 123.747 23.7217 122.265 24.9814L118.832 28.4138L118.589 28.6576L108.045 39.201L107.802 39.4445L38.1951 109.051L37.8017 109.202L10.2386 119.799L9.40538 120.119L9.70745 119.28L19.8221 91.1606L19.9498 90.8057ZM20.3592 91.6636L14.0005 109.341C14.8216 109.774 15.9918 110.524 17.1124 111.514C18.2682 112.535 19.3941 113.83 20.0154 115.317L37.1679 108.722C36.5832 108.233 35.9711 107.587 35.5253 106.833C34.9034 105.782 34.5912 104.489 35.1729 103.135C29.8975 101.403 27.1504 96.6753 26.3181 94.2188C25.167 94.3733 22.9227 93.9528 20.3592 91.6636ZM107.623 38.67L117.924 28.3699C114.546 24.1531 106.975 15.6378 100.428 11.2805L90.1343 21.574C96.7137 25.9922 104.231 34.4429 107.623 38.67ZM100.921 10.7871C107.501 15.2053 115.018 23.6557 118.41 27.8833L121.788 24.505L121.809 24.4847L121.83 24.467C122.515 23.8846 123.516 22.7945 124.243 21.459C124.971 20.1221 125.381 18.6186 125.026 17.1569C124.804 16.2444 124.113 15.0387 123.068 13.6816C122.035 12.3417 120.707 10.9151 119.291 9.56493C117.876 8.21574 116.385 6.95233 115.028 5.94026C113.661 4.91899 112.47 4.18143 111.654 3.84911C110.509 3.38245 109.133 3.72475 107.76 4.50598C106.408 5.27599 105.209 6.39138 104.529 7.17631L104.513 7.19499L104.496 7.2124L100.921 10.7871Z"/>
</mask>
<path fill-rule="evenodd" clip-rule="evenodd" d="M103.373 34.727L35.5576 102.542C30.3321 100.908 27.6465 96.1538 26.9134 93.8461L94.7232 26.0362C97.8432 28.7803 100.9 31.9578 103.373 34.727ZM36.1109 106.481C35.5196 105.481 35.2878 104.326 35.9239 103.129L103.821 35.2315C105.141 36.7259 106.276 38.0811 107.137 39.1565L37.8785 108.415C37.2669 107.949 36.5806 107.275 36.1109 106.481ZM26.2646 93.5421C25.3756 93.6722 23.2405 93.3787 20.6782 91.0301L89.6414 22.0668C91.133 23.0597 92.6778 24.2683 94.214 25.5928L26.2646 93.5421ZM19.9498 90.8057L20.1916 90.5639L100.343 10.4123L104.019 6.73602C105.456 5.07698 109.047 2.05101 111.919 3.21953C115.508 4.68017 124.662 12.7706 125.686 16.9869C126.505 20.36 123.747 23.7217 122.265 24.9814L118.832 28.4138L118.589 28.6576L108.045 39.201L107.802 39.4445L38.1951 109.051L37.8017 109.202L10.2386 119.799L9.40538 120.119L9.70745 119.28L19.8221 91.1606L19.9498 90.8057ZM20.3592 91.6636L14.0005 109.341C14.8216 109.774 15.9918 110.524 17.1124 111.514C18.2682 112.535 19.3941 113.83 20.0154 115.317L37.1679 108.722C36.5832 108.233 35.9711 107.587 35.5253 106.833C34.9034 105.782 34.5912 104.489 35.1729 103.135C29.8975 101.403 27.1504 96.6753 26.3181 94.2188C25.167 94.3733 22.9227 93.9528 20.3592 91.6636ZM107.623 38.67L117.924 28.3699C114.546 24.1531 106.975 15.6378 100.428 11.2805L90.1343 21.574C96.7137 25.9922 104.231 34.4429 107.623 38.67ZM100.921 10.7871C107.501 15.2053 115.018 23.6557 118.41 27.8833L121.788 24.505L121.809 24.4847L121.83 24.467C122.515 23.8846 123.516 22.7945 124.243 21.459C124.971 20.1221 125.381 18.6186 125.026 17.1569C124.804 16.2444 124.113 15.0387 123.068 13.6816C122.035 12.3417 120.707 10.9151 119.291 9.56493C117.876 8.21574 116.385 6.95233 115.028 5.94026C113.661 4.91899 112.47 4.18143 111.654 3.84911C110.509 3.38245 109.133 3.72475 107.76 4.50598C106.408 5.27599 105.209 6.39138 104.529 7.17631L104.513 7.19499L104.496 7.2124L100.921 10.7871Z" fill="#FF7900"/>
<path d="M35.5576 102.542L35.2592 103.497L35.8368 103.677L36.2647 103.249L35.5576 102.542ZM103.373 34.727L104.08 35.4341L104.748 34.7658L104.119 34.0608L103.373 34.727ZM26.9134 93.8461L26.2063 93.139L25.7762 93.5691L25.9603 94.1488L26.9134 93.8461ZM94.7232 26.0362L95.3836 25.2854L94.6793 24.6659L94.0161 25.3291L94.7232 26.0362ZM35.9239 103.129L35.2168 102.421L35.111 102.527L35.0408 102.659L35.9239 103.129ZM36.1109 106.481L35.2502 106.99L35.2502 106.99L36.1109 106.481ZM103.821 35.2315L104.57 34.5694L103.866 33.7722L103.114 34.5244L103.821 35.2315ZM107.137 39.1565L107.844 39.8636L108.477 39.2304L107.917 38.5314L107.137 39.1565ZM37.8785 108.415L37.272 109.21L37.9673 109.74L38.5856 109.122L37.8785 108.415ZM20.6782 91.0301L19.971 90.323L19.2325 91.0616L20.0025 91.7673L20.6782 91.0301ZM26.2646 93.5421L26.4094 94.5315L26.7374 94.4836L26.9717 94.2492L26.2646 93.5421ZM89.6414 22.0668L90.1956 21.2344L89.5136 20.7804L88.9343 21.3597L89.6414 22.0668ZM94.214 25.5928L94.9211 26.2999L95.6824 25.5385L94.867 24.8354L94.214 25.5928ZM20.1916 90.5639L20.8987 91.271L20.1916 90.5639ZM19.9498 90.8057L19.2427 90.0986L19.0845 90.2568L19.0088 90.4673L19.9498 90.8057ZM100.343 10.4123L99.6361 9.70515L100.343 10.4123ZM104.019 6.73602L104.727 7.44313L104.752 7.41777L104.775 7.39066L104.019 6.73602ZM111.919 3.21953L111.542 4.14576L111.542 4.14576L111.919 3.21953ZM125.686 16.9869L124.714 17.2229L124.714 17.2229L125.686 16.9869ZM122.265 24.9814L121.617 24.2194L121.586 24.2456L121.558 24.2743L122.265 24.9814ZM108.045 39.201L108.752 39.9081L108.045 39.201ZM107.802 39.4445L107.095 38.7374L107.802 39.4445ZM38.1951 109.051L38.5539 109.984L38.7521 109.908L38.9022 109.758L38.1951 109.051ZM37.8017 109.202L37.4429 108.269L37.4428 108.269L37.8017 109.202ZM10.2386 119.799L10.5974 120.733L10.5975 120.733L10.2386 119.799ZM9.40538 120.119L8.46441 119.781L7.72492 121.837L9.76418 121.053L9.40538 120.119ZM9.70745 119.28L10.6484 119.618L10.6484 119.618L9.70745 119.28ZM19.8221 91.1606L20.7631 91.4991L20.7631 91.4991L19.8221 91.1606ZM14.0005 109.341L13.0596 109.002L12.7655 109.82L13.5339 110.225L14.0005 109.341ZM20.3592 91.6636L21.0252 90.9177L19.9198 89.9306L19.4182 91.3252L20.3592 91.6636ZM17.1124 111.514L16.4504 112.264L16.4504 112.264L17.1124 111.514ZM20.0154 115.317L19.0928 115.702L19.4675 116.599L20.3743 116.25L20.0154 115.317ZM37.1679 108.722L37.5267 109.656L39.1131 109.046L37.8095 107.955L37.1679 108.722ZM35.5253 106.833L36.3861 106.324L36.3861 106.324L35.5253 106.833ZM35.1729 103.135L36.0917 103.53L36.5229 102.526L35.4848 102.185L35.1729 103.135ZM26.3181 94.2188L27.2652 93.8979L27.001 93.1181L26.185 93.2277L26.3181 94.2188ZM117.924 28.3699L118.631 29.077L119.264 28.4438L118.704 27.7448L117.924 28.3699ZM107.623 38.67L106.843 39.2959L107.542 40.166L108.331 39.3771L107.623 38.67ZM100.428 11.2805L100.982 10.4479L100.3 9.99414L99.7207 10.5733L100.428 11.2805ZM90.1343 21.574L89.4271 20.8669L88.5676 21.7265L89.5768 22.4042L90.1343 21.574ZM118.41 27.8833L117.63 28.509L118.328 29.3793L119.117 28.5904L118.41 27.8833ZM100.921 10.7871L100.214 10.08L99.3545 10.9395L100.364 11.6172L100.921 10.7871ZM121.809 24.4847L121.163 23.7211L121.131 23.7481L121.102 23.7776L121.809 24.4847ZM121.83 24.467L122.475 25.2305L122.477 25.2289L121.83 24.467ZM124.243 21.459L125.122 21.9372L125.122 21.937L124.243 21.459ZM125.026 17.1569L125.998 16.9209L125.998 16.9208L125.026 17.1569ZM123.068 13.6816L122.275 14.2919L122.275 14.2919L123.068 13.6816ZM119.291 9.56493L119.982 8.84122L119.982 8.8412L119.291 9.56493ZM115.028 5.94026L114.43 6.74151L114.43 6.74176L115.028 5.94026ZM111.654 3.84911L111.277 4.77525L111.277 4.77526L111.654 3.84911ZM107.76 4.50598L107.266 3.63694L107.266 3.63694L107.76 4.50598ZM104.529 7.17631L103.773 6.52165L103.773 6.52214L104.529 7.17631ZM104.513 7.19499L105.22 7.90209L105.246 7.87651L105.27 7.84916L104.513 7.19499ZM36.2647 103.249L104.08 35.4341L102.666 34.0199L34.8505 101.835L36.2647 103.249ZM25.9603 94.1488C26.7491 96.6316 29.6072 101.729 35.2592 103.497L35.856 101.588C31.057 100.087 28.544 95.6759 27.8665 93.5433L25.9603 94.1488ZM94.0161 25.3291L26.2063 93.139L27.6205 94.5532L95.4303 26.7434L94.0161 25.3291ZM104.119 34.0608C101.629 31.2733 98.5436 28.0645 95.3836 25.2854L94.0628 26.7871C97.1429 29.4961 100.17 32.6423 102.627 35.3931L104.119 34.0608ZM35.0408 102.659C34.1943 104.252 34.5391 105.788 35.2502 106.99L36.9717 105.972C36.5 105.174 36.3813 104.399 36.807 103.598L35.0408 102.659ZM103.114 34.5244L35.2168 102.421L36.631 103.836L104.528 35.9386L103.114 34.5244ZM107.917 38.5314C107.045 37.4425 105.901 36.075 104.57 34.5694L103.072 35.8936C104.382 37.3768 105.506 38.7196 106.356 39.7816L107.917 38.5314ZM38.5856 109.122L107.844 39.8636L106.43 38.4494L37.1714 107.708L38.5856 109.122ZM35.2502 106.99C35.8037 107.926 36.591 108.691 37.272 109.21L38.4849 107.62C37.9428 107.206 37.3576 106.625 36.9716 105.972L35.2502 106.99ZM20.0025 91.7673C22.729 94.2663 25.1535 94.7153 26.4094 94.5315L26.1199 92.5526C25.5978 92.629 23.752 92.491 21.3538 90.2929L20.0025 91.7673ZM88.9343 21.3597L19.971 90.323L21.3853 91.7372L90.3486 22.7739L88.9343 21.3597ZM94.867 24.8354C93.3095 23.4925 91.7311 22.2566 90.1956 21.2344L89.0873 22.8992C90.5349 23.8629 92.0462 25.0441 93.561 26.3501L94.867 24.8354ZM26.9717 94.2492L94.9211 26.2999L93.5068 24.8857L25.5575 92.835L26.9717 94.2492ZM19.4845 89.8568L19.2427 90.0986L20.6569 91.5128L20.8987 91.271L19.4845 89.8568ZM99.6361 9.70515L19.4845 89.8568L20.8987 91.271L101.05 11.1194L99.6361 9.70515ZM103.312 6.02891L99.6361 9.70515L101.05 11.1194L104.727 7.44313L103.312 6.02891ZM112.296 2.2933C110.429 1.53376 108.462 2.17998 106.936 3.04843C105.38 3.93486 104.038 5.18754 103.264 6.08138L104.775 7.39066C105.438 6.62546 106.61 5.53563 107.926 4.78645C109.273 4.01929 110.537 3.73679 111.542 4.14576L112.296 2.2933ZM126.658 16.751C126.351 15.4855 125.478 14.0522 124.4 12.6522C123.302 11.2265 121.912 9.73622 120.454 8.34612C118.995 6.95459 117.452 5.64834 116.038 4.59273C114.642 3.55013 113.314 2.70792 112.296 2.2933L111.542 4.14576C112.317 4.46146 113.48 5.17828 114.842 6.19521C116.186 7.19911 117.668 8.45284 119.074 9.79353C120.482 11.1357 121.797 12.5498 122.815 13.8725C123.854 15.221 124.51 16.3802 124.714 17.2229L126.658 16.751ZM122.912 25.7433C123.734 25.0451 124.878 23.7965 125.717 22.2546C126.553 20.7171 127.148 18.7704 126.658 16.7509L124.714 17.2229C125.043 18.5765 124.668 19.9972 123.96 21.2987C123.254 22.5959 122.278 23.658 121.617 24.2194L122.912 25.7433ZM119.539 29.1209L122.972 25.6885L121.558 24.2743L118.125 27.7067L119.539 29.1209ZM119.296 29.3647L119.539 29.1209L118.125 27.7067L117.881 27.9505L119.296 29.3647ZM108.752 39.9081L119.296 29.3647L117.881 27.9505L107.338 38.4939L108.752 39.9081ZM108.509 40.1516L108.752 39.9081L107.338 38.4939L107.095 38.7374L108.509 40.1516ZM38.9022 109.758L108.509 40.1516L107.095 38.7374L37.488 108.344L38.9022 109.758ZM38.1605 110.136L38.5539 109.984L37.8363 108.118L37.4429 108.269L38.1605 110.136ZM10.5975 120.733L38.1605 110.136L37.4428 108.269L9.87977 118.866L10.5975 120.733ZM9.76418 121.053L10.5974 120.733L9.87982 118.866L9.04658 119.186L9.76418 121.053ZM8.76648 118.941L8.46441 119.781L10.3464 120.458L10.6484 119.618L8.76648 118.941ZM18.8811 90.8222L8.76648 118.941L10.6484 119.618L20.7631 91.4991L18.8811 90.8222ZM19.0088 90.4673L18.8811 90.8222L20.7631 91.4991L20.8908 91.1442L19.0088 90.4673ZM14.9415 109.679L21.3001 92.0021L19.4182 91.3252L13.0596 109.002L14.9415 109.679ZM17.7743 110.765C16.589 109.718 15.352 108.923 14.4672 108.456L13.5339 110.225C14.2912 110.625 15.3946 111.331 16.4504 112.264L17.7743 110.765ZM20.9381 114.931C20.2362 113.252 18.9901 111.838 17.7743 110.765L16.4504 112.264C17.5463 113.231 18.5521 114.409 19.0928 115.702L20.9381 114.931ZM36.809 107.789L19.6566 114.383L20.3743 116.25L37.5267 109.656L36.809 107.789ZM34.6645 107.342C35.1829 108.219 35.8797 108.948 36.5263 109.489L37.8095 107.955C37.2867 107.518 36.7594 106.956 36.3861 106.324L34.6645 107.342ZM34.254 102.74C33.5089 104.475 33.9356 106.11 34.6645 107.342L36.3861 106.324C35.8713 105.454 35.6735 104.503 36.0917 103.53L34.254 102.74ZM25.371 94.5396C26.2599 97.1635 29.1761 102.218 34.8609 104.085L35.4848 102.185C30.6188 100.587 28.0408 96.1872 27.2652 93.8979L25.371 94.5396ZM19.6931 92.4095C22.4164 94.8414 24.9416 95.4125 26.4512 95.2099L26.185 93.2277C25.3924 93.3341 23.4289 93.0642 21.0252 90.9177L19.6931 92.4095ZM117.216 27.6628L106.916 37.9629L108.331 39.3771L118.631 29.077L117.216 27.6628ZM99.8738 12.113C106.285 16.3796 113.776 24.7909 117.143 28.995L118.704 27.7448C115.317 23.5152 107.666 14.896 100.982 10.4479L99.8738 12.113ZM90.8414 22.2811L101.135 11.9876L99.7207 10.5733L89.4271 20.8669L90.8414 22.2811ZM108.403 38.0442C105.001 33.8036 97.4044 25.2515 90.6917 20.7438L89.5768 22.4042C96.023 26.733 103.462 35.0821 106.843 39.2959L108.403 38.0442ZM119.19 27.2575C115.788 23.0164 108.191 14.4645 101.479 9.95687L100.364 11.6172C106.81 15.946 114.249 24.295 117.63 28.509L119.19 27.2575ZM121.081 23.7979L117.703 27.1762L119.117 28.5904L122.496 25.2121L121.081 23.7979ZM121.102 23.7776L121.081 23.7979L122.496 25.2121L122.516 25.1918L121.102 23.7776ZM121.184 23.7034L121.163 23.7211L122.454 25.2483L122.475 25.2305L121.184 23.7034ZM123.365 20.9809C122.704 22.1942 121.787 23.1911 121.182 23.705L122.477 25.2289C123.243 24.5781 124.328 23.3949 125.122 21.9372L123.365 20.9809ZM124.054 17.3929C124.328 18.5221 124.028 19.7627 123.365 20.981L125.122 21.937C125.914 20.4815 126.433 18.7152 125.998 16.9209L124.054 17.3929ZM122.275 14.2919C123.301 15.6228 123.884 16.6917 124.054 17.393L125.998 16.9208C125.725 15.7972 124.926 14.4546 123.86 13.0713L122.275 14.2919ZM118.601 10.2886C119.992 11.6149 121.283 13.0035 122.275 14.2919L123.86 13.0713C122.788 11.6799 121.423 10.2152 119.982 8.84122L118.601 10.2886ZM114.43 6.74176C115.752 7.72757 117.213 8.96455 118.601 10.2887L119.982 8.8412C118.54 7.46692 117.018 6.17709 115.626 5.13876L114.43 6.74176ZM111.277 4.77526C111.972 5.05815 113.08 5.73312 114.43 6.74151L115.627 5.13901C114.242 4.10485 112.969 3.3047 112.031 2.92297L111.277 4.77526ZM108.255 5.37501C109.537 4.64505 110.561 4.48375 111.277 4.77525L112.032 2.92298C110.456 2.28115 108.728 2.80444 107.266 3.63694L108.255 5.37501ZM105.285 7.83097C105.909 7.1103 107.023 6.07637 108.255 5.37502L107.266 3.63694C105.793 4.47561 104.509 5.67247 103.773 6.52165L105.285 7.83097ZM105.27 7.84916L105.286 7.83048L103.773 6.52214L103.757 6.54082L105.27 7.84916ZM105.203 7.91951L105.22 7.90209L103.806 6.48788L103.789 6.50529L105.203 7.91951ZM101.628 11.4942L105.203 7.91951L103.789 6.50529L100.214 10.08L101.628 11.4942Z" fill="#FF7900" mask="url(#path-1-outside-1_2228_9317)"/>
</svg>
