<svg width="129" height="129" viewBox="0 0 129 129" fill="none" xmlns="http://www.w3.org/2000/svg">
<path fill-rule="evenodd" clip-rule="evenodd" d="M29 1.76229C29 0.789008 29.788 0 30.7601 0H36.0352H93.771H97.6432C98.6153 0 99.4033 0.789008 99.4033 1.76229C99.4033 2.73558 98.6153 3.52459 97.6432 3.52459H95.5311V16.9056C95.6494 25.3776 91.6776 45.1267 74.7221 57.1275L74.7211 57.1282C72.5099 58.691 71.3079 60.1922 70.7092 61.5168C70.1204 62.82 70.065 64.0615 70.3345 65.2318C70.8933 67.6577 72.8827 69.8567 74.6841 71.1403C83.081 76.4392 98.3441 94.3455 95.5387 124.77H97.6432C98.6153 124.77 99.4033 125.559 99.4033 126.533C99.4033 127.506 98.6153 128.295 97.6432 128.295H30.7601C29.788 128.295 29 127.506 29 126.533C29 125.559 29.788 124.77 30.7601 124.77H34.2675C31.4621 94.3455 46.7252 76.4392 55.1222 71.1403C56.9235 69.8567 58.9129 67.6577 59.4717 65.2318C59.7412 64.0615 59.6858 62.82 59.0969 61.5168C58.4983 60.1922 57.2963 58.691 55.0851 57.1282L55.0841 57.1275C38.1286 45.1267 34.1568 25.3776 34.2751 16.9056V3.52459H30.7601C29.788 3.52459 29 2.73558 29 1.76229ZM92.0187 124.605C92.0135 124.661 92.0109 124.715 92.0108 124.77H37.7954C37.7953 124.715 37.7927 124.661 37.7875 124.605C35.0363 95.4057 49.7144 78.6942 57.0349 74.0996L57.0758 74.0742L57.1151 74.046C59.2936 72.5065 62.0681 69.6436 62.9018 66.0239C63.0073 65.5659 63.0811 65.0973 63.1186 64.6203L62.7999 95.2499C61.1531 97.3182 58.4434 100.409 55.2761 103.442C51.842 106.73 47.9816 109.839 44.4292 111.551C41.7388 112.848 40.2492 115.013 39.4486 117.025C38.6576 119.013 38.5044 120.924 38.5044 121.951V123.713H40.2645H89.1948H90.9549V121.951C90.9549 120.748 90.8456 118.713 90.0595 116.701C89.2555 114.642 87.7135 112.551 84.8846 111.489C84.0219 111.166 82.6965 110.333 81.0188 109.041C79.3821 107.78 77.5403 106.185 75.6712 104.466C72.1812 101.257 68.6633 97.677 66.321 95.1808L66.6657 62.0511L66.6658 62.0419V62.0328C66.6658 61.9729 66.6648 61.9115 66.663 61.8488C66.6653 61.812 66.6577 61.7607 66.6481 61.6959L66.6481 61.6959C66.6192 61.5019 66.5725 61.1877 66.7224 60.7848C66.8805 60.3596 67.2079 59.8807 67.5825 59.3326L67.5826 59.3326L67.5826 59.3324C67.7508 59.0865 67.9284 58.8267 68.1045 58.5515C69.2402 56.7773 71.0722 54.6273 73.7495 52.4827L73.7685 52.4675L73.787 52.4519C85.149 42.8257 89.4781 30.2133 90.2332 24.9213L86.9982 23.7381C86.4312 23.5946 85.6548 23.772 84.9687 23.9288C84.5969 24.0137 84.2516 24.0926 83.9805 24.1111C81.3535 24.2628 77.1573 24.0567 70.782 22.9857C57.9486 15.8136 45.132 17.5347 39.8779 19.2883L38.5483 19.732L38.655 20.9362C39.2733 27.3748 43.2015 42.533 56.0851 52.501L56.1717 52.568L56.2659 52.6237C61.7518 55.8695 63.0607 60.2556 63.1415 61.8759C63.1411 61.9411 63.1423 62.0059 63.1451 62.0701L63.1316 63.3727C63.0686 62.2934 62.8096 61.1825 62.3041 60.0639C61.3817 58.0226 59.6913 56.0696 57.1151 54.2488C41.4131 43.1344 37.6829 24.6917 37.7951 16.9435L37.7953 16.9308V16.918V3.52459H92.0109V16.918V16.9308L92.0111 16.9435C92.1232 24.6917 88.3931 43.1344 72.6911 54.2488C70.1148 56.0696 68.4245 58.0226 67.5021 60.0639C66.5699 62.1267 66.4757 64.163 66.9044 66.0239C67.7381 69.6436 70.5126 72.5065 72.6911 74.046L72.7304 74.0742L72.7712 74.0996C80.0918 78.6942 94.7699 95.4057 92.0187 124.605Z" fill="#FF7900"/>
</svg>
