<?xml version="1.0" standalone="no"?>
<!DOCTYPE svg PUBLIC "-//W3C//DTD SVG 20010904//EN"
 "http://www.w3.org/TR/2001/REC-SVG-20010904/DTD/svg10.dtd">
<svg version="1.0" xmlns="http://www.w3.org/2000/svg"
 width="700.000000pt" height="700.000000pt" viewBox="0 0 700.000000 700.000000"
 preserveAspectRatio="xMidYMid meet">
<metadata>
Created by potrace 1.14, written by Peter Selinger 2001-2017
</metadata>
<g transform="translate(0.000000,700.000000) scale(0.100000,-0.100000)"
fill="#000000" stroke="none">
<path d="M419 6896 c-29 -8 -67 -30 -100 -59 -30 -26 -57 -47 -60 -47 -4 0
-37 -39 -74 -86 -47 -59 -71 -101 -81 -137 -12 -44 -14 -484 -14 -2719 0
-1934 3 -2674 11 -2691 23 -51 31 -52 513 -55 504 -4 568 1 604 45 12 15 34
39 47 53 l25 25 0 2266 0 2267 31 6 c17 3 922 6 2010 6 1357 0 1994 3 2028 11
91 19 86 -16 89 538 2 322 0 498 -8 522 -21 75 206 69 -2527 68 -1921 0 -2458
-3 -2494 -13z"/>
<path d="M1638 4617 c-20 -17 -46 -39 -57 -47 -36 -25 -41 -100 -41 -560 0
-460 5 -535 41 -560 11 -8 38 -30 59 -47 l37 -33 1535 0 1535 0 49 25 c27 14
74 32 104 40 61 16 84 38 100 93 13 50 13 914 0 964 -16 55 -39 77 -100 93
-30 8 -77 26 -104 40 l-49 25 -1536 0 -1536 -1 -37 -32z"/>
</g>
</svg>
