<svg width="452" height="413" viewBox="0 0 452 413" fill="none" xmlns="http://www.w3.org/2000/svg">
<g clip-path="url(#clip0_223_315)">
<path fill-rule="evenodd" clip-rule="evenodd" d="M220.578 1.21736C218.923 0.267176 216.89 0.260501 215.23 1.19984L215.22 1.2056L215.21 1.21225L213.413 2.45723L213.405 2.46275L212.452 3.1235C211.313 3.73168 210.393 4.76978 209.972 6.12855L158.574 171.984C157.332 175.992 158.666 180.285 161.807 182.899L161.536 182.744C157.564 180.458 152.674 180.46 148.704 182.75L1.54469 267.641C0.682725 268.138 0.254858 269.011 0.260892 269.88H0.257324L0.263751 269.986C0.264881 270.01 0.266339 270.034 0.268124 270.057L0.328047 271.038L0.328617 271.048L0.757602 278.072L0.757962 278.078L0.758599 278.084C0.854818 278.978 1.3719 279.772 2.15073 280.223L226.754 410.271C230.813 412.622 235.821 412.624 239.883 410.276L387.411 324.983C388.045 324.617 388.467 323.972 388.55 323.245L388.551 323.241L389.303 315.372C389.321 315.269 389.331 315.165 389.333 315.06L389.334 315.054L389.335 315.04L389.333 315.04C389.339 314.475 389.117 313.908 388.666 313.5C389.638 313.987 390.688 314.133 391.683 313.989H391.905H391.93H392.162C395.634 313.989 398.778 311.985 399.817 308.643L451.218 143.205C452.679 138.506 450.681 133.424 446.412 130.97L220.578 1.21736ZM393.786 313.193C395.016 313.08 396.002 312.614 396.791 311.885C397.71 311.036 398.376 309.816 398.836 308.339L450.237 142.901C451.555 138.66 449.753 134.073 445.9 131.859L220.065 2.10688C218.7 1.32237 216.804 1.08979 215.485 1.83557L215.483 1.83647L214.269 2.54978C215.326 2.42168 216.437 2.61937 217.448 3.20318L442.585 133.135C446.739 135.532 448.679 140.485 447.256 145.062L395.863 310.43C395.492 311.624 394.736 312.569 393.786 313.193ZM212.007 4.02485L212.021 4.04579L212.719 3.56261C214.063 2.85529 215.741 2.81037 217.191 3.64744L442.328 133.579C446.275 135.857 448.117 140.561 446.766 144.91L395.372 310.278C394.494 313.104 391.219 314.387 388.651 312.911L163.519 183.468C159.565 181.194 157.716 176.489 159.064 172.136L210.463 6.28026C210.753 5.34499 211.305 4.57852 212.007 4.02485ZM388.82 315.019C388.82 314.499 388.563 313.98 388.048 313.684L161.28 183.188C157.467 180.994 152.793 181.554 148.983 183.752L1.89387 268.426C1.17714 268.84 0.743257 269.236 0.776705 269.959C0.777655 269.979 0.778908 270 0.780464 270.02C0.828839 270.658 1.16987 271.276 1.80343 271.641L227.8 401.692C231.613 403.886 236.308 403.884 240.118 401.686L388.05 316.351C388.409 316.143 388.642 315.827 388.75 315.478L388.82 315.019ZM388.579 316.609C388.495 316.676 388.404 316.738 388.307 316.795L240.376 402.13C236.406 404.42 231.516 404.423 227.544 402.137L1.54704 272.085C1.30287 271.944 1.09347 271.774 0.918823 271.582L1.77916 277.967L1.78007 277.974C1.84122 278.543 2.17029 279.049 2.66586 279.336L227.268 409.384C231.01 411.55 235.625 411.551 239.368 409.388L386.897 324.095C387.249 323.892 387.483 323.534 387.529 323.129L387.53 323.124L387.531 323.118L388.579 316.609ZM437.187 136.265L218.986 10.4323C216.988 9.28037 214.437 10.2787 213.754 12.4793L164.671 170.646C163.463 174.539 165.116 178.75 168.653 180.786L386.852 306.374C388.849 307.524 391.398 306.526 392.081 304.327L441.161 146.404C442.371 142.512 440.721 138.302 437.187 136.265ZM219.756 9.09931C216.903 7.45367 213.258 8.87971 212.282 12.0236L163.2 170.19C161.778 174.771 163.723 179.725 167.883 182.119L386.082 307.708C388.935 309.35 392.576 307.924 393.552 304.783L442.633 146.861C444.056 142.281 442.115 137.329 437.958 134.932L219.756 9.09931ZM175.387 216.309L167.67 211.877C167.207 211.611 166.639 211.604 166.169 211.858L162.652 213.761C162.296 213.953 162.292 214.462 162.645 214.659L170.54 219.084C171.01 219.347 171.583 219.346 172.052 219.081L175.383 217.201C175.73 217.005 175.731 216.507 175.387 216.309ZM167.926 211.432C167.308 211.077 166.551 211.067 165.924 211.407L162.407 213.31C161.696 213.694 161.688 214.711 162.394 215.107L170.289 219.531C170.916 219.882 171.68 219.881 172.305 219.528L175.636 217.647C176.329 217.256 176.332 216.261 175.643 215.864L167.926 211.432ZM160.249 216.228L167.835 220.396C168.193 220.593 168.189 221.109 167.826 221.299L160.178 225.31C159.739 225.54 159.216 225.546 158.772 225.324L151.153 221.518C150.786 221.336 150.771 220.819 151.126 220.615L158.739 216.242C159.205 215.974 159.778 215.969 160.249 216.228ZM158.482 215.797C159.105 215.44 159.868 215.433 160.497 215.778L168.082 219.946C168.8 220.34 168.79 221.374 168.065 221.754L160.416 225.764C159.831 226.071 159.134 226.078 158.543 225.783L150.923 221.977C150.19 221.612 150.16 220.578 150.87 220.17L158.482 215.797ZM179.482 227.069L172.289 222.91C171.827 222.642 171.259 222.633 170.788 222.886L162.913 227.107C162.557 227.298 162.551 227.807 162.904 228.006L170.297 232.171C170.761 232.433 171.329 232.436 171.796 232.179L179.472 227.963C179.822 227.77 179.827 227.269 179.482 227.069ZM172.546 222.465C171.93 222.109 171.173 222.097 170.545 222.434L162.67 226.654C161.957 227.037 161.946 228.055 162.651 228.452L170.044 232.618C170.664 232.968 171.42 232.972 172.044 232.629L179.719 228.412C180.42 228.027 180.431 227.026 179.739 226.625L172.546 222.465ZM184.135 229.609L191.533 233.968C191.88 234.172 191.867 234.678 191.51 234.864L183.326 239.146C182.873 239.384 182.331 239.38 181.881 239.138L174.456 235.145C174.101 234.953 174.094 234.447 174.444 234.247L182.587 229.599C183.068 229.325 183.658 229.329 184.135 229.609ZM182.333 229.153C182.973 228.788 183.761 228.793 184.396 229.168L191.794 233.526C192.488 233.934 192.462 234.945 191.749 235.318L183.564 239.601C182.96 239.917 182.238 239.913 181.637 239.59L174.212 235.596C173.502 235.214 173.489 234.201 174.19 233.802L182.333 229.153ZM195.431 236.48L203.248 240.67C203.611 240.864 203.609 241.385 203.243 241.576L195.14 245.816C194.687 246.054 194.145 246.05 193.694 245.808L186.264 241.811C185.91 241.621 185.903 241.115 186.252 240.915L193.935 236.502C194.396 236.237 194.963 236.229 195.431 236.48ZM193.679 236.057C194.294 235.704 195.049 235.692 195.674 236.028L203.491 240.217C204.217 240.607 204.212 241.649 203.482 242.03L195.378 246.271C194.774 246.587 194.052 246.583 193.451 246.26L186.021 242.263C185.312 241.882 185.298 240.871 185.996 240.47L193.679 236.057ZM189.525 246.485L197.341 250.675C197.704 250.869 197.702 251.39 197.337 251.581L189.233 255.821C188.78 256.058 188.238 256.055 187.788 255.813L180.357 251.816C180.003 251.626 179.996 251.12 180.345 250.92L188.028 246.507C188.49 246.242 189.056 246.234 189.525 246.485ZM187.772 246.062C188.387 245.709 189.142 245.697 189.768 246.033L197.584 250.222C198.31 250.612 198.305 251.654 197.575 252.035L189.471 256.276C188.867 256.592 188.145 256.588 187.544 256.265L180.114 252.268C179.405 251.887 179.391 250.876 180.089 250.475L187.772 246.062ZM188.609 258.884L180.793 254.694C180.324 254.443 179.758 254.451 179.296 254.716L171.613 259.129C171.264 259.329 171.271 259.835 171.625 260.026L179.056 264.022C179.506 264.265 180.048 264.268 180.501 264.03L188.605 259.791C188.97 259.599 188.972 259.078 188.609 258.884ZM181.036 254.242C180.41 253.907 179.656 253.918 179.04 254.271L171.357 258.684C170.659 259.085 170.673 260.096 171.382 260.478L178.812 264.474C179.413 264.797 180.135 264.801 180.739 264.485L188.843 260.245C189.573 259.863 189.578 258.821 188.852 258.432L181.036 254.242ZM184.856 243.459L177.458 239.101C176.981 238.821 176.391 238.817 175.91 239.091L167.767 243.739C167.417 243.939 167.423 244.445 167.778 244.636L175.203 248.63C175.654 248.872 176.196 248.875 176.649 248.638L184.833 244.356C185.19 244.169 185.202 243.664 184.856 243.459ZM177.719 238.66C177.083 238.285 176.296 238.28 175.655 238.645L167.512 243.294C166.812 243.693 166.825 244.706 167.535 245.088L174.96 249.082C175.561 249.405 176.283 249.409 176.887 249.092L185.071 244.81C185.785 244.437 185.811 243.426 185.117 243.018L177.719 238.66ZM169.496 247.824L176.894 252.182C177.241 252.386 177.228 252.891 176.872 253.078L168.687 257.36C168.234 257.598 167.693 257.595 167.242 257.352L159.817 253.358C159.462 253.167 159.456 252.661 159.806 252.461L167.949 247.813C168.43 247.539 169.02 247.543 169.496 247.824ZM167.694 247.368C168.335 247.002 169.122 247.007 169.757 247.382L177.155 251.74C177.849 252.148 177.823 253.16 177.11 253.533L168.926 257.815C168.322 258.131 167.6 258.127 166.999 257.804L159.573 253.81C158.864 253.428 158.851 252.416 159.551 252.016L167.694 247.368ZM165.869 232.402L173.061 236.561C173.407 236.761 173.402 237.262 173.051 237.455L165.376 241.671C164.909 241.928 164.341 241.925 163.876 241.663L156.483 237.497C156.131 237.299 156.136 236.789 156.493 236.599L164.368 232.378C164.838 232.125 165.406 232.134 165.869 232.402ZM164.125 231.925C164.752 231.589 165.51 231.601 166.126 231.957L173.318 236.117C174.01 236.518 173.999 237.519 173.299 237.904L165.624 242.121C165 242.464 164.243 242.459 163.624 242.11L156.231 237.944C155.525 237.547 155.536 236.529 156.25 236.146L164.125 231.925ZM164.843 245.283L157.65 241.124C157.188 240.857 156.62 240.847 156.15 241.1L148.275 245.321C147.918 245.512 147.912 246.021 148.265 246.22L155.658 250.385C156.123 250.648 156.69 250.651 157.158 250.394L164.833 246.177C165.183 245.984 165.189 245.483 164.843 245.283ZM157.908 240.68C157.291 240.324 156.534 240.311 155.907 240.648L148.032 244.868C147.318 245.251 147.307 246.269 148.013 246.667L155.406 250.832C156.025 251.182 156.782 251.186 157.405 250.843L165.081 246.627C165.781 246.241 165.792 245.24 165.1 244.839L157.908 240.68ZM215.062 247.34L207.245 243.15C206.776 242.899 206.21 242.907 205.748 243.172L198.065 247.585C197.717 247.785 197.723 248.291 198.078 248.481L205.508 252.478C205.958 252.72 206.5 252.724 206.953 252.486L215.057 248.246C215.422 248.055 215.425 247.534 215.062 247.34ZM207.488 242.698C206.862 242.362 206.108 242.374 205.493 242.727L197.81 247.14C197.112 247.541 197.125 248.552 197.834 248.933L205.265 252.93C205.865 253.253 206.588 253.257 207.192 252.941L215.295 248.7C216.025 248.319 216.03 247.277 215.305 246.887L207.488 242.698ZM201.338 253.155L209.155 257.345C209.518 257.539 209.515 258.06 209.15 258.251L201.047 262.491C200.593 262.728 200.052 262.725 199.601 262.483L192.171 258.486C191.816 258.296 191.81 257.79 192.159 257.59L199.842 253.177C200.303 252.912 200.869 252.904 201.338 253.155ZM199.586 252.732C200.201 252.379 200.956 252.367 201.581 252.703L209.398 256.892C210.124 257.282 210.118 258.324 209.389 258.705L201.285 262.946C200.681 263.262 199.959 263.258 199.358 262.935L191.927 258.938C191.219 258.557 191.205 257.546 191.903 257.145L199.586 252.732ZM200.423 265.553L192.606 261.364C192.137 261.113 191.571 261.121 191.11 261.386L183.427 265.799C183.078 265.999 183.085 266.505 183.439 266.696L190.869 270.692C191.32 270.935 191.862 270.938 192.315 270.7L200.418 266.461C200.784 266.269 200.786 265.748 200.423 265.553ZM192.849 260.912C192.224 260.577 191.469 260.588 190.854 260.941L183.171 265.354C182.473 265.755 182.487 266.766 183.196 267.148L190.626 271.144C191.227 271.467 191.949 271.471 192.553 271.155L200.657 266.915C201.387 266.533 201.392 265.491 200.666 265.101L192.849 260.912ZM219.044 250.058L226.654 254.048C227.015 254.238 227.022 254.751 226.667 254.95L218.76 259.38C218.305 259.635 217.752 259.643 217.29 259.401L209.68 255.41C209.32 255.221 209.312 254.708 209.668 254.509L217.574 250.078C218.029 249.823 218.583 249.815 219.044 250.058ZM217.323 249.63C217.93 249.291 218.667 249.28 219.283 249.603L226.893 253.594C227.614 253.972 227.629 254.999 226.918 255.397L219.011 259.828C218.405 260.168 217.667 260.178 217.051 259.855L209.442 255.865C208.72 255.486 208.706 254.459 209.417 254.061L217.323 249.63ZM220.748 264.053L213.138 260.063C212.676 259.82 212.123 259.828 211.667 260.083L203.761 264.514C203.406 264.713 203.413 265.226 203.773 265.415L211.383 269.406C211.845 269.648 212.398 269.64 212.854 269.385L220.76 264.955C221.115 264.756 221.108 264.243 220.748 264.053ZM213.376 259.608C212.761 259.285 212.023 259.296 211.416 259.635L203.51 264.066C202.799 264.464 202.813 265.491 203.535 265.87L211.145 269.86C211.76 270.183 212.498 270.173 213.105 269.833L221.011 265.402C221.722 265.004 221.708 263.977 220.986 263.599L213.376 259.608ZM204.406 268.272L212.016 272.262C212.376 272.452 212.384 272.965 212.028 273.164L204.122 277.594C203.667 277.849 203.113 277.857 202.652 277.615L195.042 273.624C194.681 273.435 194.674 272.922 195.029 272.723L202.936 268.292C203.391 268.037 203.944 268.03 204.406 268.272ZM202.685 267.844C203.291 267.505 204.029 267.494 204.645 267.817L212.255 271.808C212.976 272.187 212.99 273.213 212.279 273.611L204.373 278.042C203.766 278.382 203.029 278.392 202.413 278.07L194.803 274.079C194.082 273.7 194.067 272.673 194.778 272.275L202.685 267.844ZM238.302 260.961L230.864 256.77C230.395 256.505 229.822 256.504 229.353 256.768L221.444 261.2C221.093 261.396 221.095 261.902 221.448 262.096L229.087 266.294C229.559 266.552 230.132 266.547 230.598 266.28L238.306 261.853C238.651 261.654 238.649 261.156 238.302 260.961ZM231.116 256.323C230.491 255.97 229.727 255.969 229.101 256.32L221.193 260.752C220.49 261.146 220.494 262.158 221.2 262.546L228.84 266.743C229.469 267.089 230.232 267.081 230.854 266.724L238.561 262.297C239.252 261.901 239.248 260.905 238.554 260.514L231.116 256.323ZM224.957 266.775L232.395 270.966C232.742 271.161 232.744 271.659 232.399 271.857L224.691 276.284C224.225 276.552 223.652 276.557 223.181 276.299L215.541 272.101C215.188 271.907 215.186 271.401 215.537 271.205L223.446 266.773C223.915 266.509 224.488 266.51 224.957 266.775ZM223.195 266.325C223.821 265.974 224.584 265.975 225.209 266.327L232.647 270.519C233.341 270.91 233.345 271.906 232.655 272.302L224.948 276.729C224.326 277.086 223.562 277.094 222.933 276.748L215.293 272.551C214.587 272.163 214.583 271.151 215.286 270.757L223.195 266.325ZM223.663 279.175L216.225 274.984C215.756 274.72 215.183 274.719 214.714 274.982L206.805 279.414C206.454 279.61 206.456 280.117 206.809 280.311L214.449 284.508C214.92 284.767 215.493 284.762 215.959 284.494L223.667 280.066C224.012 279.868 224.01 279.37 223.663 279.175ZM216.477 274.536C215.852 274.184 215.089 274.183 214.463 274.534L206.554 278.966C205.851 279.36 205.855 280.372 206.561 280.76L214.201 284.958C214.83 285.303 215.594 285.296 216.216 284.939L223.923 280.511C224.613 280.115 224.609 279.119 223.916 278.728L216.477 274.536ZM242.686 263.673L250.442 267.831C250.812 268.028 250.801 268.56 250.425 268.744L242.12 272.795C241.679 273.011 241.161 273.003 240.726 272.774L233.541 268.996C233.183 268.808 233.173 268.299 233.524 268.098L241.189 263.695C241.651 263.43 242.217 263.422 242.686 263.673ZM240.933 263.25C241.549 262.897 242.303 262.886 242.929 263.221L250.685 267.378C251.423 267.774 251.403 268.838 250.65 269.205L242.346 273.256C241.757 273.543 241.067 273.533 240.487 273.228L233.302 269.45C232.585 269.074 232.566 268.056 233.268 267.653L240.933 263.25ZM244.536 277.835L236.779 273.678C236.31 273.427 235.744 273.435 235.282 273.7L227.617 278.103C227.267 278.304 227.276 278.813 227.634 279.001L234.82 282.779C235.254 283.008 235.772 283.016 236.214 282.8L244.518 278.749C244.895 278.565 244.905 278.033 244.536 277.835ZM237.022 273.226C236.397 272.89 235.642 272.902 235.027 273.255L227.362 277.658C226.66 278.061 226.679 279.079 227.395 279.455L234.58 283.233C235.16 283.538 235.851 283.548 236.439 283.261L244.744 279.21C245.496 278.843 245.517 277.779 244.779 277.383L237.022 273.226ZM228.047 281.887L235.804 286.045C236.173 286.242 236.163 286.774 235.786 286.958L227.482 291.009C227.04 291.225 226.522 291.217 226.088 290.988L218.903 287.21C218.544 287.022 218.535 286.513 218.886 286.312L226.551 281.909C227.012 281.644 227.578 281.636 228.047 281.887ZM226.295 281.464C226.91 281.111 227.665 281.1 228.29 281.435L236.047 285.593C236.785 285.988 236.764 287.052 236.012 287.419L227.707 291.47C227.119 291.757 226.428 291.747 225.848 291.442L218.663 287.665C217.947 287.288 217.928 286.27 218.63 285.867L226.295 281.464ZM262.316 274.532L254.5 270.343C254.031 270.092 253.465 270.1 253.003 270.365L245.32 274.778C244.971 274.978 244.978 275.484 245.332 275.674L252.763 279.671C253.213 279.913 253.755 279.917 254.208 279.679L262.312 275.439C262.677 275.248 262.679 274.727 262.316 274.532ZM254.743 269.891C254.117 269.555 253.362 269.567 252.747 269.92L245.064 274.333C244.366 274.734 244.38 275.745 245.089 276.126L252.519 280.123C253.12 280.446 253.842 280.45 254.446 280.134L262.55 275.894C263.28 275.512 263.285 274.47 262.559 274.08L254.743 269.891ZM248.593 280.348L256.409 284.537C256.772 284.732 256.77 285.253 256.405 285.444L248.301 289.684C247.848 289.922 247.306 289.918 246.856 289.676L239.425 285.679C239.071 285.489 239.064 284.983 239.413 284.783L247.096 280.37C247.558 280.105 248.124 280.097 248.593 280.348ZM246.84 279.925C247.456 279.572 248.21 279.56 248.836 279.896L256.652 284.085C257.378 284.475 257.373 285.517 256.643 285.898L248.539 290.139C247.935 290.455 247.213 290.451 246.612 290.128L239.182 286.131C238.473 285.75 238.459 284.739 239.157 284.338L246.84 279.925ZM247.678 292.747L239.861 288.557C239.392 288.306 238.826 288.314 238.364 288.579L230.681 292.992C230.333 293.192 230.339 293.698 230.694 293.889L238.124 297.885C238.574 298.128 239.116 298.131 239.569 297.893L247.673 293.654C248.038 293.462 248.041 292.941 247.678 292.747ZM240.104 288.105C239.478 287.77 238.724 287.781 238.108 288.134L230.425 292.547C229.727 292.948 229.741 293.959 230.45 294.341L237.88 298.337C238.481 298.66 239.204 298.664 239.808 298.348L247.911 294.108C248.641 293.726 248.646 292.684 247.92 292.295L240.104 288.105ZM266.272 277.274L273.671 281.443C274.026 281.643 274.018 282.156 273.658 282.344L265.741 286.5C265.298 286.733 264.768 286.736 264.322 286.508L256.505 282.509C256.135 282.319 256.132 281.791 256.501 281.597L264.799 277.251C265.262 277.009 265.816 277.017 266.272 277.274ZM264.56 276.797C265.178 276.473 265.917 276.485 266.524 276.827L273.923 280.997C274.632 281.396 274.617 282.42 273.897 282.799L265.98 286.954C265.389 287.265 264.683 287.269 264.088 286.965L256.271 282.965C255.53 282.586 255.525 281.53 256.262 281.143L264.56 276.797ZM267.764 291.448L260.365 287.279C259.909 287.022 259.355 287.014 258.892 287.256L250.594 291.602C250.226 291.796 250.228 292.324 250.599 292.514L258.415 296.513C258.861 296.741 259.391 296.738 259.834 296.505L267.751 292.349C268.111 292.161 268.119 291.648 267.764 291.448ZM260.617 286.832C260.01 286.49 259.271 286.478 258.653 286.802L250.356 291.148C249.618 291.535 249.623 292.591 250.364 292.97L258.181 296.97C258.776 297.274 259.482 297.27 260.074 296.959L267.99 292.803C268.71 292.425 268.725 291.401 268.017 291.002L260.617 286.832ZM251.633 295.488L259.032 299.658C259.387 299.857 259.379 300.37 259.019 300.559L251.102 304.714C250.659 304.947 250.13 304.951 249.683 304.722L241.867 300.723C241.496 300.533 241.494 300.005 241.863 299.812L250.16 295.465C250.623 295.223 251.177 295.231 251.633 295.488ZM249.922 295.011C250.539 294.687 251.278 294.699 251.885 295.041L259.285 299.211C259.993 299.61 259.978 300.635 259.258 301.013L251.342 305.169C250.75 305.48 250.044 305.483 249.449 305.179L241.633 301.179C240.891 300.8 240.886 299.744 241.624 299.357L249.922 295.011ZM285.502 288.123L278.106 283.955C277.643 283.694 277.076 283.691 276.609 283.946L268.504 288.38C268.145 288.576 268.15 289.093 268.513 289.284L276.124 293.275C276.576 293.513 277.118 293.51 277.569 293.269L285.492 289.022C285.849 288.831 285.854 288.321 285.502 288.123ZM278.359 283.509C277.74 283.16 276.985 283.156 276.362 283.496L268.258 287.93C267.539 288.323 267.548 289.358 268.274 289.738L275.885 293.73C276.488 294.046 277.21 294.043 277.811 293.721L285.735 289.474C286.448 289.091 286.459 288.073 285.754 287.676L278.359 283.509ZM272.2 293.96L279.595 298.128C279.947 298.326 279.942 298.836 279.585 299.027L271.662 303.274C271.211 303.515 270.669 303.518 270.217 303.28L262.606 299.289C262.243 299.098 262.238 298.581 262.598 298.385L270.702 293.951C271.169 293.696 271.736 293.699 272.2 293.96ZM270.455 293.501C271.078 293.161 271.833 293.165 272.452 293.514L279.847 297.681C280.552 298.078 280.542 299.096 279.828 299.479L271.904 303.726C271.303 304.048 270.582 304.051 269.978 303.735L262.367 299.743C261.641 299.363 261.632 298.328 262.351 297.935L270.455 293.501ZM270.863 306.337L263.468 302.17C263.004 301.909 262.437 301.905 261.97 302.16L253.866 306.594C253.506 306.79 253.511 307.308 253.874 307.498L261.485 311.49C261.938 311.727 262.479 311.725 262.93 311.483L270.853 307.236C271.21 307.045 271.215 306.535 270.863 306.337ZM263.72 301.723C263.102 301.374 262.346 301.37 261.724 301.71L253.619 306.144C252.9 306.537 252.909 307.572 253.635 307.953L261.246 311.944C261.85 312.26 262.571 312.257 263.172 311.935L271.096 307.688C271.81 307.306 271.821 306.288 271.115 305.89L263.72 301.723ZM283.239 278.064L290.955 282.496C291.3 282.694 291.298 283.192 290.951 283.387L287.62 285.268C287.152 285.533 286.578 285.534 286.108 285.27L278.213 280.846C277.86 280.649 277.864 280.14 278.22 279.947L281.736 278.045C282.207 277.79 282.775 277.798 283.239 278.064ZM281.492 277.593C282.119 277.254 282.877 277.264 283.494 277.619L291.211 282.051C291.901 282.447 291.897 283.443 291.204 283.834L287.873 285.715C287.248 286.068 286.484 286.069 285.857 285.718L277.962 281.294C277.256 280.898 277.264 279.881 277.975 279.496L281.492 277.593ZM182.566 220.599L190.282 225.031C190.627 225.229 190.625 225.727 190.279 225.923L186.948 227.803C186.479 228.068 185.906 228.069 185.436 227.806L177.54 223.382C177.188 223.184 177.191 222.675 177.547 222.483L181.064 220.58C181.534 220.326 182.102 220.333 182.566 220.599ZM180.819 220.129C181.446 219.79 182.204 219.799 182.822 220.154L190.538 224.586C191.228 224.983 191.224 225.978 190.532 226.369L187.2 228.25C186.575 228.603 185.811 228.604 185.184 228.253L177.289 223.829C176.584 223.434 176.591 222.417 177.303 222.032L180.819 220.129ZM202.61 231.701L194.893 227.269C194.429 227.003 193.861 226.996 193.391 227.25L189.874 229.153C189.518 229.345 189.515 229.854 189.868 230.052L197.763 234.476C198.233 234.739 198.806 234.738 199.275 234.473L202.606 232.593C202.953 232.397 202.954 231.899 202.61 231.701ZM195.149 226.824C194.531 226.469 193.773 226.46 193.146 226.799L189.63 228.702C188.919 229.087 188.911 230.104 189.617 230.499L197.512 234.923C198.138 235.274 198.903 235.273 199.528 234.92L202.859 233.039C203.552 232.648 203.555 231.653 202.865 231.256L195.149 226.824ZM206.193 233.939L213.91 238.371C214.254 238.569 214.253 239.067 213.906 239.263L210.575 241.143C210.106 241.408 209.533 241.409 209.063 241.146L201.168 236.722C200.815 236.524 200.818 236.015 201.174 235.823L204.691 233.92C205.161 233.666 205.729 233.673 206.193 233.939ZM204.446 233.469C205.073 233.13 205.831 233.139 206.449 233.494L214.165 237.926C214.855 238.323 214.852 239.318 214.159 239.709L210.828 241.59C210.203 241.943 209.438 241.944 208.812 241.593L200.917 237.169C200.211 236.774 200.219 235.757 200.93 235.372L204.446 233.469ZM225.723 245.041L218.007 240.609C217.543 240.343 216.975 240.336 216.505 240.59L212.988 242.493C212.632 242.685 212.629 243.194 212.981 243.392L220.876 247.816C221.346 248.079 221.92 248.078 222.389 247.813L225.72 245.933C226.066 245.737 226.068 245.239 225.723 245.041ZM218.263 240.164C217.645 239.809 216.887 239.8 216.26 240.139L212.744 242.042C212.032 242.427 212.024 243.444 212.73 243.839L220.625 248.263C221.252 248.614 222.016 248.613 222.641 248.26L225.973 246.379C226.665 245.988 226.669 244.993 225.979 244.596L218.263 240.164ZM294.539 285.247L302.255 289.679C302.6 289.877 302.598 290.375 302.251 290.571L298.92 292.451C298.451 292.716 297.878 292.717 297.408 292.454L289.513 288.029C289.16 287.832 289.164 287.323 289.52 287.13L293.036 285.228C293.507 284.973 294.075 284.981 294.539 285.247ZM292.792 284.776C293.419 284.437 294.176 284.447 294.794 284.802L302.511 289.234C303.201 289.63 303.197 290.626 302.504 291.017L299.173 292.898C298.548 293.251 297.784 293.252 297.157 292.901L289.262 288.477C288.556 288.081 288.564 287.064 289.275 286.679L292.792 284.776ZM314.069 296.349L306.352 291.917C305.888 291.651 305.32 291.643 304.85 291.898L301.334 293.8C300.978 293.993 300.974 294.502 301.327 294.699L309.222 299.124C309.692 299.387 310.265 299.386 310.734 299.121L314.065 297.241C314.412 297.045 314.413 296.547 314.069 296.349ZM306.608 291.472C305.99 291.117 305.233 291.107 304.605 291.446L301.089 293.349C300.378 293.734 300.37 294.751 301.076 295.147L308.971 299.571C309.597 299.922 310.362 299.921 310.987 299.568L314.318 297.687C315.011 297.296 315.014 296.3 314.324 295.904L306.608 291.472ZM317.652 298.587L325.369 303.019C325.713 303.217 325.712 303.715 325.365 303.911L322.034 305.791C321.565 306.056 320.992 306.057 320.522 305.794L312.627 301.369C312.274 301.172 312.278 300.663 312.634 300.47L316.15 298.568C316.62 298.313 317.188 298.321 317.652 298.587ZM315.905 298.116C316.533 297.777 317.29 297.787 317.908 298.142L325.624 302.574C326.314 302.97 326.311 303.966 325.618 304.357L322.287 306.238C321.662 306.591 320.897 306.592 320.271 306.241L312.376 301.817C311.67 301.421 311.678 300.404 312.389 300.019L315.905 298.116ZM297.243 295.055L289.427 290.866C288.958 290.615 288.392 290.623 287.93 290.888L280.247 295.301C279.898 295.501 279.905 296.007 280.26 296.197L287.69 300.194C288.14 300.436 288.682 300.44 289.136 300.202L297.239 295.962C297.604 295.771 297.607 295.25 297.243 295.055ZM289.67 290.414C289.044 290.079 288.29 290.09 287.674 290.443L279.991 294.856C279.293 295.257 279.307 296.268 280.016 296.649L287.446 300.646C288.047 300.969 288.769 300.973 289.374 300.657L297.477 296.417C298.207 296.035 298.212 294.993 297.486 294.603L289.67 290.414ZM283.52 300.871L291.337 305.06C291.7 305.255 291.697 305.776 291.332 305.967L283.229 310.207C282.775 310.445 282.233 310.441 281.783 310.199L274.353 306.202C273.998 306.012 273.992 305.506 274.34 305.306L282.023 300.893C282.485 300.628 283.051 300.62 283.52 300.871ZM281.768 300.448C282.383 300.095 283.137 300.083 283.763 300.419L291.58 304.608C292.305 304.998 292.3 306.04 291.57 306.422L283.467 310.662C282.863 310.978 282.14 310.974 281.54 310.651L274.109 306.654C273.4 306.273 273.387 305.262 274.085 304.861L281.768 300.448ZM282.605 313.27L274.788 309.08C274.319 308.829 273.753 308.837 273.292 309.102L265.609 313.515C265.26 313.715 265.267 314.221 265.621 314.412L273.051 318.408C273.502 318.651 274.043 318.654 274.497 318.416L282.6 314.177C282.965 313.985 282.968 313.465 282.605 313.27ZM275.031 308.628C274.406 308.293 273.651 308.304 273.036 308.658L265.353 313.07C264.655 313.471 264.669 314.482 265.377 314.864L272.808 318.86C273.409 319.183 274.131 319.187 274.735 318.871L282.839 314.631C283.568 314.249 283.574 313.207 282.848 312.818L275.031 308.628ZM286.884 315.53L303.998 325.077C304.351 325.273 304.349 325.781 303.995 325.975L295.836 330.438C295.37 330.693 294.806 330.69 294.342 330.431L277.62 321.077C277.276 320.884 277.268 320.392 277.607 320.189L285.34 315.554C285.813 315.27 286.402 315.261 286.884 315.53ZM285.075 315.114C285.707 314.736 286.492 314.724 287.135 315.082L304.249 324.629C304.954 325.022 304.95 326.037 304.242 326.425L296.083 330.888C295.462 331.228 294.709 331.224 294.092 330.879L277.369 321.524C276.681 321.139 276.666 320.155 277.342 319.749L285.075 315.114ZM152.818 238.103L136.393 228.347C135.905 228.058 135.299 228.059 134.812 228.35L127.111 232.966C126.773 233.169 126.78 233.661 127.124 233.854L143.833 243.2C144.302 243.462 144.874 243.461 145.342 243.197L152.808 238.991C153.151 238.797 153.157 238.305 152.818 238.103ZM136.655 227.906C136.005 227.52 135.196 227.522 134.548 227.91L126.847 232.526C126.17 232.932 126.185 233.916 126.873 234.301L143.581 243.648C144.207 243.998 144.97 243.996 145.595 243.644L153.06 239.437C153.748 239.05 153.759 238.065 153.081 237.662L136.655 227.906ZM148.205 222.178L160.979 229.621C161.325 229.823 161.317 230.327 160.963 230.516L153.043 234.762C152.579 235.01 152.021 235.005 151.562 234.748L138.939 227.696C138.595 227.504 138.587 227.011 138.926 226.809L146.636 222.187C147.118 221.898 147.719 221.895 148.205 222.178ZM146.371 221.748C147.015 221.362 147.816 221.357 148.464 221.734L161.238 229.178C161.932 229.582 161.914 230.589 161.206 230.968L153.286 235.214C152.668 235.545 151.923 235.539 151.311 235.196L138.689 228.144C138 227.759 137.984 226.774 138.661 226.368L146.371 221.748ZM326.453 311.77L312.568 303.751C312.083 303.471 311.485 303.476 311.004 303.764L303.308 308.376C302.967 308.581 302.978 309.077 303.326 309.267L317.664 317.079C318.145 317.341 318.73 317.328 319.199 317.044L326.463 312.653C326.797 312.451 326.792 311.965 326.453 311.77ZM312.825 303.307C312.179 302.933 311.38 302.94 310.74 303.324L303.044 307.936C302.363 308.345 302.383 309.337 303.08 309.717L317.418 317.529C318.06 317.879 318.84 317.861 319.465 317.483L326.728 313.092C327.396 312.688 327.387 311.716 326.711 311.326L312.825 303.307ZM301.241 297.536L309.057 301.725C309.42 301.92 309.418 302.441 309.052 302.632L300.949 306.872C300.496 307.11 299.954 307.106 299.503 306.864L292.073 302.867C291.719 302.677 291.712 302.171 292.061 301.971L299.744 297.558C300.206 297.293 300.772 297.285 301.241 297.536ZM299.488 297.113C300.103 296.76 300.858 296.749 301.483 297.084L309.3 301.273C310.026 301.663 310.021 302.705 309.291 303.087L301.188 307.327C300.583 307.643 299.861 307.639 299.26 307.316L291.83 303.319C291.121 302.938 291.107 301.927 291.805 301.526L299.488 297.113ZM303.15 311.73L295.334 307.541C294.865 307.29 294.299 307.298 293.837 307.563L286.154 311.976C285.805 312.176 285.812 312.682 286.166 312.872L293.597 316.869C294.047 317.111 294.589 317.115 295.043 316.877L303.146 312.637C303.511 312.446 303.513 311.925 303.15 311.73ZM295.577 307.089C294.951 306.754 294.197 306.765 293.581 307.118L285.898 311.531C285.2 311.932 285.214 312.943 285.923 313.324L293.353 317.321C293.954 317.644 294.676 317.648 295.281 317.332L303.384 313.092C304.114 312.71 304.119 311.668 303.393 311.278L295.577 307.089ZM307.918 314.468L315.734 318.657C316.097 318.852 316.095 319.373 315.73 319.564L307.627 323.804C307.173 324.041 306.631 324.038 306.181 323.795L298.75 319.799C298.396 319.608 298.389 319.103 298.738 318.903L306.421 314.49C306.883 314.224 307.449 314.216 307.918 314.468ZM306.165 314.045C306.781 313.691 307.535 313.68 308.161 314.016L315.977 318.205C316.703 318.594 316.698 319.636 315.968 320.018L307.865 324.258C307.26 324.575 306.538 324.571 305.937 324.247L298.507 320.251C297.798 319.869 297.784 318.858 298.482 318.458L306.165 314.045ZM147.413 248.143L125.089 235.5C124.606 235.226 124.013 235.233 123.537 235.519L115.823 240.142C115.483 240.346 115.493 240.84 115.839 241.031L138.417 253.458C138.894 253.721 139.475 253.713 139.944 253.436L147.421 249.031C147.761 248.831 147.757 248.338 147.413 248.143ZM125.343 235.053C124.699 234.688 123.908 234.698 123.272 235.079L115.559 239.702C114.879 240.109 114.898 241.099 115.592 241.48L138.17 253.908C138.806 254.258 139.579 254.247 140.205 253.878L147.682 249.474C148.362 249.072 148.354 248.086 147.666 247.697L125.343 235.053ZM159.707 255.545L152.514 251.385C152.052 251.118 151.484 251.109 151.013 251.361L143.138 255.582C142.781 255.773 142.776 256.283 143.128 256.481L150.522 260.647C150.986 260.909 151.554 260.912 152.021 260.655L159.697 256.439C160.047 256.246 160.052 255.745 159.707 255.545ZM152.771 250.942C152.155 250.585 151.398 250.573 150.77 250.909L142.895 255.13C142.182 255.513 142.171 256.531 142.876 256.928L150.269 261.094C150.889 261.443 151.646 261.447 152.269 261.105L159.944 256.888C160.645 256.503 160.656 255.501 159.964 255.101L152.771 250.942ZM164.36 258.085L171.758 262.443C172.105 262.647 172.092 263.153 171.735 263.34L163.551 267.622C163.098 267.859 162.556 267.856 162.106 267.613L154.681 263.62C154.326 263.429 154.319 262.922 154.669 262.723L162.812 258.074C163.293 257.8 163.883 257.805 164.36 258.085ZM162.558 257.629C163.198 257.264 163.986 257.269 164.621 257.643L172.019 262.001C172.712 262.41 172.687 263.421 171.974 263.794L163.789 268.076C163.185 268.393 162.463 268.389 161.862 268.066L154.437 264.072C153.727 263.69 153.714 262.677 154.415 262.278L162.558 257.629ZM175.656 264.956L183.473 269.146C183.836 269.34 183.834 269.861 183.468 270.052L175.365 274.292C174.912 274.529 174.37 274.526 173.919 274.283L166.489 270.287C166.135 270.097 166.128 269.591 166.477 269.391L174.16 264.978C174.621 264.713 175.187 264.704 175.656 264.956ZM173.904 264.533C174.519 264.179 175.274 264.168 175.899 264.504L183.716 268.693C184.442 269.082 184.437 270.124 183.707 270.506L175.603 274.746C174.999 275.063 174.277 275.059 173.676 274.735L166.246 270.739C165.537 270.357 165.523 269.347 166.221 268.946L173.904 264.533ZM187.47 271.626L195.287 275.816C195.65 276.01 195.647 276.531 195.282 276.722L187.178 280.962C186.725 281.199 186.183 281.196 185.733 280.953L178.303 276.957C177.948 276.767 177.942 276.261 178.29 276.061L185.973 271.648C186.435 271.383 187.001 271.374 187.47 271.626ZM185.718 271.203C186.333 270.849 187.087 270.838 187.713 271.174L195.53 275.363C196.255 275.752 196.25 276.794 195.52 277.176L187.417 281.416C186.813 281.733 186.09 281.729 185.49 281.405L178.059 277.409C177.35 277.027 177.337 276.017 178.035 275.616L185.718 271.203ZM206.879 282.524L199.269 278.533C198.808 278.291 198.254 278.299 197.799 278.554L189.893 282.984C189.537 283.183 189.545 283.696 189.905 283.886L197.515 287.876C197.977 288.119 198.53 288.111 198.985 287.856L206.892 283.425C207.247 283.226 207.24 282.713 206.879 282.524ZM199.508 278.079C198.892 277.756 198.155 277.766 197.548 278.106L189.642 282.537C188.931 282.935 188.945 283.962 189.667 284.34L197.276 288.331C197.892 288.654 198.63 288.643 199.236 288.304L207.143 283.873C207.854 283.475 207.839 282.448 207.118 282.069L199.508 278.079ZM211.089 285.245L218.527 289.437C218.874 289.632 218.876 290.13 218.531 290.328L210.823 294.755C210.357 295.023 209.784 295.028 209.312 294.77L201.673 290.572C201.32 290.378 201.318 289.872 201.669 289.675L209.578 285.243C210.047 284.98 210.62 284.981 211.089 285.245ZM209.326 284.796C209.952 284.445 210.716 284.446 211.341 284.798L218.779 288.99C219.473 289.38 219.477 290.377 218.787 290.773L211.079 295.2C210.457 295.557 209.694 295.564 209.065 295.219L201.425 291.022C200.719 290.634 200.715 289.621 201.418 289.227L209.326 284.796ZM230.667 296.306L222.911 292.149C222.442 291.897 221.876 291.906 221.414 292.171L213.749 296.574C213.398 296.775 213.408 297.284 213.766 297.472L220.951 301.25C221.386 301.479 221.904 301.486 222.346 301.271L230.65 297.22C231.026 297.036 231.037 296.504 230.667 296.306ZM223.154 291.697C222.528 291.361 221.774 291.372 221.158 291.726L213.493 296.129C212.791 296.532 212.81 297.549 213.527 297.926L220.712 301.704C221.292 302.009 221.982 302.019 222.571 301.732L230.875 297.68C231.628 297.313 231.648 296.25 230.91 295.854L223.154 291.697ZM234.725 298.819L242.541 303.009C242.904 303.203 242.901 303.724 242.537 303.915L234.433 308.155C233.98 308.392 233.438 308.389 232.988 308.146L225.557 304.15C225.203 303.96 225.196 303.454 225.545 303.254L233.228 298.841C233.69 298.576 234.256 298.567 234.725 298.819ZM232.972 298.396C233.587 298.042 234.342 298.031 234.968 298.367L242.784 302.556C243.51 302.945 243.505 303.987 242.775 304.369L234.671 308.609C234.067 308.926 233.345 308.922 232.744 308.598L225.314 304.602C224.605 304.22 224.591 303.21 225.289 302.809L232.972 298.396ZM253.896 309.919L246.497 305.749C246.041 305.493 245.487 305.485 245.024 305.727L236.726 310.073C236.357 310.267 236.36 310.794 236.73 310.984L244.547 314.984C244.993 315.212 245.523 315.209 245.966 314.976L253.883 310.82C254.243 310.631 254.251 310.119 253.896 309.919ZM246.749 305.303C246.142 304.961 245.403 304.95 244.785 305.273L236.487 309.619C235.75 310.005 235.755 311.062 236.496 311.441L244.313 315.44C244.907 315.745 245.614 315.741 246.205 315.43L254.122 311.274C254.842 310.896 254.857 309.871 254.148 309.472L246.749 305.303ZM258.331 312.431L265.726 316.598C266.079 316.797 266.073 317.306 265.717 317.497L257.793 321.745C257.343 321.986 256.801 321.989 256.348 321.751L248.737 317.76C248.375 317.569 248.37 317.052 248.729 316.855L256.834 312.422C257.301 312.166 257.867 312.17 258.331 312.431ZM256.587 311.972C257.21 311.631 257.965 311.636 258.584 311.984L265.979 316.152C266.684 316.549 266.673 317.567 265.96 317.95L258.036 322.197C257.435 322.519 256.713 322.522 256.11 322.205L248.499 318.214C247.773 317.833 247.764 316.798 248.483 316.405L256.587 311.972ZM270.666 331.751L262.95 327.319C262.486 327.053 261.918 327.046 261.448 327.3L257.931 329.203C257.575 329.395 257.572 329.904 257.925 330.102L265.82 334.526C266.29 334.789 266.863 334.788 267.332 334.523L270.663 332.643C271.009 332.447 271.011 331.949 270.666 331.751ZM263.206 326.874C262.588 326.519 261.83 326.51 261.203 326.849L257.686 328.752C256.975 329.136 256.968 330.153 257.673 330.549L265.569 334.973C266.195 335.324 266.959 335.323 267.585 334.97L270.915 333.089C271.608 332.698 271.612 331.703 270.922 331.306L263.206 326.874ZM269.915 318.88L291.939 331.713C292.288 331.916 292.277 332.423 291.919 332.61L284.278 336.618C283.815 336.861 283.261 336.853 282.806 336.597L260.699 324.175C260.352 323.98 260.349 323.482 260.695 323.283L268.37 318.875C268.849 318.6 269.438 318.602 269.915 318.88ZM268.114 318.43C268.752 318.063 269.538 318.066 270.174 318.436L292.198 331.27C292.895 331.676 292.872 332.69 292.158 333.065L284.517 337.072C283.9 337.396 283.161 337.385 282.554 337.044L260.447 324.622C259.753 324.232 259.748 323.235 260.439 322.838L268.114 318.43ZM113.515 242.172L120.691 246.322C121.035 246.52 121.032 247.017 120.687 247.213L111.473 252.414C110.992 252.686 110.403 252.679 109.927 252.397L102.956 248.256C102.618 248.056 102.621 247.567 102.961 247.371L111.972 242.171C112.449 241.895 113.038 241.896 113.515 242.172ZM111.715 241.726C112.351 241.359 113.136 241.359 113.772 241.727L120.949 245.878C121.636 246.275 121.631 247.269 120.939 247.659L111.726 252.861C111.085 253.223 110.298 253.215 109.665 252.838L102.693 248.697C102.018 248.297 102.025 247.319 102.704 246.927L111.715 241.726ZM132.75 253.225L125.349 248.865C124.862 248.578 124.258 248.58 123.774 248.871L114.794 254.252C114.454 254.456 114.463 254.95 114.81 255.142L122.023 259.123C122.483 259.378 123.041 259.38 123.503 259.129L132.734 254.118C133.085 253.927 133.093 253.427 132.75 253.225ZM125.61 248.423C124.961 248.041 124.155 248.044 123.509 248.431L114.53 253.813C113.851 254.22 113.868 255.208 114.561 255.591L121.774 259.573C122.388 259.911 123.133 259.914 123.749 259.579L132.979 254.568C133.681 254.187 133.699 253.188 133.011 252.783L125.61 248.423ZM144.465 259.925L136.614 255.717C136.148 255.467 135.585 255.474 135.124 255.735L126.313 260.736C125.974 260.928 125.965 261.412 126.295 261.618L133.317 265.978C133.787 266.27 134.378 266.287 134.864 266.024L144.466 260.829C144.826 260.634 144.825 260.118 144.465 259.925ZM136.857 255.265C136.235 254.931 135.484 254.941 134.871 255.289L126.059 260.29C125.382 260.675 125.363 261.643 126.024 262.054L133.046 266.413C133.672 266.803 134.46 266.826 135.109 266.475L144.711 261.28C145.43 260.891 145.428 259.859 144.708 259.473L136.857 255.265ZM160.729 269.178L148.93 262.655C148.466 262.398 147.903 262.398 147.438 262.655L138.016 267.861C137.659 268.058 137.663 268.571 138.022 268.763L150.244 275.288C150.714 275.539 151.28 275.529 151.742 275.263L160.737 270.072C161.083 269.872 161.078 269.372 160.729 269.178ZM149.179 262.206C148.56 261.863 147.809 261.863 147.19 262.205L137.767 267.412C137.055 267.806 137.062 268.832 137.78 269.215L150.002 275.741C150.628 276.075 151.384 276.062 151.998 275.708L160.994 270.516C161.686 270.117 161.676 269.116 160.977 268.729L149.179 262.206ZM165.882 272.422L219.04 302.764C219.386 302.962 219.384 303.461 219.038 303.657L209.812 308.865C209.34 309.132 208.763 309.131 208.292 308.863L154.91 278.532C154.561 278.334 154.564 277.831 154.915 277.637L164.372 272.412C164.843 272.152 165.416 272.155 165.882 272.422ZM164.124 271.963C164.751 271.616 165.515 271.621 166.137 271.977L219.294 302.319C219.986 302.714 219.984 303.711 219.29 304.103L210.064 309.312C209.435 309.667 208.666 309.666 208.038 309.31L154.656 278.979C153.958 278.583 153.965 277.576 154.666 277.189L164.124 271.963ZM235.249 312.032L223.152 305.248C222.687 304.987 222.119 304.985 221.652 305.244L212.199 310.467C211.847 310.662 211.846 311.168 212.197 311.364L224.698 318.348C225.18 318.618 225.77 318.609 226.243 318.325L235.262 312.92C235.6 312.717 235.593 312.225 235.249 312.032ZM223.403 304.801C222.783 304.453 222.026 304.45 221.403 304.795L211.951 310.018C211.246 310.408 211.243 311.419 211.946 311.811L224.448 318.796C225.09 319.155 225.876 319.143 226.507 318.765L235.526 313.359C236.202 312.954 236.188 311.97 235.501 311.585L223.403 304.801ZM239.09 314.537L246.259 318.871C246.601 319.079 246.586 319.58 246.231 319.765L237.014 324.569C236.556 324.808 236.008 324.801 235.556 324.552L228.371 320.586C228.02 320.391 228.017 319.887 228.367 319.69L237.534 314.514C238.019 314.24 238.613 314.249 239.09 314.537ZM237.281 314.067C237.928 313.702 238.721 313.714 239.356 314.098L246.525 318.433C247.21 318.847 247.178 319.85 246.468 320.22L237.251 325.024C236.641 325.342 235.911 325.334 235.307 325.001L228.123 321.034C227.419 320.646 227.415 319.638 228.114 319.243L237.281 314.067ZM252.73 328.718L244.828 324.289C244.376 324.036 243.826 324.027 243.366 324.265L239.742 326.14C239.379 326.328 239.37 326.844 239.726 327.043L247.629 331.471C248.081 331.725 248.63 331.734 249.091 331.496L252.715 329.621C253.078 329.433 253.087 328.917 252.73 328.718ZM245.08 323.842C244.476 323.504 243.743 323.492 243.129 323.81L239.506 325.684C238.779 326.06 238.762 327.091 239.475 327.49L247.377 331.919C247.981 332.256 248.713 332.269 249.327 331.951L252.951 330.076C253.677 329.701 253.694 328.67 252.981 328.27L245.08 323.842ZM256.085 331.177L264.132 335.58C264.492 335.777 264.487 336.295 264.123 336.485L260.868 338.181C260.422 338.413 259.891 338.414 259.445 338.182L251.464 334.041C251.111 333.858 251.091 333.361 251.429 333.151L254.529 331.221C255.002 330.927 255.596 330.911 256.085 331.177ZM254.258 330.785C254.888 330.394 255.68 330.371 256.331 330.727L264.378 335.13C265.099 335.524 265.088 336.56 264.36 336.939L261.105 338.636C260.511 338.945 259.803 338.946 259.208 338.638L251.227 334.497C250.521 334.13 250.482 333.135 251.157 332.715L254.258 330.785ZM275.844 342.495L267.941 338.067C267.489 337.813 266.94 337.804 266.479 338.042L262.855 339.917C262.492 340.105 262.484 340.621 262.84 340.82L270.742 345.248C271.194 345.502 271.744 345.511 272.205 345.273L275.828 343.398C276.192 343.21 276.2 342.694 275.844 342.495ZM268.193 337.619C267.59 337.282 266.857 337.269 266.243 337.587L262.619 339.462C261.893 339.837 261.876 340.868 262.589 341.268L270.491 345.696C271.094 346.034 271.827 346.046 272.441 345.728L276.065 343.853C276.79 343.478 276.808 342.447 276.095 342.047L268.193 337.619ZM146.103 290.15L205.402 324.543C207.119 325.54 207.103 328.024 205.372 328.997L173.04 347.187C169.733 349.048 165.69 349.036 162.395 347.155L102.801 313.138C101.076 312.154 101.076 309.668 102.801 308.684L135.336 290.113C138.675 288.207 142.778 288.221 146.103 290.15ZM134.571 288.776C138.388 286.598 143.076 286.614 146.877 288.819L206.175 323.212C208.924 324.807 208.897 328.78 206.128 330.339L173.796 348.529C170.017 350.655 165.397 350.641 161.631 348.491L102.037 314.475C99.2762 312.899 99.2762 308.923 102.037 307.347L134.571 288.776Z" fill="#FF7A00"/>
</g>
<defs>
<clipPath id="clip0_223_315">
<rect width="452" height="412" fill="white" transform="translate(0 0.5)"/>
</clipPath>
</defs>
</svg>
