<svg width="20" height="20" viewBox="0 0 20 20" fill="none" xmlns="http://www.w3.org/2000/svg">
<path d="M6.80014 0H5.52002V2.80012H6.80014V0Z" fill="#FF7900"/>
<path d="M9.36005 0H8.08032V2.80012H9.36005V0Z" fill="#FF7900"/>
<path d="M11.9199 0H10.6401V2.80012H11.9199V0Z" fill="#FF7900"/>
<path d="M14.48 0H13.2V2.80012H14.48V0Z" fill="#FF7900"/>
<path d="M6.80014 17.2002H5.52002V20H6.80014V17.2002Z" fill="#FF7900"/>
<path d="M9.36005 17.2002H8.08032V20H9.36005V17.2002Z" fill="#FF7900"/>
<path d="M11.9199 17.2002H10.6401V20H11.9199V17.2002Z" fill="#FF7900"/>
<path d="M14.48 17.2002H13.2V20H14.48V17.2002Z" fill="#FF7900"/>
<path d="M19.9997 5.51978H17.2V6.79989H19.9997V5.51978Z" fill="#FF7900"/>
<path d="M19.9997 8.08008H17.2V9.36016H19.9997V8.08008Z" fill="#FF7900"/>
<path d="M19.9997 10.6403H17.2V11.92H19.9997V10.6403Z" fill="#FF7900"/>
<path d="M19.9997 13.2001H17.2V14.4802H19.9997V13.2001Z" fill="#FF7900"/>
<path d="M2.80001 5.51978H0.000244141V6.79989H2.80001V5.51978Z" fill="#FF7900"/>
<path d="M2.80001 8.08008H0.000244141V9.36016H2.80001V8.08008Z" fill="#FF7900"/>
<path d="M2.80001 10.6403H0.000244141V11.92H2.80001V10.6403Z" fill="#FF7900"/>
<path d="M2.80001 13.2001H0.000244141V14.4802H2.80001V13.2001Z" fill="#FF7900"/>
<path d="M9.97061 9.85187C10.2117 9.85187 10.3558 9.71179 10.3558 9.49796C10.3558 9.28371 10.2117 9.13953 9.97061 9.13953H9.53467C9.51904 9.13953 9.51123 9.14773 9.51123 9.16335V9.82839C9.51123 9.84402 9.51904 9.85187 9.53467 9.85187H9.97061Z" fill="#FF7900"/>
<path d="M3.6001 16.4H16.3997V3.60034H3.6001V16.4ZM14.3499 5.10026C14.6811 5.10026 14.9497 5.36851 14.9497 5.70011C14.9497 6.03167 14.6811 6.29991 14.3499 6.29991C14.0187 6.29991 13.75 6.03167 13.75 5.70011C13.7501 5.36847 14.0187 5.10026 14.3499 5.10026ZM14.3499 13.8002C14.6811 13.8002 14.9497 14.0685 14.9497 14.4001C14.9497 14.7316 14.6811 14.9999 14.3499 14.9999C14.0187 14.9999 13.75 14.7316 13.75 14.4001C13.7501 14.0685 14.0187 13.8002 14.3499 13.8002ZM11.3601 8.68425C11.3601 8.66116 11.3757 8.64554 11.3992 8.64554H11.8933C11.9167 8.64554 11.9324 8.66116 11.9324 8.68425V10.3343C11.9324 10.6495 12.1075 10.8284 12.3757 10.8284C12.6403 10.8284 12.8157 10.6496 12.8157 10.3343V8.68425C12.8157 8.66116 12.8313 8.64554 12.8545 8.64554H13.3485C13.3719 8.64554 13.3872 8.66116 13.3872 8.68425V10.3191C13.3872 10.9763 12.9673 11.3343 12.3757 11.3343C11.7807 11.3343 11.3601 10.9763 11.3601 10.3191V8.68425ZM8.9392 8.68425C8.9392 8.66116 8.95482 8.64554 8.9783 8.64554H10.0054C10.5814 8.64554 10.9275 8.99202 10.9275 9.49796C10.9275 9.99565 10.5773 10.3459 10.0054 10.3459H9.53451C9.51889 10.3459 9.51107 10.3537 9.51107 10.3693V11.2527C9.51107 11.2758 9.4958 11.2914 9.47236 11.2914H8.9783C8.95482 11.2914 8.9392 11.2758 8.9392 11.2527V8.68425ZM6.54963 9.25276C6.68971 8.82062 7.02838 8.60304 7.4915 8.60304C7.93893 8.60304 8.26568 8.82062 8.41357 9.19015C8.4251 9.20952 8.41728 9.2289 8.3942 9.2371L7.96986 9.42749C7.94674 9.43905 7.92701 9.43155 7.91545 9.40851C7.84166 9.23714 7.71686 9.10858 7.49518 9.10858C7.28916 9.10858 7.15689 9.21776 7.09842 9.4003C7.06713 9.49792 7.05557 9.59104 7.05557 9.96882C7.05557 10.3458 7.06713 10.4394 7.09842 10.5366C7.15689 10.7191 7.28916 10.8283 7.49518 10.8283C7.71686 10.8283 7.84166 10.6998 7.91545 10.5287C7.92701 10.5053 7.94674 10.4978 7.96986 10.5094L8.3942 10.6998C8.41728 10.708 8.4251 10.7273 8.41357 10.7467C8.26568 11.1163 7.93889 11.3342 7.4915 11.3342C7.02838 11.3342 6.68975 11.1162 6.54963 10.6841C6.49154 10.5135 6.47588 10.3771 6.47588 9.96878C6.47588 9.55979 6.49154 9.42417 6.54963 9.25276ZM5.6499 5.10026C5.9815 5.10026 6.2501 5.36886 6.2501 5.70011C6.2501 6.03128 5.9815 6.29991 5.6499 6.29991C5.31834 6.29991 5.0501 6.03132 5.0501 5.70011C5.0501 5.36886 5.31834 5.10026 5.6499 5.10026ZM5.6499 13.8002C5.9815 13.8002 6.2501 14.0688 6.2501 14.4001C6.2501 14.7312 5.9815 14.9999 5.6499 14.9999C5.31834 14.9999 5.0501 14.7312 5.0501 14.4001C5.0501 14.0688 5.31834 13.8002 5.6499 13.8002Z" fill="#FF7900"/>
</svg>
