<svg width="16" height="20" viewBox="0 0 16 20" fill="none" xmlns="http://www.w3.org/2000/svg">
<path d="M10.0672 7.89748C10.0672 9.02434 9.15038 9.94119 8.02339 9.94119C6.89654 9.94119 5.97968 9.02441 5.97968 7.89748C5.97968 6.77056 6.89647 5.85378 8.02339 5.85378C9.15031 5.85378 10.0672 6.77056 10.0672 7.89748ZM15.9721 18.951C15.9721 19.5303 15.5025 20 14.9232 20H1.07703C0.497727 20 0.0280762 19.5303 0.0280762 18.951V1.04895C0.0280762 0.46965 0.497727 0 1.07703 0H14.9232C15.5025 0 15.9721 0.46965 15.9721 1.04895V18.951ZM2.09003 3.01413C2.09003 3.5635 2.53542 4.00888 3.08479 4.00888C3.63416 4.00888 4.07954 3.5635 4.07954 3.01413C4.07954 2.46476 3.63416 2.01937 3.08479 2.01937C2.53542 2.01937 2.09003 2.46476 2.09003 3.01413ZM4.07954 17.001C4.07954 16.4516 3.63416 16.0062 3.08479 16.0062C2.53542 16.0062 2.09003 16.4516 2.09003 17.001C2.09003 17.5504 2.53542 17.9957 3.08479 17.9957C3.63423 17.9957 4.07954 17.5504 4.07954 17.001ZM12.9782 8.04818C12.9782 5.33552 10.7712 3.1286 8.05857 3.1286C5.34591 3.1286 3.13899 5.33552 3.13899 8.04818C3.13899 9.24916 3.57213 10.3505 4.28968 11.2056L5.11892 10.3736C5.46248 10.029 5.99766 9.9658 6.41185 10.2209C6.82612 10.4759 7.01059 10.9824 6.85752 11.4442L6.44318 12.6939C6.94947 12.8705 7.49269 12.9677 8.0585 12.9677C10.7712 12.9677 12.9782 10.7608 12.9782 8.04818ZM14.0271 17.001C14.0271 16.4516 13.5817 16.0062 13.0323 16.0062C12.483 16.0062 12.0376 16.4516 12.0376 17.001C12.0376 17.5504 12.483 17.9957 13.0323 17.9957C13.5817 17.9957 14.0271 17.5504 14.0271 17.001ZM14.0271 3.01413C14.0271 2.46476 13.5817 2.01937 13.0323 2.01937C12.483 2.01937 12.0376 2.46476 12.0376 3.01413C12.0376 3.5635 12.483 4.00888 13.0323 4.00888C13.5817 4.00888 14.0271 3.5635 14.0271 3.01413Z" fill="#FF7900"/>
</svg>
