<svg width="20" height="20" viewBox="0 0 20 20" fill="none" xmlns="http://www.w3.org/2000/svg">
<path d="M10 0.25C4.62391 0.25 0.25 4.62391 0.25 10C0.25 15.3761 4.62391 19.75 10 19.75C15.3761 19.75 19.75 15.3761 19.75 10C19.75 4.62391 15.3761 0.25 10 0.25ZM15.625 8.78828C15.625 8.89544 15.5824 8.99822 15.5067 9.074C15.4309 9.14977 15.3281 9.19234 15.2209 9.19234H12.43C12.3501 9.19247 12.2719 9.16885 12.2054 9.12448C12.1389 9.08012 12.087 9.017 12.0565 8.94313C12.0259 8.86927 12.0179 8.78799 12.0336 8.70959C12.0493 8.6312 12.0879 8.55923 12.1445 8.50281L13.1838 7.46359L12.9213 7.15844C12.4517 6.67099 11.8687 6.30749 11.2243 6.10044C10.58 5.89339 9.89436 5.84923 9.22877 5.97193C8.56317 6.09462 7.93835 6.38034 7.41017 6.80354C6.88199 7.22674 6.46691 7.77422 6.20204 8.39705C5.93718 9.01988 5.83077 9.69863 5.89234 10.3726C5.95392 11.0466 6.18155 11.6949 6.55489 12.2594C6.92823 12.8239 7.43564 13.2871 8.03176 13.6076C8.62788 13.9281 9.29413 14.0959 9.97094 14.0959C10.818 14.0951 11.644 13.8323 12.3357 13.3434C13.0274 12.8546 13.5509 12.1636 13.8344 11.3655C13.8672 11.2725 13.918 11.1869 13.984 11.1136C14.0499 11.0403 14.1296 10.9807 14.2185 10.9382C14.3075 10.8957 14.4039 10.8711 14.5024 10.8659C14.6008 10.8607 14.6993 10.8749 14.7923 10.9077C14.8852 10.9406 14.9708 10.9914 15.0441 11.0573C15.1174 11.1232 15.177 11.2029 15.2195 11.2919C15.262 11.3808 15.2866 11.4773 15.2918 11.5757C15.2971 11.6742 15.2828 11.7727 15.25 11.8656C14.9082 12.8331 14.307 13.6879 13.5121 14.3367C12.7172 14.9855 11.7593 15.4034 10.743 15.5446C9.72675 15.6858 8.69121 15.5449 7.74959 15.1373C6.80797 14.7297 5.99651 14.0711 5.4039 13.2335C4.8113 12.3959 4.46034 11.4115 4.3894 10.3879C4.31846 9.36431 4.53026 8.34092 5.00166 7.42957C5.47306 6.51822 6.18591 5.75399 7.0623 5.22041C7.93869 4.68682 8.94489 4.40442 9.97094 4.40406C10.7282 4.40117 11.478 4.55335 12.1742 4.85123C12.8704 5.14911 13.4983 5.58637 14.0191 6.13609L14.0453 6.16516L14.2473 6.39953L14.9355 5.71141C14.9721 5.67391 15.0159 5.64408 15.0641 5.62364C15.1124 5.6032 15.1643 5.59256 15.2167 5.59234C15.2701 5.59191 15.323 5.60206 15.3724 5.62221C15.4218 5.64235 15.4667 5.6721 15.5046 5.70972C15.5424 5.74734 15.5724 5.79209 15.5928 5.84138C15.6133 5.89067 15.6237 5.94352 15.6236 5.99688L15.625 8.78828Z" fill="#707070"/>
</svg>
