<svg width="20" height="20" viewBox="0 0 20 20" fill="none" xmlns="http://www.w3.org/2000/svg">
<path d="M0.5 4C0.5 3.04285 0.501063 2.37558 0.568786 1.87216C0.634561 1.38323 0.754865 1.12424 0.939553 0.939553C1.12424 0.754865 1.38323 0.634561 1.87216 0.568786C2.37558 0.501063 3.04285 0.5 4 0.5C4.95715 0.5 5.62442 0.501063 6.12784 0.568786C6.61677 0.634561 6.87576 0.754865 7.06045 0.939553C7.24513 1.12424 7.36544 1.38323 7.43121 1.87216C7.49894 2.37558 7.5 3.04285 7.5 4V16C7.5 16.9571 7.49894 17.6244 7.43121 18.1278C7.36544 18.6168 7.24513 18.8758 7.06045 19.0604C6.87576 19.2451 6.61677 19.3654 6.12784 19.4312C5.62442 19.4989 4.95715 19.5 4 19.5C3.04285 19.5 2.37558 19.4989 1.87216 19.4312C1.38323 19.3654 1.12424 19.2451 0.939553 19.0604C0.754865 18.8758 0.634561 18.6168 0.568786 18.1278C0.501063 17.6244 0.5 16.9571 0.5 16V4ZM12.5 4C12.5 3.04285 12.5011 2.37558 12.5688 1.87216C12.6346 1.38323 12.7549 1.12424 12.9396 0.939553C13.1242 0.754865 13.3832 0.634561 13.8722 0.568786C14.3756 0.501063 15.0429 0.5 16 0.5C16.9571 0.5 17.6244 0.501063 18.1278 0.568786C18.6168 0.634561 18.8758 0.754865 19.0604 0.939553C19.2451 1.12424 19.3654 1.38323 19.4312 1.87216C19.4989 2.37558 19.5 3.04285 19.5 4V16C19.5 16.9571 19.4989 17.6244 19.4312 18.1278C19.3654 18.6168 19.2451 18.8758 19.0604 19.0604C18.8758 19.2451 18.6168 19.3654 18.1278 19.4312C17.6244 19.4989 16.9571 19.5 16 19.5C15.0429 19.5 14.3756 19.4989 13.8722 19.4312C13.3832 19.3654 13.1242 19.2451 12.9396 19.0604C12.7549 18.8758 12.6346 18.6168 12.5688 18.1278C12.5011 17.6244 12.5 16.9571 12.5 16V4Z" stroke="#FF7900"/>
</svg>
