<svg width="20" height="20" viewBox="0 0 20 20" fill="none" xmlns="http://www.w3.org/2000/svg">
<path d="M18.1812 18.1817L18.1816 18.1813C18.8056 17.5577 19.1457 16.7256 19.3213 15.4196C19.4989 14.0992 19.5 12.3711 19.5 10C19.5 7.62886 19.4989 5.90107 19.3213 4.58065C19.1457 3.27477 18.8056 2.44225 18.1814 1.81755C18.1814 1.81751 18.1814 1.81747 18.1813 1.81743M18.1812 18.1817L1.464 1.464C2.93 0 5.286 0 10 0C14.714 0 17.071 0 18.535 1.464L18.1813 1.81743M18.1812 18.1817C17.5582 18.8056 16.7262 19.1457 15.42 19.3213C14.0994 19.4989 12.3711 19.5 10 19.5C7.62886 19.5 5.90082 19.4989 4.58027 19.3213C3.27413 19.1457 2.4417 18.8056 1.81755 18.1814L1.81743 18.1813C1.19398 17.5583 0.854104 16.7263 0.678545 15.42C0.501061 14.0994 0.5 12.3711 0.5 10C0.5 7.62887 0.501061 5.9008 0.678545 4.58022C0.854079 3.27415 1.1939 2.44173 1.81749 1.81762M18.1812 18.1817L1.81749 1.81762M18.1813 1.81743C17.5577 1.19392 16.7256 0.854084 15.4196 0.678544C14.0992 0.501061 12.3711 0.5 10 0.5C7.62887 0.5 5.90106 0.501061 4.58061 0.678544C3.2747 0.854071 2.44216 1.19389 1.81749 1.81762M18.1813 1.81743L1.81749 1.81762" stroke="#707070"/>
</svg>
  