<svg width="24" height="24" viewBox="0 0 24 24" fill="none" xmlns="http://www.w3.org/2000/svg">
<g filter="url(#filter0_d_3029_9530)">
<path d="M21.8111 18.6446L13.3916 2.84039C12.7949 1.71987 11.2051 1.71987 10.6079 2.84039L2.18892 18.6446C2.05935 18.8879 1.99439 19.1609 2.00038 19.4371C2.00637 19.7133 2.08311 19.9832 2.2231 20.2205C2.3631 20.4578 2.56156 20.6544 2.79913 20.791C3.0367 20.9276 3.30526 20.9996 3.57858 21H20.419C20.6925 21 20.9613 20.9283 21.1993 20.7919C21.4372 20.6555 21.636 20.459 21.7763 20.2216C21.9166 19.9842 21.9935 19.7142 21.9996 19.4377C22.0057 19.1613 21.9408 18.888 21.8111 18.6446ZM12 18.5532C11.8046 18.5532 11.6136 18.4946 11.4511 18.3849C11.2886 18.2752 11.162 18.1192 11.0872 17.9367C11.0124 17.7542 10.9928 17.5534 11.031 17.3597C11.0691 17.166 11.1632 16.988 11.3014 16.8484C11.4395 16.7087 11.6156 16.6136 11.8072 16.575C11.9989 16.5365 12.1976 16.5563 12.3781 16.6319C12.5586 16.7075 12.7129 16.8355 12.8215 16.9997C12.9301 17.1639 12.988 17.357 12.988 17.5545C12.988 17.6857 12.9625 17.8155 12.9128 17.9367C12.8632 18.0579 12.7904 18.168 12.6986 18.2607C12.6069 18.3534 12.498 18.427 12.3781 18.4772C12.2582 18.5274 12.1297 18.5532 12 18.5532ZM13.073 8.50894L12.7894 14.6009C12.7894 14.8128 12.7062 15.016 12.5579 15.1659C12.4097 15.3157 12.2086 15.3999 11.999 15.3999C11.7894 15.3999 11.5883 15.3157 11.4401 15.1659C11.2919 15.016 11.2086 14.8128 11.2086 14.6009L10.925 8.51143C10.9187 8.36592 10.9413 8.2206 10.9917 8.08413C11.0421 7.94766 11.1191 7.82285 11.2182 7.71712C11.3174 7.61139 11.4365 7.52691 11.5686 7.46872C11.7007 7.41053 11.8431 7.37982 11.9872 7.37842H11.9975C12.1426 7.37835 12.2862 7.40798 12.4196 7.46554C12.5531 7.5231 12.6736 7.60739 12.7739 7.71332C12.8742 7.81925 12.9523 7.94462 13.0033 8.08188C13.0544 8.21914 13.0774 8.36543 13.071 8.51193L13.073 8.50894Z" fill="#FF0000"/>
</g>
<defs>
<filter id="filter0_d_3029_9530" x="-2" y="-2" width="28" height="27" filterUnits="userSpaceOnUse" color-interpolation-filters="sRGB">
<feFlood flood-opacity="0" result="BackgroundImageFix"/>
<feColorMatrix in="SourceAlpha" type="matrix" values="0 0 0 0 0 0 0 0 0 0 0 0 0 0 0 0 0 0 127 0" result="hardAlpha"/>
<feOffset/>
<feGaussianBlur stdDeviation="2"/>
<feComposite in2="hardAlpha" operator="out"/>
<feColorMatrix type="matrix" values="0 0 0 0 1 0 0 0 0 0 0 0 0 0 0 0 0 0 1 0"/>
<feBlend mode="normal" in2="BackgroundImageFix" result="effect1_dropShadow_3029_9530"/>
<feBlend mode="normal" in="SourceGraphic" in2="effect1_dropShadow_3029_9530" result="shape"/>
</filter>
</defs>
</svg>
