<svg width="28" height="28" viewBox="0 0 28 28" fill="none" xmlns="http://www.w3.org/2000/svg">
<g filter="url(#filter0_d_1135_1152)">
<path d="M4 14C4 9.286 4 6.929 5.464 5.464C6.93 4 9.286 4 14 4C18.714 4 21.071 4 22.535 5.464C24 6.93 24 9.286 24 14C24 18.714 24 21.071 22.535 22.535C21.072 24 18.714 24 14 24C9.286 24 6.929 24 5.464 22.535C4 21.072 4 18.714 4 14Z" fill="#FF0000"/>
<path d="M22.1812 22.1817L22.1816 22.1813C22.8056 21.5577 23.1457 20.7256 23.3213 19.4196C23.4989 18.0992 23.5 16.3711 23.5 14C23.5 11.6289 23.4989 9.90107 23.3213 8.58065C23.1457 7.27477 22.8056 6.44225 22.1814 5.81755C22.1814 5.81751 22.1814 5.81747 22.1813 5.81743M22.1812 22.1817L5.464 5.464C6.93 4 9.286 4 14 4C18.714 4 21.071 4 22.535 5.464L22.1813 5.81743M22.1812 22.1817C21.5582 22.8056 20.7262 23.1457 19.42 23.3213C18.0994 23.4989 16.3711 23.5 14 23.5C11.6289 23.5 9.90082 23.4989 8.58027 23.3213C7.27413 23.1457 6.4417 22.8056 5.81755 22.1814L5.81743 22.1813C5.19398 21.5583 4.8541 20.7263 4.67854 19.42C4.50106 18.0994 4.5 16.3711 4.5 14C4.5 11.6289 4.50106 9.9008 4.67854 8.58022C4.85408 7.27415 5.1939 6.44173 5.81749 5.81762M22.1812 22.1817L5.81749 5.81762M22.1813 5.81743C21.5577 5.19392 20.7256 4.85408 19.4196 4.67854C18.0992 4.50106 16.3711 4.5 14 4.5C11.6289 4.5 9.90106 4.50106 8.58061 4.67854C7.2747 4.85407 6.44216 5.19389 5.81749 5.81762M22.1813 5.81743L5.81749 5.81762" stroke="#FF0000"/>
</g>
<defs>
<filter id="filter0_d_1135_1152" x="0" y="0" width="28" height="28" filterUnits="userSpaceOnUse" color-interpolation-filters="sRGB">
<feFlood flood-opacity="0" result="BackgroundImageFix"/>
<feColorMatrix in="SourceAlpha" type="matrix" values="0 0 0 0 0 0 0 0 0 0 0 0 0 0 0 0 0 0 127 0" result="hardAlpha"/>
<feOffset/>
<feGaussianBlur stdDeviation="2"/>
<feComposite in2="hardAlpha" operator="out"/>
<feColorMatrix type="matrix" values="0 0 0 0 1 0 0 0 0 0 0 0 0 0 0 0 0 0 1 0"/>
<feBlend mode="normal" in2="BackgroundImageFix" result="effect1_dropShadow_1135_1152"/>
<feBlend mode="normal" in="SourceGraphic" in2="effect1_dropShadow_1135_1152" result="shape"/>
</filter>
</defs>
</svg>
