<svg width="20" height="20" viewBox="0 0 20 20" fill="none" xmlns="http://www.w3.org/2000/svg">
<path d="M4.16695 1.6575C4.16695 1.26852 3.85156 0.953125 3.46297 0.953125H3.20398C2.81539 0.953125 2.5 1.26852 2.5 1.6575V3.60586H4.16695V1.6575Z" fill="#FF7900"/>
<path d="M7.50023 1.6575C7.50023 1.26852 7.18484 0.953125 6.79621 0.953125H6.53762C6.14934 0.953125 5.83398 1.26852 5.83398 1.6575V3.60586H7.50027L7.50023 1.6575Z" fill="#FF7900"/>
<path d="M10.8332 1.6575C10.8332 1.26852 10.5178 0.953125 10.1292 0.953125H9.87063C9.48234 0.953125 9.16699 1.26852 9.16699 1.6575V3.60586H10.8332V1.6575H10.8332Z" fill="#FF7900"/>
<path d="M14.1669 1.6575C14.1669 1.26852 13.8515 0.953125 13.4632 0.953125H13.2039C12.8156 0.953125 12.5002 1.26852 12.5002 1.6575V3.60586H14.1669V1.6575Z" fill="#FF7900"/>
<path d="M2.5 18.3426C2.5 18.7315 2.81539 19.0469 3.20398 19.0469H3.46297C3.8516 19.0469 4.16695 18.7315 4.16695 18.3426V16.3949H2.5V18.3426Z" fill="#FF7900"/>
<path d="M5.83378 18.3426C5.83378 18.7315 6.14917 19.0469 6.53741 19.0469H6.79601C7.18464 19.0469 7.50003 18.7315 7.50003 18.3426V16.3949H5.83374L5.83378 18.3426Z" fill="#FF7900"/>
<path d="M9.16703 18.3426C9.16703 18.7315 9.48242 19.0469 9.87066 19.0469H10.1293C10.5179 19.0469 10.8332 18.7315 10.8332 18.3426V16.3949H9.16699V18.3426H9.16703Z" fill="#FF7900"/>
<path d="M12.5002 18.3426C12.5002 18.7315 12.8156 19.0469 13.2039 19.0469H13.4632C13.8515 19.0469 14.1669 18.7315 14.1669 18.3426V16.3949H12.5002V18.3426Z" fill="#FF7900"/>
<path d="M17.5001 1.6575C17.5001 1.26852 17.1854 0.953125 16.7957 0.953125H16.5371C16.1488 0.953125 15.8335 1.26852 15.8335 1.6575V3.60586H17.5001V1.6575Z" fill="#FF7900"/>
<path d="M15.8335 18.3426C15.8335 18.7315 16.1489 19.0469 16.5371 19.0469H16.7957C17.1854 19.0469 17.5001 18.7315 17.5001 18.3426V16.3949H15.8335V18.3426Z" fill="#FF7900"/>
<path d="M6.56938 8.74902H5.81915C5.79849 8.74902 5.78833 8.75918 5.78833 8.77988V9.71652C5.78833 9.73719 5.79849 9.74738 5.81915 9.74738H6.56938C6.89005 9.74738 7.10728 9.55078 7.10728 9.25082C7.10728 8.94563 6.89001 8.74902 6.56938 8.74902Z" fill="#FF7900"/>
<path d="M9.78661 9.07483L9.31567 10.4408H10.2674L9.80208 9.07483H9.78661Z" fill="#FF7900"/>
<path d="M0 4.64734V15.3534H20V4.64734H0ZM7.74922 11.7189H7.17453C7.1332 11.7189 7.11289 11.7034 7.09711 11.667L6.42465 10.2958H5.8191C5.79844 10.2958 5.78828 10.3063 5.78828 10.3269V11.6669C5.78828 11.6981 5.76727 11.7188 5.73641 11.7188H5.22902C5.19816 11.7188 5.1775 11.6982 5.1775 11.6669V8.2521C5.1775 8.22089 5.19816 8.20023 5.22902 8.20023H6.59004C7.23695 8.20023 7.71277 8.62984 7.71277 9.25082C7.71277 9.71128 7.44895 10.0684 7.04559 10.2183L7.78531 11.6515C7.80602 11.6877 7.78535 11.7189 7.74922 11.7189ZM11.2612 11.7189H10.7537C10.718 11.7189 10.697 11.7034 10.6868 11.667L10.4538 10.984H9.12918L8.89652 11.667C8.88602 11.7034 8.86566 11.7189 8.82926 11.7189H8.32742C8.29102 11.7189 8.28051 11.6982 8.29102 11.667L9.49644 8.25214C9.50695 8.22093 9.52797 8.20027 9.56371 8.20027H10.04C10.0761 8.20027 10.0971 8.22093 10.1072 8.25214L11.2973 11.667C11.3074 11.6982 11.2973 11.7189 11.2612 11.7189ZM14.9129 11.667C14.9129 11.6982 14.8922 11.7189 14.8611 11.7189H14.4108C14.3799 11.7189 14.3593 11.6982 14.3593 11.667V9.51472H14.3386L13.5936 11.1705C13.5726 11.2171 13.5418 11.2378 13.4952 11.2378H13.1948C13.1486 11.2378 13.1174 11.2171 13.0967 11.1705L12.3518 9.51472H12.3311V11.667C12.3311 11.6982 12.3104 11.7189 12.2792 11.7189H11.8289C11.7981 11.7189 11.7774 11.6982 11.7774 11.667V8.25218C11.7774 8.22097 11.7981 8.20031 11.8289 8.20031H12.2894C12.3363 8.20031 12.3623 8.21609 12.3777 8.25218L13.3452 10.4202H13.3659L14.318 8.25218C14.3334 8.21609 14.3593 8.20031 14.4059 8.20031H14.8611C14.8923 8.20031 14.913 8.22097 14.913 8.25218V11.667H14.9129Z" fill="#FF7900"/>
</svg>
